<svg width="24" height="24" viewBox="0 0 24 24" fill="none" xmlns="http://www.w3.org/2000/svg">
<path d="M20.0001 12.1839C20.0001 11.6458 19.9524 11.135 19.8707 10.6378H12.1738V13.7097H16.5808C16.3832 14.7178 15.8043 15.5692 14.946 16.1482V18.1916H17.5752C19.1146 16.768 20.0001 14.6701 20.0001 12.1839Z" fill="#4285F4"/>
<path d="M12.1735 20.1737C14.3804 20.1737 16.2263 19.4381 17.5749 18.1916L14.9457 16.1482C14.2101 16.6386 13.2769 16.9383 12.1735 16.9383C10.0415 16.9383 8.23645 15.5011 7.58937 13.5598H4.87842V15.6645C6.22027 18.3346 8.9789 20.1737 12.1735 20.1737Z" fill="#34A853"/>
<path d="M7.58962 13.5598C7.41933 13.0694 7.33078 12.5449 7.33078 12C7.33078 11.4551 7.42614 10.9306 7.58962 10.4402V8.33545H4.87867C4.32014 9.4389 4 10.6786 4 12C4 13.3214 4.32014 14.5611 4.87867 15.6645L7.58962 13.5598Z" fill="#FBBC05"/>
<path d="M12.1735 7.06172C13.3791 7.06172 14.4553 7.47722 15.3067 8.28777L17.6362 5.95827C16.2263 4.63685 14.3804 3.82629 12.1735 3.82629C8.9789 3.82629 6.22027 5.66538 4.87842 8.33545L7.58937 10.4402C8.23645 8.49893 10.0415 7.06172 12.1735 7.06172Z" fill="#EA4335"/>
</svg>
