<svg width="606" height="471" viewBox="0 0 606 471" fill="none" xmlns="http://www.w3.org/2000/svg">
<path fill-rule="evenodd" clip-rule="evenodd" d="M594.321 289.03C593.716 288.681 593.825 287.934 594.539 287.535C595.443 287.086 595.961 284.792 595.906 282.654C595.8 280.324 596.087 278.708 596.571 278.988C599.111 280.454 592.54 272.286 587.507 267.597C579.508 260.225 562.827 249.46 559.133 249.434C557.452 249.273 556.415 248.836 556.766 248.229C557.537 246.892 555.914 245.793 543.025 238.514C540.969 237.327 503.983 215.649 493.048 209.173C489.058 206.869 480.007 201.32 472.77 196.818C458.297 187.814 444.319 179.906 409.222 161.1L404.989 158.657C404.143 158.168 383.928 146.821 360.135 133.57C288.777 93.5056 283.94 90.7127 281.649 88.2562C280.409 87.0538 279.25 86.5469 278.829 87.276C278.408 88.0051 272.877 85.2976 263.896 79.6266C255.934 74.7056 249.072 71.23 248.358 71.6281C247.524 71.9564 246.397 71.9537 245.792 71.6046C245.067 71.1857 245.105 70.56 245.819 70.1619C246.533 69.7638 243.649 67.7752 239.276 65.5745C234.954 63.5651 223.497 57.4363 213.752 51.9722C203.937 46.6295 195.07 42.1583 193.873 42.2771C192.867 42.3442 192.141 41.9253 192.492 41.3178C193.193 40.1026 174.761 29.2985 173.283 29.9034C172.639 30.18 170.1 28.7137 167.669 26.5002C165.047 24.3384 163.042 23.3429 163.124 24.0384C163.129 25.9853 160.055 24.0485 157.148 20.4258C155.806 18.8407 154.425 17.8814 154.074 18.489C153.723 19.0966 152.494 18.7112 151.374 17.5786C150.255 16.446 148.23 15.7632 146.963 16.0036C145.574 16.1741 142.461 14.863 139.89 12.8925C137.128 10.9738 135.053 10.0997 135.065 10.9168C135.077 11.7338 134.414 12.3233 133.408 12.3904C132.593 12.4059 132.129 11.8137 132.479 11.2061C132.9 10.477 132.163 9.24107 130.832 8.47304C129.502 7.70501 128.063 7.6842 127.712 8.29178C127.291 9.02088 127.494 9.78623 128.22 10.2052C128.825 10.5543 128.575 11.5445 127.651 12.3072C126.205 13.4163 126.79 14.0783 129.903 15.3894C133.016 16.7006 133.652 17.5538 132.498 18.9939C131.554 20.0694 131.929 21.0959 133.139 21.7941C134.418 22.3708 135.003 23.0328 134.36 23.3094C133.838 23.6558 133.269 25.7579 133.184 28.1392C133.099 30.5205 132.62 32.1881 132.066 32.0303C131.582 31.7511 132.027 32.6561 133.077 33.9102C134.056 35.2858 137.837 37.9544 141.293 39.7879C146.634 42.5471 147.34 43.2789 145.48 43.9872C143.74 44.7653 143.912 45.0265 146.42 45.9885C148.203 46.5317 149.915 47.1963 150.348 47.2843C150.781 47.3722 152.354 48.2799 153.855 49.3091C155.841 50.6176 156.535 50.5323 156.511 48.8982C156.398 47.6985 156.845 45.5266 157.426 44.2416C158.256 41.9663 158.498 42.106 159.373 46.1758C160.033 48.6632 159.777 50.7833 159.082 50.8686C158.197 51.0056 158.018 51.8743 158.584 52.8491C159.08 53.9454 160.882 54.1757 163.194 53.2425C166.723 51.8776 166.844 51.9475 166.167 54.7967C165.22 58.9491 167.194 59.4405 168.573 55.3761C169.314 53.5352 169.239 51.7098 168.513 51.2908C167.788 50.8719 167.756 50.3677 168.329 50.2126C169.024 50.1274 170.264 51.3298 171.295 52.8968C172.891 55.4385 173.012 55.5083 172.894 52.3616C172.94 50.606 172.342 49.1271 171.839 49.1606C171.215 49.1244 171.133 48.4288 171.694 47.4567C172.256 46.4846 173.472 46.0529 174.44 46.6114C175.286 47.1002 175.68 47.8138 175.209 48.3516C174.807 48.7678 174.43 50.8182 174.364 52.8867C174.299 54.9552 173.629 56.6745 172.864 56.8813C168.96 57.2197 169.499 59.6372 173.701 61.5767C176.673 63.1309 178.035 64.4031 177.817 65.8976C177.65 67.5834 178.134 67.8627 180.93 67.2088C183.656 66.6764 184.21 66.8341 183.438 68.1708C182.596 69.629 182.908 69.6471 184.718 68.7475C186.075 68.0728 186.515 67.0309 186.07 66.1259C185.504 65.1511 186.218 64.7529 187.516 65.0168C189.318 65.247 189.451 66.1339 188.259 68.1997C187.066 70.2654 187.332 72.0392 189.38 74.356C190.844 76.0109 193.071 77.459 194.319 77.5315C195.517 77.4127 196.745 77.7981 197.019 78.4419C197.362 78.9642 198.228 79.1401 199.133 78.6903C199.846 78.2922 201.164 78.2431 201.89 78.6621C202.737 79.1508 202.265 79.6886 200.787 80.2935C198.806 80.9319 198.697 81.6792 200.281 83.4039C201.522 84.6063 203.215 85.5838 204.412 85.4649C207.17 85.4367 209.588 86.8331 212.343 89.8818C214.099 91.8677 214.602 91.8341 215.101 89.8536C215.369 88.5505 215.642 89.1943 215.698 91.3326C215.785 93.975 216.23 94.88 217.224 93.9958C218.358 92.8686 219.135 93.4789 221.367 96.8739C222.982 99.1028 224.153 100.427 224.141 99.6098C224.015 97.593 228.95 98.8216 229.559 101.118C230.168 103.414 233.414 105.612 233.289 103.595C233.284 101.648 243.15 107.182 245.089 110.246C246.1 112.126 247.188 112.754 248.717 112.341C251.392 111.617 253.327 112.734 251.448 113.755C250.543 114.205 251.956 115.669 254.979 117.414C258.002 119.16 259.415 120.623 258.51 121.073C256.108 122.441 258.343 122.759 262.668 121.691C266.158 120.952 266.591 121.04 266.042 122.829C265.582 124.184 266.097 124.968 267.225 124.97C270.988 124.875 276.774 128.539 277.758 131.862C279.542 137.429 295.704 145.463 295.562 140.683C295.456 138.353 296.576 139.486 297.369 142.86C297.896 144.46 298.532 145.314 298.953 144.585C299.374 143.855 300.571 143.737 301.659 144.365C302.627 144.924 302.951 145.759 302.046 146.209C301.333 146.607 302.332 147.669 304.458 148.735C306.463 149.731 308.074 150.012 308.112 149.387C308.108 147.44 311.259 148.125 316.65 151.076C319.432 152.682 322.806 153.82 324.003 153.701C325.653 153.357 325.825 153.618 324.569 154.676C323.123 155.785 323.517 156.498 325.955 157.582C328.03 158.456 329.373 160.041 329.397 161.675C329.374 163.39 329.754 163.664 330.536 162.495C331.237 161.28 333.199 160.954 335.032 161.689C336.815 162.232 337.763 163.103 337.12 163.38C336.406 163.778 336.488 164.473 337.093 164.823C337.819 165.242 338.774 164.983 339.125 164.375C339.616 163.525 340.513 164.205 341.766 166.224C344.373 170.646 347.256 172.634 348.308 170.812C349.361 168.989 349.602 169.129 358.005 173.008C360.927 174.371 363.014 176.062 362.663 176.669C362.313 177.277 362.847 177.747 363.853 177.68C364.789 177.735 369.544 179.832 374.401 182.312C379.671 185.193 383.529 186.61 384.383 185.969C385.116 185.258 386.193 185.069 386.797 185.418C387.523 185.837 387.484 186.463 386.771 186.861C384.509 187.986 388.25 191.28 391.218 190.887C393.371 190.51 393.855 190.789 393.516 192.214C393.458 193.152 393.903 194.057 394.788 193.92C395.603 193.905 395.806 194.67 395.245 195.642C394.193 197.465 401.176 201.011 403.507 199.765C404.221 199.366 405.348 199.369 405.953 199.718C406.678 200.137 406.449 200.815 405.474 201.386C404.378 201.887 404.6 202.34 406.09 202.552C407.389 202.816 408.63 204.018 409.056 205.236C409.513 206.958 409.754 207.098 409.832 205.846C409.839 204.716 410.884 204.024 412.183 204.287C413.361 204.482 413.896 204.952 413.182 205.35C412.469 205.748 412.461 206.878 413.339 207.871C414.096 208.794 414.65 208.952 414.708 208.014C414.766 207.075 415.289 206.729 415.893 207.078C418.191 208.404 419.178 208.65 422.177 208.761C424.241 208.818 424.603 209.028 423.558 209.721C422.654 210.171 422.666 210.988 423.754 211.616C424.722 212.175 426.282 212.265 427.065 211.746C428.091 211.366 428.746 211.906 428.821 213.731C429.239 216.079 429.793 216.237 434.36 215.309C438.494 214.293 439.239 214.399 438.257 216.101C437.345 217.68 437.637 218.011 439.599 217.686C441.561 217.36 442.044 217.639 441.776 218.942C441.527 219.933 442.315 221.36 443.263 222.231C444.281 222.981 445.218 223.036 445.085 222.149C445.073 221.332 445.958 221.195 446.925 221.753C448.014 222.382 448.509 223.478 448.018 224.329C447.387 225.422 447.75 225.632 449.47 225.167C451.954 224.495 457.122 226.993 457.127 228.94C457.088 229.565 457.299 229.201 457.599 228.402C458.257 225.866 460.656 227.575 462.035 231.611C462.968 234.742 463.21 234.882 465.28 233.809C466.778 232.891 468.63 233.313 471.151 235.092C473.117 236.713 476.421 237.973 478.293 238.081C480.86 238.105 482.915 239.292 485.861 242.289C488.998 245.234 490.57 246.142 491.927 245.467C492.832 245.017 494.634 245.248 495.964 246.016C497.295 246.784 498.683 246.613 498.932 245.623C499.372 244.581 499.946 244.426 500.391 245.331C500.836 246.236 500.567 247.539 499.713 248.18C498.789 248.943 499.113 249.778 500.463 250.233C501.691 250.618 502.799 250.934 502.869 250.812C502.94 250.691 505.136 251.635 507.816 252.858C511.896 254.728 512.602 255.46 512.237 258.327C511.84 260.69 512.133 261.021 512.974 259.563C514.428 257.324 518.898 257.96 521.169 260.73C522.098 261.914 523.346 261.986 524.601 260.929C526.118 259.698 526.672 259.856 526.696 261.49C526.689 262.62 527.77 264.379 528.96 265.39C531.047 267.081 532.404 266.406 533.865 263.037C534.095 262.36 534.68 263.022 534.825 264.726C535.193 266.882 536.917 268.364 542.016 270.983C545.784 272.835 549.349 273.921 550.012 273.332C550.745 272.621 551.401 273.161 551.928 274.762C552.283 276.101 552.206 277.352 551.683 277.699C551.04 277.975 551.746 278.707 553.146 279.354C554.477 280.122 555.604 280.124 555.522 279.429C555.56 278.803 556.879 278.754 558.731 279.176C563.354 280.386 563.767 280.787 562.434 283.096C561.452 284.797 562.006 284.955 565.395 283.833C568.522 282.884 569.7 283.078 569.674 284.521C569.717 285.842 570.614 286.522 571.933 286.473C574.881 286.394 582.328 290.531 581.556 291.868C581.276 292.354 582.314 292.791 583.995 292.951C585.625 292.92 587.146 293.637 587.349 294.402C587.755 295.933 593.406 293.686 594.739 291.378C595.23 290.527 595.046 289.449 594.321 289.03ZM591.6 283.409C591.448 282.835 592.372 282.072 593.71 281.71C595.55 281.315 595.601 281.506 593.893 282.788C592.829 283.794 591.752 283.983 591.6 283.409ZM565.233 279.365C564.055 279.171 563.642 278.77 564.425 278.251C565.209 277.731 566.336 277.734 567.062 278.153C568.755 279.13 567.901 279.771 565.233 279.365ZM543.964 264.817C543.359 264.468 543.035 263.633 543.456 262.903C543.807 262.296 544.762 262.037 545.367 262.387C546.092 262.805 546.225 263.692 545.875 264.3C545.454 265.029 544.689 265.236 543.964 264.817ZM508.774 249.523C508.387 247.679 508.578 247.627 509.85 249.334C510.849 250.397 511.033 251.475 510.46 251.63C509.886 251.785 509.129 250.862 508.774 249.523ZM474.644 231.276C474.039 230.927 473.785 229.97 474.206 229.241C474.557 228.633 475.302 228.74 475.696 229.453C476.211 230.237 476.344 231.124 476.134 231.488C475.994 231.731 475.37 231.695 474.644 231.276ZM429.91 214.36C429.757 213.786 430.681 213.023 432.019 212.661C433.86 212.266 433.911 212.457 432.203 213.74C431.138 214.745 430.062 214.934 429.91 214.36ZM429.521 207.493C428.834 206.448 428.268 205.473 428.409 205.23C428.549 204.987 429.536 205.233 430.503 205.791C431.471 206.35 432.037 207.325 431.616 208.054C431.265 208.661 430.278 208.416 429.521 207.493ZM343.986 168.802C343.744 168.663 343.631 167.463 343.899 166.16C344.098 164.978 344.499 164.562 345.014 165.346C345.803 166.773 344.954 169.361 343.986 168.802ZM280.774 134.737C280.622 134.163 281.546 133.4 282.883 133.039C284.724 132.643 284.775 132.834 283.067 134.117C282.003 135.122 280.926 135.311 280.774 134.737ZM247.717 106.254C246.749 105.696 246.546 104.93 247.259 104.532C247.973 104.134 248.89 104.501 249.284 105.215C250.225 107.216 249.772 107.441 247.717 106.254ZM227.549 76.95C227.397 76.376 228.422 75.996 229.842 76.3297C231.956 76.5781 232.007 76.7694 230.217 77.3562C228.879 77.718 227.701 77.5241 227.549 76.95ZM210.138 85.044C209.775 84.8345 209.451 83.9994 209.509 83.0608C209.497 82.2438 210.09 81.7758 210.694 82.1249C211.42 82.5439 211.674 83.5005 211.323 84.1081C210.902 84.8372 210.379 85.1836 210.138 85.044ZM208.433 75.1488C207.618 75.1643 207.294 74.3291 207.926 73.2355C208.557 72.1418 209.442 72.0049 209.836 72.7185C210.352 73.502 210.485 74.3889 210.344 74.6319C210.204 74.8749 209.369 75.2032 208.433 75.1488ZM203.528 77.5013C202.771 76.5781 203.344 76.4231 204.674 77.1911C206.075 77.8377 206.59 78.6211 205.896 78.7064C205.322 78.8614 204.164 78.3545 203.528 77.5013ZM203.027 74.458C202.06 73.8995 201.927 73.0126 202.641 72.6145C203.545 72.1647 204.532 72.4104 204.926 73.124C205.988 75.1952 205.204 75.7148 203.027 74.458ZM192.711 74.1728C190.979 73.821 189.427 72.6004 189.071 71.261C188.805 69.4873 188.875 69.3658 189.613 70.6018C190.128 71.3852 191.166 71.8223 192.07 71.3725C193.95 70.3514 197.215 72.2365 196.373 73.6947C196.022 74.3023 194.373 74.6461 192.711 74.1728ZM186.896 53.803C185.987 52.3059 185.389 50.8269 185.6 50.4624C185.74 50.2193 186.688 51.0908 187.598 52.5879C188.507 54.085 189.104 55.564 188.894 55.9286C188.753 56.1716 187.805 55.3002 186.896 53.803ZM176.907 43.1755C176.303 42.8264 176.049 41.8697 176.47 41.1406C176.82 40.533 177.565 40.6391 177.96 41.3527C178.475 42.1362 178.608 43.0231 178.397 43.3876C178.257 43.6306 177.633 43.5944 176.907 43.1755ZM168.521 42.0604C168.65 41.0003 167.702 40.1288 166.403 39.865C164.913 39.6528 164.569 39.1305 165.474 38.6807C166.379 38.2309 166.628 37.2406 165.922 36.5088C165.286 35.6556 165.808 35.3092 167.419 35.5912C168.788 35.7335 169.444 36.2739 168.73 36.672C168.016 37.0701 168.079 38.0785 168.766 39.1232C169.523 40.0463 169.808 41.5072 169.196 42.288C168.565 43.3816 168.253 43.3635 168.521 42.0604ZM144.218 29.9733C140.107 27.5994 140.083 25.9653 144.151 27.018C146.055 27.6309 148.548 30.8527 147.846 32.0679L144.218 29.9733ZM138.488 36.5479C135 34.2102 133.493 31.2341 135.373 30.213C136.277 29.7632 137.003 30.182 137.358 31.5214C137.663 32.6694 138.884 34.1847 140.094 34.8829C141.303 35.5811 141.99 36.6258 141.709 37.1119C141.359 37.7194 139.939 37.3857 138.488 36.5479ZM139.469 21.7223C140.308 23.3409 140.047 23.5141 138.354 22.5366C135.935 21.1402 137.599 18.5366 140.299 19.447C141.527 19.8324 141.457 19.9539 140.209 19.8814C138.961 19.8089 138.801 20.3648 139.469 21.7223ZM136.089 26.738C135.816 26.0941 135.753 25.0858 136.174 24.3567C136.525 23.7491 137.289 23.5423 137.773 23.8216C138.378 24.1707 138.37 25.3006 137.809 26.2727C137.248 27.2449 136.483 27.4516 136.089 26.738Z" fill="#C2D0FF"/>
<path fill-rule="evenodd" clip-rule="evenodd" d="M558.688 316.191C558.423 314.138 556.85 312.122 553.709 310.309C551.241 308.725 548.978 306.786 548.906 305.794C548.835 304.803 548.077 304.999 547.392 306.186C546.706 307.374 545.381 307.717 544.173 307.019C542.482 306.043 542.498 305.736 544.307 305.672C547.304 305.502 544.59 302.669 538.12 299.092L533.53 296.442L534.885 300.232C535.649 302.256 535.636 303.673 534.911 303.255C534.065 302.767 532.991 300.722 532.364 298.46C531.528 295.445 530.353 294.133 527.232 293.122C524.852 292.223 522.694 290.661 522.26 289.46C521.705 288.19 521.117 287.534 520.774 288.128C520.432 288.721 513.461 285.172 505.195 280.241C496.031 274.634 490.148 271.712 490.22 272.703C490.279 275.112 485.101 277.663 482.806 276.338C481.115 275.362 480.978 275.599 481.827 277.198C482.451 278.349 483.884 279.493 485.177 279.765C486.832 280.246 486.574 280.413 484.455 280.456C482.336 280.5 481.181 279.991 480.642 278.413C480.208 277.213 479.447 276.299 479 276.515C478.5 276.543 478.67 275.692 479.356 274.504C480.11 273.198 481.435 272.855 482.264 273.651C484.837 275.611 488.261 274.422 487.651 271.853C487.197 269.85 469.923 259.877 465.477 259.209C464.615 259.028 463.975 258.184 464.092 257.144C464.331 256.173 462.228 255.909 458.82 256.791C454.034 257.827 452.934 258.617 452.529 261.549C452.311 263.323 451.678 264.698 451.315 264.489C450.47 264.001 452.131 254.987 453.247 253.89C453.831 253.436 453.175 252.899 452.124 252.767C450.952 252.565 449.708 251.372 449.395 250.241C448.977 248.733 448.614 248.524 447.997 249.593C447.518 250.424 445.967 250.32 444.397 249.413C442.826 248.507 441.357 246.867 440.991 245.548C440.626 244.228 440.09 243.761 439.679 244.473C439.336 245.067 432.539 241.776 423.721 236.685C391.159 218.043 354.254 199.111 347.98 197.705C346.997 197.454 346.168 196.659 346.096 195.667C346.145 194.746 345.195 193.881 344.023 193.679C342.972 193.547 342.022 192.682 342.071 191.76C341.93 190.887 341.222 190.162 340.344 190.288C338.724 190.303 330.909 186.266 308.581 174.166C303.008 171.265 298.141 167.98 297.569 167.017C296.893 165.677 296.515 165.775 296.554 167.381C296.646 169.175 296.456 169.224 295.624 167.318C295.069 166.048 292.375 164.018 289.581 162.721C286.855 161.306 281.954 158.635 278.572 156.682C270.978 151.981 273.152 153.237 243.13 137.17C181.809 104.457 177.203 102.114 164.562 97.5072C159.56 95.5695 153.041 92.9135 150.315 91.498C147.52 90.2011 145.055 89.7279 144.765 90.51C144.595 91.3619 142.888 90.6927 140.367 88.921C138.278 87.2397 136.45 86.5008 136.538 87.185C136.505 87.7994 135.212 87.5278 133.4 86.4817C131.657 85.3169 128.641 84.6835 126.626 85.1036C124.681 85.405 121.821 85.337 120.287 84.926C118.631 84.4453 119.098 85.0315 121.687 86.6845C129.229 91.1969 129.989 92.111 127.907 92.6499C124.877 93.4337 123.784 96.4435 126.438 96.8677C127.61 97.0694 128.024 97.4671 127.319 97.8516C126.614 98.236 126.376 99.2066 126.827 100.1C127.277 100.993 126.97 102.083 126.076 102.516C125.234 103.138 126.869 102.816 129.536 101.823C132.324 100.899 134.942 100.828 135.272 101.652C136.415 103.578 133.288 106.205 131.681 104.802C131.025 104.265 129.752 104.797 128.756 105.963C127.297 107.654 127.349 107.842 129.138 106.975C130.927 106.109 131.463 106.576 132.54 109.731C133.363 112.211 133.95 112.497 134.3 110.589C134.62 108.082 134.809 108.033 135.782 110.811C137.5 114.811 144.594 119.54 145.828 117.402C146.376 116.453 147.597 115.733 148.717 115.746C149.836 115.759 149.889 115.948 148.926 116.5C147.326 117.318 147.604 117.953 151.09 120.283C151.746 120.82 152.559 121.922 152.631 122.914C152.824 123.975 153.549 124.393 155.064 124.001C156.2 123.707 157.855 124.188 158.495 125.032C159.255 125.947 161.221 126.448 162.788 126.245C165.301 125.796 165.543 125.936 163.754 126.803C162.275 127.69 162.621 128.207 166.105 129.426C168.795 130.346 169.934 131.162 169.04 131.596C168.335 131.98 168.56 132.427 169.732 132.628C171.645 132.941 176.699 135.068 181.495 137.362C182.892 138.01 183.718 137.695 183.646 136.704C183.643 135.594 184.247 135.943 185.389 137.869C186.826 140.123 187.913 140.751 189.859 140.449C191.873 140.029 192.288 140.427 192.069 142.2C191.628 144.637 199.637 149.736 202.131 148.484C202.957 148.17 204.286 148.937 205.219 150.109C206.205 151.47 207.397 152.475 208.001 152.823C208.553 152.984 208.641 153.668 208.161 154.499C207.75 155.211 208.611 155.392 210.211 154.574C212.31 153.728 213.172 153.909 213.159 155.327C213.267 156.814 213.871 157.162 215.817 156.861C217.573 156.608 219.023 157.445 221.079 159.741C222.601 161.569 224.396 162.922 224.844 162.706C225.343 162.677 225.467 163.857 225.196 165.442C224.619 168.117 224.86 168.256 227.322 167.619C228.957 167.297 230.681 167.659 231.132 168.552C231.582 169.446 232.098 169.11 232.3 167.644C232.64 165.94 233.26 165.982 235.229 167.593C236.835 168.996 238.627 169.239 240.037 168.47C241.774 167.415 242.326 167.575 242.365 169.181C242.368 170.291 241.51 171.22 240.201 171.256C239.081 171.242 238.239 171.864 238.448 172.618C238.536 173.302 239.881 173.762 241.138 173.538C242.963 173.167 243.74 173.774 244.21 175.47C244.801 177.236 244.99 177.187 245.278 175.295C245.48 173.829 246.27 173.018 246.995 173.437C247.719 173.855 248.509 173.045 248.643 171.697C248.966 170.301 249.309 169.707 249.518 170.461C250.021 171.543 249.306 174.455 247.834 177.562C247.681 178.107 248.32 178.951 249.287 179.509C250.253 180.067 251.304 180.199 251.579 179.724C251.921 179.131 253.335 179.472 254.974 180.26C256.423 181.097 260.615 183.042 264.392 184.589C269.808 186.925 271.242 188.069 271.973 190.708C272.611 192.764 273.054 193.02 273.302 191.475C273.658 189.464 274.467 189.456 278.316 191.995C280.853 193.46 282.512 195.051 281.996 195.386C281.428 195.533 282.672 196.726 284.536 197.961C286.469 199.076 288.675 199.717 289.381 199.333C290.206 199.018 291.568 199.171 292.534 199.729C293.501 200.287 293.83 201.11 293.194 201.376C292.678 201.712 293.181 202.793 294.63 203.63C296.132 204.656 296.752 204.697 296.181 203.734C295.557 202.582 295.985 201.563 297.327 200.913C299.116 200.046 299.357 200.185 298.603 201.492C298.055 202.441 298.574 203.216 299.935 203.369C301.107 203.57 303.265 205.133 304.666 206.891C306.014 208.461 307.758 209.626 308.394 209.361C309.031 209.095 311.669 209.826 314.101 210.914C316.464 212.12 319.239 212.614 320.202 212.062C321.544 211.412 321.786 211.552 321.1 212.739C320.689 213.451 321.244 214.721 322.452 215.419C324.143 216.395 324.401 216.228 323.379 214.371C322.703 213.031 322.857 212.486 323.702 212.975C324.548 213.463 325.207 215.11 325.126 216.646C325.234 218.133 325.632 218.838 326.043 218.126C327.071 216.345 335.837 221.247 336.017 223.726C336.125 225.213 336.366 225.352 336.983 224.284C337.463 223.452 339.203 223.507 340.894 224.484C342.585 225.46 344.188 225.752 344.6 225.04C344.942 224.446 344.113 223.651 342.82 223.379C340.786 222.996 340.734 222.808 342.611 222.625C343.989 222.471 345.576 223.07 346.215 223.915C346.803 224.571 348.697 224.081 350.518 222.599C352.271 221.237 353.355 220.755 352.875 221.586C351.762 223.793 354.142 224.692 356.238 222.736C358.918 220.325 366.224 221.061 364.784 223.554C364.236 224.504 363.479 224.7 363.028 223.807C362.232 222.397 354.054 224.008 354.593 225.585C354.749 226.151 356.284 226.561 357.919 226.239C359.882 226.001 359.952 226.252 358.128 226.993C356.476 227.623 354.374 227.359 353.424 226.493C352.474 225.628 350.492 225.434 348.961 226.133C346.846 227.286 346.692 227.831 347.917 228.221C348.899 228.472 350.071 228.674 350.639 228.527C351.207 228.38 353.946 228.378 356.738 228.565C361.647 228.708 361.889 228.848 362.882 232.429C364.031 236.575 365.259 238.076 365.233 235.053C365.108 233.873 365.608 233.844 366.662 235.086C367.544 236.07 368.768 236.461 369.61 235.839C370.831 235.119 371.073 235.258 371.06 236.676C370.858 238.142 372.134 238.72 376.27 239.367C379.935 239.9 380.448 240.407 377.808 240.888C374.416 241.463 374.021 241.868 375.249 243.368C376.009 244.282 376.561 244.443 376.61 243.521C376.659 242.599 377.658 242.543 378.987 243.31C380.316 244.077 381.918 244.37 382.744 244.055C384.67 242.951 391.471 247.352 389.666 248.526C388.892 249.029 389.391 249.001 390.906 248.609C393.952 247.518 399.159 249.099 396.854 250.302C394.928 251.406 395.774 251.894 401.771 252.665C406.217 253.333 407.063 253.821 408.415 256.501C409.3 258.595 410.197 259.272 410.677 258.44C411.089 257.728 411.709 257.77 412.228 258.544C412.626 259.249 413.194 259.102 413.312 258.062C413.429 257.022 414.493 255.736 415.646 255.135C417.314 254.199 418.039 254.617 418.75 256.453C419.116 257.772 420.376 258.658 421.134 258.462C422.012 258.336 421.806 258.692 420.843 259.244C419.88 259.796 418.708 259.594 418.31 258.89C417.98 258.066 417.36 258.024 416.949 258.737C415.509 261.23 418.098 262.883 421.091 261.604C423.07 260.688 425.051 260.882 426.364 261.956C427.555 262.961 428.78 263.351 429.191 262.639C429.534 262.045 430.412 261.919 431.137 262.337C431.741 262.686 431.639 263.419 430.934 263.804C430.161 264.307 430.37 265.061 431.457 265.688C432.665 266.386 432.684 267.189 431.721 267.741C430.827 268.174 431.81 268.425 433.876 268.193C435.995 268.15 438.391 268.742 439.031 269.586C439.912 270.57 440.859 270.325 441.545 269.138C442.573 267.357 442.883 267.378 443.872 269.849C444.516 271.803 444.878 272.012 444.822 270.714C444.819 269.604 445.472 269.031 446.076 269.38C447.767 270.356 446.876 271.899 444.225 272.585C442.9 272.928 442.488 273.641 442.939 274.534C443.389 275.427 445.13 275.482 446.592 274.902C449.654 273.503 453.102 274.227 452.142 275.89C451.799 276.483 452.475 277.823 453.598 278.947C455.136 280.468 456.014 280.341 456.905 278.798C458.413 276.186 457.199 273.268 454.025 272.069C452.68 271.61 451.92 270.695 452.262 270.102C452.605 269.508 454.208 269.8 455.899 270.777C457.59 271.753 458.645 272.995 458.302 273.589C457.959 274.183 458.495 274.65 459.615 274.663C460.613 274.607 460.786 274.865 460.013 275.368C459.118 275.801 458.916 277.268 459.403 278.657C459.889 280.046 459.687 281.512 458.724 282.064C457.95 282.567 458.312 282.777 459.759 282.503C461.084 282.161 463.549 282.634 465.119 283.54C467.414 284.865 468.051 284.6 468.612 282.233C469.037 280.103 469.432 279.698 470.124 280.731C470.574 281.624 470.356 283.397 469.602 284.704C468.436 286.722 468.73 287.05 471.401 287.167C473.141 287.222 475.05 286.425 475.736 285.237C476.695 283.575 477.006 283.596 476.96 285.628C477.136 286.996 476.572 288.253 475.798 288.756C475.093 289.14 475.266 289.399 476.265 289.342C477.385 289.355 478.674 288.517 479.223 287.567C479.84 286.498 481.028 286.393 482.219 287.397C483.29 288.332 483.398 289.819 482.471 290.867C481.612 291.796 481.547 293.025 482.272 293.444C482.876 293.792 483.823 293.547 484.303 292.716C484.714 292.004 485.233 292.779 485.445 294.642C485.705 296.797 486.251 297.06 487.084 295.43C488.282 292.797 492.748 294.268 493.326 297.451C493.519 298.512 493.93 297.8 494.39 296.166C494.952 293.799 495.725 293.296 497.054 294.063C498.141 294.69 498.507 296.01 497.959 296.96C497.41 297.909 497.534 299.089 498.259 299.508C498.863 299.856 499.379 299.521 499.428 298.599C499.425 297.489 500.27 297.977 501.844 299.994C503.832 302.409 505.298 302.938 508.984 302.692C512.738 302.326 513.962 302.716 514.485 304.601C515.076 306.367 515.196 306.437 515.209 305.02C515.222 303.602 516.1 303.476 517.912 304.522C519.724 305.568 519.933 306.322 518.592 306.972C517.508 307.455 518.197 307.377 520.09 306.888C523.067 305.915 523.981 306.285 525.833 308.937C528.738 312.83 532.898 315.39 532.839 312.982C532.904 311.753 533.266 311.962 534.357 313.7C536.884 317.692 542.901 319.266 543.994 316.256C544.506 314.81 545.159 314.238 545.678 315.012C546.008 315.836 546.919 315.095 547.568 313.412C548.476 311.561 549.439 311.009 550.268 311.805C551.166 312.481 551.734 312.334 551.662 311.343C551.643 310.54 552.106 310.016 552.831 310.435C553.435 310.783 554.006 311.747 554.078 312.738C554.098 313.541 555.237 314.357 556.53 314.628C558.012 314.851 558.358 315.367 557.464 315.801C556.569 316.234 556.573 317.344 557.265 318.377C558.959 320.464 559.217 320.296 558.688 316.191ZM531.748 305.386C530.938 305.394 530.471 304.808 530.814 304.214C531.225 303.502 532.172 303.257 532.776 303.605C533.501 304.024 533.847 304.54 533.71 304.778C533.504 305.134 532.678 305.448 531.748 305.386ZM505.516 301.165C504.707 301.172 504.498 300.418 505.046 299.468C505.595 298.519 506.352 298.323 506.75 299.028C507.028 299.663 507.237 300.417 507.1 300.654C506.963 300.892 506.205 301.087 505.516 301.165ZM506.72 289.037C506.201 288.262 505.995 288.618 506.413 290.126C507.112 293.379 506.016 295.279 504.922 292.431C504.367 291.161 503.227 290.345 502.47 290.541C501.592 290.667 501.797 290.311 502.692 289.877C503.655 289.325 503.945 288.543 503.462 288.264C502.858 287.915 502.992 286.568 503.694 285.073C504.601 283.223 505.169 283.076 505.656 284.465C506.159 285.546 507.765 286.949 509.283 287.667C511.526 288.804 511.63 289.181 509.91 289.929C508.705 290.341 507.292 290 506.72 289.037ZM499.548 292.811C498.667 291.828 498.406 290.885 498.905 290.857C499.473 290.71 500.129 291.247 500.58 292.141C501.896 294.325 501.122 294.828 499.548 292.811ZM454.785 261.269C454.629 260.703 455.125 259.565 455.967 258.943C456.878 258.202 457.034 258.768 456.28 260.074C455.647 261.45 454.874 261.953 454.785 261.269ZM440.924 263.239C439.958 262.681 439.145 261.578 439.194 260.657C439.122 259.666 440.483 259.818 442.295 260.864C444.107 261.91 444.92 263.013 444.025 263.447C443.252 263.95 441.89 263.797 440.924 263.239ZM433.889 260.918C431.065 261.346 431.013 261.158 433.611 260.283C436.347 259.172 437.656 259.136 437.107 260.086C436.97 260.323 435.456 260.715 433.889 260.918ZM424.424 252.763C423.732 251.73 423.366 250.411 423.709 249.817C424.12 249.105 424.776 249.642 425.384 251.101C425.87 252.49 426.236 253.809 426.099 254.046C425.962 254.284 425.185 253.677 424.424 252.763ZM413.761 241.382C410.47 241.224 410.35 241.154 412.948 240.28C414.479 239.581 416.167 239.447 416.771 239.796C418.583 240.842 417.362 241.562 413.761 241.382ZM394.987 242.099C393.815 241.898 392.835 242.757 392.581 244.035C392.091 247.393 388.5 244.687 388.506 241.049C388.65 237.174 389.061 236.462 390.752 237.438C391.356 237.787 391.255 238.52 390.55 238.905C389.776 239.408 389.985 240.162 391.072 240.789C392.28 241.487 392.985 241.102 392.982 239.992C392.979 238.882 393.184 238.526 393.514 239.35C393.723 240.103 395.084 240.256 396.478 239.795C398.835 238.781 398.956 238.85 397.996 240.513C397.379 241.581 396.038 242.231 394.987 242.099ZM373.916 235.634C373.312 235.285 373.188 234.105 373.805 233.036C374.354 232.087 375.232 231.96 375.63 232.665C376.149 233.44 376.153 234.55 375.741 235.262C375.398 235.856 374.641 236.052 373.916 235.634ZM360.471 215.682C359.231 215.599 358.281 214.733 358.261 213.931C358.189 212.939 359.309 212.952 360.638 213.72C363.658 215.463 363.488 216.315 360.471 215.682ZM346.124 216.263C344.018 214.889 343.965 214.7 345.931 215.202C348.017 215.773 348.343 215.487 347.974 213.057C347.553 210.439 347.742 210.39 348.784 213.05C350.381 216.979 349.196 218.195 346.124 216.263ZM228.229 165.769C226.662 165.972 225.869 165.672 226.28 164.96C226.623 164.366 227.948 164.023 229.189 164.106C230.361 164.308 231.275 164.678 231.138 164.915C231.001 165.152 229.675 165.495 228.229 165.769ZM206.987 130.867C206.227 129.953 206.795 129.806 208.124 130.573C209.521 131.221 210.04 131.996 209.351 132.073C208.783 132.22 207.627 131.711 206.987 130.867ZM195.758 143.064C195.601 142.498 196.512 141.758 197.838 141.415C199.662 141.044 199.715 141.232 198.03 142.476C196.982 143.454 195.915 143.629 195.758 143.064ZM179.47 134.452C178.866 134.103 178.4 133.517 178.537 133.279C178.742 132.923 179.689 132.678 180.499 132.671C181.429 132.733 181.775 133.249 181.432 133.843C181.021 134.555 180.195 134.87 179.47 134.452ZM155.964 108.215C155.36 107.867 154.893 107.281 155.03 107.043C155.235 106.687 156.182 106.442 156.992 106.434C157.922 106.497 158.268 107.013 157.926 107.607C157.514 108.319 156.688 108.634 155.964 108.215ZM138.625 105.329C138.468 104.763 139.379 104.023 140.705 103.68C142.529 103.309 142.582 103.497 140.897 104.741C139.849 105.719 138.782 105.894 138.625 105.329ZM133.535 96.8493C132.931 96.5006 132.464 95.9145 132.601 95.677C132.807 95.3208 133.754 95.0759 134.563 95.0684C135.494 95.1306 135.84 95.6471 135.497 96.2407C135.086 96.9531 134.26 97.2678 133.535 96.8493Z" fill="#C2D0FF"/>
<path fill-rule="evenodd" clip-rule="evenodd" d="M526.609 353.872C525.793 353.888 525.661 353.001 526.223 352.027C526.855 350.932 526.984 349.871 526.571 349.47C525.966 349.121 524.777 348.11 523.829 347.238C521.984 345.687 520.275 346.971 518.441 351.266C518.191 352.257 517.496 352.343 516.931 351.368C516.366 350.392 517.127 348.236 518.493 346.429C520.803 343.544 520.772 343.04 517.921 341.556C516.158 340.7 512.015 337.822 508.72 335.433C504.718 332.311 501.918 331.019 500.147 331.294C498.758 331.466 497.962 331.169 498.314 330.56C498.735 329.83 495.439 327.441 490.029 324.804C465.075 312.181 457.609 308.357 448.611 303C441.357 298.812 438.053 297.553 435.95 298.124C433.918 298.573 432.931 298.327 433.009 297.075C432.815 295.178 412.603 283.833 410.914 284.805C410.27 285.082 409.182 284.454 408.425 283.53C407.548 282.537 406.007 282.134 404.719 282.689C403.553 283.313 402.687 283.138 402.746 282.198C403.015 280.894 397.816 277.892 377.444 267.104C375.198 265.969 373.173 265.287 372.963 265.652C372.752 266.017 369.155 264.427 364.974 262.175C351.604 254.618 315.053 236.111 305.474 232.041C305.111 231.831 304.577 231.361 304.284 231.029C302.771 229.183 298.348 226.791 297.373 227.364C295.824 228.092 286.806 223.048 286.733 221.221C286.721 220.403 284.564 218.833 281.885 217.61C279.205 216.388 271.498 212.425 264.637 208.95C257.846 205.354 248.376 200.536 243.45 198.178C238.715 195.769 232.217 192.504 229.194 190.759C220.176 185.715 219.451 185.296 202.777 176.48C193.981 171.889 183.06 166.233 178.567 163.963C162.408 155.931 140.425 144.862 137.765 143.326C136.193 142.418 134.633 142.329 134.211 143.059C133.649 144.032 133.286 143.823 132.881 142.291C132.527 140.951 130.713 139.903 127.269 138.888C124.429 138.222 119.222 136.351 115.696 134.64C112.22 133.12 108.605 131.844 107.598 131.912C106.713 132.05 103.58 131.052 100.85 129.638C98.0495 128.346 94.0514 127.173 91.8669 127.048C89.6824 126.922 86.3393 126.29 84.2447 125.729C82.0994 124.978 80.0865 125.113 79.7353 125.722C79.3138 126.452 78.0654 126.38 76.8563 125.682C75.6472 124.984 74.0672 125.207 73.5052 126.181C72.592 127.763 73.5201 128.947 76.7536 130.327C77.3075 130.485 77.8303 130.138 78.01 129.268C78.2404 128.59 78.7436 128.556 79.1881 129.462C79.7028 130.246 79.4529 131.237 78.7389 131.636C78.0249 132.035 77.8452 132.905 78.2897 133.81C78.7341 134.716 78.293 135.759 76.7245 136.8C74.7737 137.945 74.6561 139.824 75.9848 145.621C77.7187 152.949 80.6746 156.765 82.3606 153.844C82.8523 152.993 82.7707 152.296 82.1465 152.261C81.5224 152.225 81.4406 151.529 82.0026 150.555C82.9158 148.973 83.2786 149.183 84.7836 152.161C87.1268 156.758 89.978 158.242 91.5742 155.757C92.3469 154.418 92.8501 154.384 92.6508 155.567C92.2523 157.933 95.7588 159.957 98.9383 159.197C100.971 158.748 101.213 158.888 99.7846 159.686C98.618 160.31 99.0625 161.216 101.118 162.403C102.811 163.38 104.102 164.774 104.164 165.783C104.167 167.732 108.446 168.418 111.786 167.101C114.099 166.166 114.462 166.375 114.637 168.585C114.66 170.221 115.073 170.622 115.635 169.649C116.127 168.797 117.637 168.695 118.967 169.463C120.297 170.231 121.666 170.372 122.088 169.642C123.001 168.06 126.265 169.945 125.886 171.998C125.507 174.05 133.623 181.494 135.02 180.191C135.613 179.723 136.6 179.968 137.044 180.873C137.68 181.727 137.598 181.031 136.901 179.168C135.708 176.208 135.778 176.086 138.056 177.726C139.507 178.564 140.134 180.548 139.654 182.218C139.135 184.514 139.427 184.845 141.046 183.995C143.379 182.746 148.828 184.757 147.845 186.46C147.564 186.947 147.766 187.713 148.492 188.132C149.096 188.481 149.779 187.577 150.049 186.272C150.447 183.907 150.568 183.977 151.609 186.362C152.135 187.964 153.859 189.446 155.591 189.797C157.444 190.218 158.15 190.95 157.518 192.045C156.745 193.383 156.987 193.523 158.606 192.673C159.651 191.979 161.212 192.068 162.109 192.749C165.868 195.73 167.912 196.099 168.311 193.734C168.69 191.681 169.002 191.699 170.476 194.172C171.435 195.862 172.504 196.803 172.785 196.317C172.995 195.951 173.58 196.614 174.126 197.902C174.723 199.382 177 201.022 180.546 202.42C184.645 203.975 185.784 204.795 184.618 205.42C183.642 205.992 183.412 206.67 184.016 207.019C184.742 207.438 186.903 205.928 189.034 203.913C191.114 201.707 192.28 201.083 191.629 202.491C189.552 206.646 192.165 209.939 198.71 211.447C201.792 212.253 204.62 212.101 204.87 211.109C205.241 210.188 205.814 210.032 206.259 210.938C206.773 211.722 206.523 212.713 205.809 213.112C203.738 214.187 211.265 219.02 214.858 218.661C217.062 218.473 218.462 219.119 219.008 220.408C219.503 221.505 220.865 222.778 222.335 223.302C223.614 223.878 225.771 225.448 226.871 226.894C228.505 228.811 229.975 229.335 232.581 228.731C235.57 228.023 236.365 228.32 237.477 230.584C238.447 233.091 240.936 234.366 246.494 235.628C248.035 236.031 248.246 235.666 247.759 233.438C247.474 231.976 246.667 230.861 246.164 230.895C245.54 230.859 245.286 229.901 245.486 228.718C245.873 225.535 248.466 229.141 250.652 236.244C252.586 242.39 256.438 246.885 257.773 244.573C258.195 243.843 259.252 243.967 260.008 244.891C260.695 245.936 261.923 246.321 262.828 245.87C263.613 245.349 265.395 245.892 266.655 246.781C268.106 247.619 269.557 248.457 269.99 248.544C275.689 249.563 294.539 259.635 295.803 262.474C296.672 264.598 296.742 264.476 296.345 261.814C296.08 260.038 296.521 258.995 297.247 259.414C297.972 259.833 299.755 260.375 301.175 260.708C303.34 261.147 303.269 261.269 301.186 261.526C299.797 261.698 299.204 262.166 299.739 262.637C300.464 263.056 301.895 264.207 302.964 265.148C304.154 266.16 306.51 266.546 308.179 265.888C309.97 265.3 311.963 265.477 312.669 266.209C313.305 267.063 313.949 266.785 314.097 265.411C314.586 262.611 317.347 264.529 318.793 268.447C319.542 270.501 320.318 271.112 322.28 270.784C323.739 270.491 326.177 271.574 327.901 273.056C329.503 274.468 330.42 274.835 329.664 273.912C327.878 271.42 326.346 264.858 327.676 265.626C328.402 266.045 328.897 267.142 328.908 267.96C328.971 268.969 330.936 270.59 333.444 271.552C336.023 272.391 337.696 273.682 337.274 274.412C336.853 275.142 336.037 275.158 335.452 274.496C334.797 273.955 333.248 274.683 332.144 276.317C330.919 277.881 330.497 278.611 331.281 278.09C332.206 277.326 334.886 278.549 339.028 281.427C344.722 285.526 345.518 285.823 347.527 283.738C349.467 281.776 350.212 281.881 353.055 284.496C355.898 287.111 356.21 287.129 355.813 284.466C355.599 282.882 355.848 281.891 356.453 282.24C357.058 282.589 357.615 284.695 357.478 286.888C357.341 289.08 357.676 290.733 358.058 290.63C358.561 290.596 360.184 291.695 361.646 293.35C363.471 295.215 365.425 296.019 367.629 295.831C370.025 295.592 371.062 296.028 371.709 297.7C372.286 299.493 372.719 299.581 373.632 297.999C374.265 296.904 375.361 296.401 376.086 296.82C378.021 297.937 382.628 296.379 382.293 294.725C382.161 293.838 382.403 293.977 383.038 294.831C383.483 295.737 384.661 295.93 385.324 295.34C386.44 294.524 386.682 294.663 386.12 295.637C385.819 296.437 384.06 297.53 382.41 297.875C378.778 298.861 379.604 299.662 384.063 299.479C386.891 299.327 387.426 299.798 387.57 301.503C387.663 303.017 388.458 303.314 391.275 302.345C393.257 301.704 395.34 301.447 395.945 301.796C396.549 302.145 395.695 302.787 394.095 303.324C390.151 304.291 390.221 304.17 394.836 306.509C404.91 311.677 406.381 312.202 404.727 310.598C401.954 307.861 403.734 306.455 406.838 308.896C409.841 310.955 411.652 310.053 409.674 307.614C408.918 306.69 409.371 306.465 410.701 307.233C411.859 307.739 412.545 308.784 412.124 309.514C411.421 310.731 416.931 318.779 419.228 320.106C419.954 320.525 420.254 319.725 420.091 318.333C419.725 316.174 420.298 316.019 423.251 317.886C425.236 319.194 426.285 320.449 425.641 320.726C424.927 321.125 425.462 321.596 426.64 321.789C427.939 322.052 429.347 321.567 429.698 320.959C430.12 320.229 431.349 320.614 432.468 321.747C433.587 322.88 434.886 323.143 435.237 322.535C435.659 321.805 436.486 322.606 437.062 324.399C437.569 326.314 438.528 328.004 439.133 328.353C439.737 328.702 439.554 327.623 438.786 325.882C438.139 324.21 438.116 322.574 439.002 322.437C439.766 322.229 439.989 322.682 439.567 323.412C438.232 325.724 441.485 326.791 447.906 326.28C453.754 325.925 457.604 328.472 454.034 330.466C452.676 331.143 453.039 331.352 455.535 331.496C457.287 331.533 459.721 330.668 460.908 329.73C462.897 327.959 463.139 328.098 464.316 333.32C465.228 336.767 466.308 338.526 467.041 337.814C468.438 336.512 471.59 337.196 476.637 339.623C478.088 340.461 479.649 340.55 479.93 340.064C480.281 339.455 480.764 339.734 481.279 340.518C482.562 343.044 486.341 345.712 486.973 344.617C487.254 344.13 488.483 344.515 489.602 345.648C490.722 346.781 491.95 347.166 492.302 346.558C492.934 345.463 495.633 346.372 501.749 349.741C503.442 350.718 505.727 351.227 506.804 351.037C507.881 350.847 509.593 351.512 510.4 352.627C511.278 353.62 512.265 353.865 512.756 353.013C513.178 352.283 513.923 352.389 514.438 353.173C515.943 356.151 524.099 357.94 526.109 355.855C527.244 354.726 527.494 353.735 526.609 353.872ZM512.601 350.49C511.786 350.506 511.322 349.914 511.673 349.305C512.095 348.575 513.05 348.316 513.655 348.665C514.38 349.084 514.723 349.606 514.583 349.85C514.372 350.215 513.537 350.544 512.601 350.49ZM509.033 347.456C507.261 347.732 506.848 347.331 507.48 346.236C508.042 345.262 509.189 344.951 510.156 345.51C511.003 345.998 511.658 346.539 511.588 346.66C511.447 346.904 510.3 347.215 509.033 347.456ZM472 335.648C471.848 335.073 472.874 334.692 474.294 335.025C476.408 335.273 476.459 335.464 474.668 336.053C473.33 336.416 472.152 336.222 472 335.648ZM475.903 328.329C473.696 326.568 471.652 326.199 471.815 327.591C471.756 328.531 470.699 328.407 469.439 327.518C468.059 326.558 467.564 325.461 468.488 324.697C469.343 324.055 469.523 323.185 469.039 322.906C468.434 322.557 467.287 322.868 466.433 323.51C465.508 324.274 464.833 324.047 464.479 322.707C464.003 321.297 465.1 320.794 467.717 321.007C470.767 321.308 471.493 321.727 471.325 323.415C470.915 324.962 471.691 325.573 473.754 325.629C475.194 325.648 476.594 326.295 476.867 326.939C477.272 328.471 476.921 329.079 475.903 328.329ZM471.35 332.027C471.006 331.505 469.235 331.78 467.495 332.56C464.277 333.947 464.012 332.171 467.301 330.663C469.564 329.536 474.639 330.519 473.05 331.874C472.387 332.464 471.572 332.48 471.35 332.027ZM457.773 321.756C457.855 322.452 457.765 322.887 457.402 322.677C457.04 322.468 456.494 321.179 456.33 319.787C456.015 317.82 456.538 317.473 458.753 318.103C460.969 318.734 461.191 319.186 459.592 319.723C458.374 320.156 457.5 321.111 457.773 321.756ZM425.21 315.61C423.56 315.955 422.885 315.727 423.86 315.155C424.765 314.704 424.894 313.643 424.38 312.859C423.744 312.005 424.298 312.163 425.87 313.07C427.919 314.361 427.699 315.208 425.21 315.61ZM397.948 307.82C397.585 307.61 397.262 306.775 397.321 305.835C397.309 305.017 397.902 304.548 398.507 304.898C399.232 305.316 399.486 306.274 399.134 306.882C398.713 307.612 398.19 307.959 397.948 307.82ZM345.862 269.311C344.017 267.759 344.087 267.638 347.126 267.121C349.088 266.794 349.763 267.021 348.597 267.645C346.525 268.721 348.077 269.941 351.116 269.425C352.314 269.305 352.052 269.478 350.453 270.015C348.974 270.621 346.809 270.183 345.862 269.311ZM343.62 265.097C343.378 264.957 343.265 263.756 343.535 262.452C343.734 261.269 344.136 260.852 344.651 261.636C345.438 263.064 344.587 265.655 343.62 265.097ZM325.49 258.523C325.237 257.566 326.555 257.516 328.439 258.441C331.169 259.855 331.341 260.116 328.774 260.095C327.143 260.127 325.693 259.289 325.49 258.523ZM324.727 253.702C323.97 252.778 324.544 252.623 325.874 253.391C327.274 254.037 327.789 254.821 327.094 254.907C326.521 255.062 325.362 254.556 324.727 253.702ZM321.245 260.29C320.641 259.941 320.177 259.349 320.317 259.106C320.528 258.741 321.484 258.481 322.299 258.465C323.235 258.519 323.578 259.042 323.227 259.65C322.806 260.38 321.971 260.709 321.245 260.29ZM315.608 260.281C314.641 259.722 313.935 258.99 314.076 258.747C314.216 258.504 315.344 258.505 316.592 258.577C317.77 258.771 318.476 259.503 318.124 260.111C317.703 260.841 316.576 260.839 315.608 260.281ZM311.574 261.683C310.697 260.69 310.444 259.732 310.947 259.699C311.52 259.543 312.176 260.083 312.62 260.989C313.922 263.201 313.138 263.722 311.574 261.683ZM267.678 244.451C263.621 244.218 263.137 243.939 263.446 242.008C263.645 240.825 264.098 240.6 264.492 241.314C265.006 242.098 266.215 242.796 267.413 242.676C269.547 242.61 272.8 243.677 272.449 244.286C272.308 244.529 270.174 244.595 267.678 244.451ZM252.917 230.088C251.173 228.92 250.725 226.065 252.418 227.043C252.66 227.182 253.889 227.567 255.067 227.76C256.315 227.832 256.759 228.738 256.127 229.833C255.565 230.806 254.055 230.908 252.917 230.088ZM243.35 221.807C242.624 221.388 242.785 220.832 243.569 220.311C244.283 219.912 245.601 219.862 246.206 220.211C246.931 220.63 246.701 221.308 245.987 221.707C245.203 222.228 243.954 222.156 243.35 221.807ZM248.037 213.968C247.222 213.984 246.758 213.391 247.109 212.783C247.53 212.053 248.486 211.794 249.091 212.143C249.816 212.561 250.159 213.084 250.019 213.327C249.808 213.692 248.973 214.022 248.037 213.968ZM216.283 215.914C215.678 215.565 215.425 214.608 215.846 213.878C216.198 213.269 216.943 213.375 217.337 214.089C217.851 214.873 217.984 215.76 217.773 216.125C217.632 216.369 217.008 216.333 216.283 215.914ZM211.178 209.398C211.026 208.823 212.052 208.442 213.472 208.775C215.586 209.022 215.637 209.214 213.846 209.802C212.508 210.166 211.33 209.972 211.178 209.398ZM197.95 208.575C197.904 205.303 200.148 204.489 201.22 207.38C201.917 209.243 201.617 210.042 200.088 210.457C198.558 210.872 198.024 210.402 197.95 208.575ZM194.323 206.48C193.718 206.131 193.254 205.539 193.395 205.296C193.606 204.93 194.561 204.671 195.377 204.655C196.313 204.709 196.656 205.232 196.305 205.84C195.883 206.57 195.048 206.899 194.323 206.48ZM176.538 195.401C175.601 195.347 175.762 194.79 176.686 194.026C178.797 192.325 179.854 192.449 178.871 194.152C178.449 194.882 177.474 195.455 176.538 195.401Z" fill="#C2D0FF"/>
<path fill-rule="evenodd" clip-rule="evenodd" d="M450.249 404.905C446.986 401.893 447.521 398.172 451.174 398.831C452.352 399.027 453.464 398.219 453.659 397.042C453.854 395.865 453.598 394.912 453.147 395.135C452.574 395.288 451.141 394.138 449.865 392.434C448.52 390.852 447.552 390.293 447.566 391.107C447.701 391.991 446.728 392.557 445.793 392.501C444.667 392.495 444.96 392.826 446.431 393.353C449.805 394.495 448.349 398.973 444.938 398.454C443.76 398.258 443.174 397.597 443.523 396.992C443.941 396.267 444.946 396.203 445.863 396.571C446.589 396.99 446.385 396.227 445.281 394.784C444.057 393.272 443.615 391.243 444.243 390.155C445.22 388.463 443.167 386.149 439.844 385.198C439.169 384.969 437.647 384.252 436.679 383.693C433.067 381.285 415.451 371.275 412.942 370.311C411.541 369.663 409.446 369.098 408.25 369.214C407.124 369.208 406.659 368.617 407.077 367.892C407.496 367.166 407.222 366.524 406.528 366.608C405.714 366.621 401.129 364.78 396.252 362.609C391.444 360.316 386.65 358.838 385.677 359.405C384.393 359.953 383.909 359.673 384.122 358.185C384.299 357.32 383.54 356.398 382.535 356.462C381.6 356.406 377.862 355.054 374.525 353.288C364.928 348.392 353.53 343.262 346.92 340.736C343.616 339.473 338.133 336.952 334.624 334.926C331.114 332.899 328.485 331.865 328.499 332.679C328.461 333.302 327.405 333.176 326.074 332.407C322.685 330.451 326.027 326.9 329.936 328.512C331.649 329.179 334.334 329.278 335.931 328.749C337.724 328.065 338.047 328.252 336.899 329.308C334.395 331.409 335.685 333.926 338.342 332.398C340.617 330.972 345.22 332.501 346.631 335.088C347.129 336.182 347.874 336.29 348.362 335.443C348.851 334.597 350.322 335.124 352.947 337.284C355.744 339.705 356.973 340.092 357.671 338.883C358.369 337.675 359.961 338.271 363.694 340.749C367.478 343.417 369.209 343.772 370.652 342.671C372.094 341.569 372.769 341.798 373.37 343.273C374.552 346.534 379.137 348.375 380.342 346.009C380.779 344.972 380.993 343.483 380.546 342.581C380.169 341.557 380.741 341.404 381.951 342.103C383.041 342.731 383.585 345.141 383.125 347.616C382.544 350.02 382.483 352.081 382.846 352.29C383.21 352.5 383.698 351.654 383.893 350.477C383.968 349.23 384.819 348.594 385.666 349.083C386.392 349.502 387.035 349.228 386.951 348.535C386.988 347.912 387.928 346.843 389.091 346.225C390.967 345.212 391.209 345.352 391.339 347.362C391.386 348.678 392.522 350.623 393.956 351.773C395.924 353.394 396.306 353.291 395.882 350.951C395.663 349.374 395.928 348.077 396.57 347.803C397.264 347.72 398.037 349.455 398.461 351.795C399.052 355.522 399.466 355.922 402.189 355.399C403.958 355.13 406.382 355.402 407.471 356.031C408.682 356.729 411.297 356.95 413.326 356.51C416.621 355.833 419.288 356.244 423.007 357.908C423.682 358.136 424.1 357.411 424.035 356.406C424.007 354.778 424.128 354.848 424.952 356.775C426.204 359.915 434.271 366.345 434.159 364.024C434.145 363.21 433.437 362.479 432.623 362.493C431.738 362.627 432.022 361.018 433.209 358.963C434.325 357.028 436.117 355.323 437.243 355.328C438.369 355.334 438.421 355.525 437.448 356.091C436.475 356.658 436.49 357.472 437.579 358.101C438.547 358.66 438.593 359.976 437.774 361.115C435.755 363.495 439.241 366.959 444.626 367.972C447.293 368.384 448.768 367.785 449.033 366.487C449.298 365.19 449.508 364.827 449.713 365.59C449.918 366.353 451.356 366.377 452.71 365.709C454.827 364.836 455.316 363.99 454.753 361.891C454.273 360.486 454.645 358.444 455.273 357.356C456.441 355.613 456.562 355.683 455.929 357.896C455.543 359.124 455.953 360.65 456.921 361.209C458.615 362.187 462.524 359.609 461.942 357.822C461.668 357.18 460.853 357.193 460.123 357.9C459.341 358.415 458.284 358.289 457.837 357.386C456.152 354.157 454.249 353.541 452.197 355.419C451.015 356.348 449.297 356.808 448.45 356.318C447.361 355.69 447.417 354.755 448.599 353.825C449.92 352.654 449.576 352.133 447.016 350.977C445.061 350.171 443.018 349.797 442.255 350.001C441.492 350.206 439.797 349.227 438.382 347.766C436.311 345.764 435.808 345.796 435.767 347.545C435.897 349.555 435.655 349.415 434.729 347.107C433.546 343.845 430.568 343.415 430.191 346.582C429.996 347.759 429.144 348.396 428.418 347.977C427.692 347.557 427.506 346.483 428.064 345.516C429.46 343.098 427.146 340.956 424.094 341.773C422.376 342.232 421.096 341.654 420.184 340.16C419.444 338.927 417.387 337.739 415.464 337.435C413.542 337.131 411.415 336.065 410.726 335.022C409.847 334.031 407.924 333.727 406.068 334.428C404.101 335.226 403.778 335.04 405.099 333.869C406.872 332.475 406.649 332.023 404.555 331.459C399.933 330.241 391.942 326.756 378.937 320.215C372.072 316.735 365.119 313.687 363.699 313.351C362.158 312.945 357.281 310.774 352.785 308.5C336.685 300.334 334.488 299.388 332.166 299.497C330.467 299.645 330.295 299.384 331.719 298.595C333.073 297.926 332.971 297.544 331.463 297.641C328.829 297.732 326.218 296.385 308.997 287.088C302.029 283.226 296.183 280.496 295.904 280.979C295.625 281.463 288.932 278.243 281.187 273.772C273.442 269.3 263.188 263.864 258.553 261.832C253.917 259.801 241.518 253.609 231.022 248.033C212.037 237.878 204.255 234.029 201.677 233.185C201.002 232.957 199.913 232.328 199.256 231.788C198.721 231.318 193.587 228.193 187.83 225.03C178.13 219.752 171.195 216.393 158.275 210.545C147.793 205.783 125.364 194.606 121.077 191.97C118.606 190.382 116.269 189.678 115.99 190.161C115.222 191.491 107.403 188.266 107.375 186.638C107.482 185.894 105.718 185.037 103.796 184.733C101.753 184.359 96.5443 182.481 92.1507 180.589C87.636 178.627 83.7776 177.205 83.2564 177.549C82.926 177.842 79.8822 176.407 76.5636 174.329C73.245 172.252 69.042 170.309 67.2223 170.387C65.4724 170.344 61.856 169.062 59.1239 167.645C56.443 166.42 53.2922 165.729 52.1288 166.347C50.9654 166.965 50.3417 166.927 50.7605 166.202C51.1095 165.597 50.3648 165.49 49.2014 166.107C48.038 166.725 47.2933 166.618 47.7121 165.892C48.1308 165.167 47.7537 164.143 46.7856 163.584C45.6964 162.956 44.5145 163.885 43.3792 166.131C42.3835 168.135 41.0433 169.618 40.2986 169.51C39.6238 169.282 39.3588 170.579 39.8198 172.296C40.332 174.203 39.9458 175.431 38.9406 175.496C38.1261 175.509 37.6606 174.918 38.0794 174.192C38.4981 173.467 38.0327 172.876 37.2182 172.889C36.2129 172.954 35.8966 174.06 36.3576 175.777C36.6976 177.424 36.6374 179.485 36.079 180.452C35.5207 181.419 35.707 182.494 36.433 182.913C37.0381 183.262 37.122 183.955 36.289 184.28C35.577 184.675 35.3816 185.852 35.8285 186.755C36.3965 187.727 36.7083 187.746 36.764 186.811C36.6987 185.806 37.7411 185.119 39.0396 185.385C42.4511 185.904 42.8654 186.304 40.8318 187.87C39.6498 188.8 39.8547 189.563 41.6885 190.299C43.1592 190.826 44.9603 191.06 45.7933 190.735C46.6776 190.6 46.3844 190.27 45.0673 190.315C43.4384 190.342 43.336 189.961 44.4994 189.343C45.8536 188.674 46.4586 189.023 47.3339 191.141C47.9344 192.616 48.3487 193.016 48.2834 192.011C48.3391 191.076 50.0052 190.426 52.1182 190.679C55.6693 190.956 55.7205 191.147 53.2541 192.624C51.4299 193.828 51.0111 194.553 51.8582 195.042C52.4633 195.391 53.3475 195.257 53.6267 194.774C53.9757 194.169 55.1019 194.175 56.07 194.734C57.0382 195.293 57.6061 196.265 57.3269 196.749C56.9779 197.353 58.4116 198.503 60.4874 199.379C62.5632 200.256 64.7228 201.825 65.221 202.918C65.7889 203.891 67.0503 204.78 67.9346 204.646C71.3134 204.663 75.5302 207.42 75.2792 209.531C75.0839 210.708 75.7543 212.062 76.7224 212.621C77.6905 213.18 78.3328 212.906 78.3885 211.971C78.3744 211.157 78.9654 210.692 79.6915 211.112C80.4176 211.531 81.0598 211.257 81.0457 210.443C80.9618 209.75 82.1906 210.137 83.5544 211.408C85.109 212.628 87.6874 213.472 89.2651 213.254C90.9125 212.916 91.5874 213.144 90.8754 213.539C90.0936 214.055 89.3073 215.696 89.1447 217.375C88.6843 219.85 88.9264 219.989 89.9035 218.297C90.7922 217.037 91.6764 216.903 92.6074 218.085C93.4871 219.077 95.6001 219.329 97.2661 218.68C99.123 217.979 99.7467 218.016 98.774 218.583C97.9922 219.099 97.8155 219.964 98.4206 220.313C99.1467 220.732 99.2632 221.928 98.7048 222.895C98.1465 223.862 98.142 224.988 98.8681 225.407C99.4732 225.756 100.204 225.05 100.399 223.873C100.543 222.506 101.446 222.06 102.656 222.759C103.745 223.387 105.081 223.03 105.709 221.942C106.547 220.492 107.482 220.548 109.19 222.34C110.433 223.541 111.797 224.812 112.16 225.022C112.644 225.301 112.533 227.171 111.97 229.264C111.021 232.584 111.123 232.966 113.241 232.093C114.646 231.615 117.006 230.882 118.583 230.665C121.045 230.313 121.338 230.643 120.049 232.317C119.352 233.526 119.571 235.103 120.762 236.113C121.954 237.124 122.698 237.231 122.633 236.226C122.689 235.291 123.298 234.515 124.304 234.451C125.118 234.437 125.444 235.27 124.886 236.237L123.211 239.139C122.931 239.622 121.442 239.407 119.92 238.69C118.207 238.023 115.215 236.779 112.948 235.954C110.733 235.319 106.599 233.255 103.886 231.528C101.103 229.921 98.2822 228.937 97.3793 229.383C96.6673 229.778 94.1401 229.124 91.8408 227.797C89.5416 226.47 85.9251 225.187 83.5701 224.795C81.2664 224.593 77.7013 223.502 75.5743 222.435C73.5682 221.438 71.4924 220.562 71.0596 220.473C70.557 220.505 67.755 219.21 64.7111 217.775C61.6672 216.34 58.3953 215.579 57.4227 216.146C56.3989 216.522 54.9793 216.186 54.0996 215.194C53.2896 214.082 52.3727 213.714 52.0936 214.197C51.7446 214.802 49.9107 214.065 47.8022 212.687C45.8148 211.378 42.0775 210.026 39.5317 209.685C33.5744 208.824 25.4716 207.209 22.0972 206.066C20.6777 205.73 17.7317 205.802 15.6328 206.364C12.5799 207.18 11.919 207.765 12.4312 209.673C12.8922 211.39 13.5485 211.93 14.7119 211.312C15.6147 210.866 17.174 210.961 18.1421 211.52C19.1102 212.079 21.2045 212.643 22.5728 212.788C24.374 213.022 25.0629 214.065 24.8304 215.865C24.6166 217.353 23.7464 218.301 22.8807 218.124C22.136 218.016 19.8836 218.005 18.1151 218.274C14.9085 218.518 14.8387 218.639 16.1423 221.97C16.8453 223.827 16.8593 224.641 16.4124 223.738C15.6024 222.625 15.1511 222.848 14.9372 224.337C14.6721 225.634 15.361 226.677 16.3662 226.612C17.4925 226.618 17.3344 227.171 15.8918 228.273C14.3096 229.616 14.291 229.927 16.3201 229.487C18.2794 229.168 18.9358 229.708 19.3084 231.857C19.5972 233.313 21.3054 235.105 23.6232 236.121C26.979 237.575 27.1512 237.836 24.6707 238.499C22.502 239.181 21.5339 238.622 20.156 236.537C18.2102 233.48 15.2733 231.3 15.7669 233.52C15.9718 234.283 16.6094 235.134 16.9027 235.465C17.3867 235.744 18.4388 236.996 19.421 238.369C20.4032 239.742 22.2882 240.669 24.1079 240.592C26.621 240.431 26.7932 240.691 25.211 242.035C23.6986 243.257 23.9222 243.708 25.8444 244.012C27.3337 244.227 29.2372 244.843 30.3263 245.471C31.4154 246.1 32.3183 245.654 32.4624 244.287C32.8158 242.557 33.1277 242.576 34.3846 244.591C35.5902 246.415 36.6281 246.853 38.485 246.152C42.1987 244.75 43.2507 246.003 40.831 248.796C39.7514 250.107 39.4024 250.712 40.375 250.145C41.2266 249.508 42.4554 249.895 43.2141 250.817C43.9728 251.738 44.9781 251.674 45.4667 250.828C46.025 249.861 46.4904 250.452 46.621 252.461C46.9936 254.611 47.5802 255.272 48.6739 254.775C49.6465 254.208 49.6323 253.394 48.7852 252.905C47.575 252.206 47.9055 251.914 49.7252 251.836C51.1633 251.86 52.3734 252.559 52.8716 253.652C53.1789 254.797 54.0772 255.477 54.7194 255.203C55.4128 255.12 55.6364 255.571 55.2176 256.296C54.7291 257.143 54.9852 258.096 55.5902 258.446C56.3163 258.865 57.098 258.349 57.3958 257.554C58.0098 255.652 58.373 255.862 63.4325 260.233C65.2106 261.905 66.0576 262.394 65.5409 261.612C64.9032 260.76 64.6657 259.495 65.0147 258.89C65.7126 257.681 68.9614 259.879 70.5441 262.727C71.3867 264.342 72.8108 263.553 73.8622 260.614C74.4577 259.023 77.8276 261.291 77.8371 263.231C77.7814 264.166 78.9544 265.488 80.4065 266.326C82.5848 267.584 82.5663 267.896 79.9974 268.991C77.6892 269.915 77.6194 270.036 79.6485 269.596C80.9143 269.359 82.8179 269.975 83.6977 270.966C85.1127 272.428 85.1824 272.307 84.2374 270.311C83.6881 269.027 83.5529 268.143 84.2277 268.371C87.4811 269.444 88.4306 270.314 89.115 272.482C89.9346 275.534 93.779 276.142 95.3842 273.362C96.3613 271.669 97.348 271.917 100.769 274.375C103.05 276.014 105.414 278.347 105.722 279.491C106.322 280.966 107.118 281.265 108.612 280.354C109.915 279.494 111.455 279.9 113.061 281.311C114.234 282.633 114.663 283.847 114.072 284.312C113.429 284.586 114.258 285.387 115.919 285.863C117.702 286.408 119.848 287.163 120.695 287.652C121.491 287.951 122.705 287.524 123.333 286.436C124.101 285.106 124.464 285.316 124.921 288.158C125.345 290.498 125.638 290.829 125.973 289.41C126.377 287.871 127.331 287.616 129.286 288.422C130.617 289.191 133.317 290.104 135.099 290.65C137.194 291.214 137.832 292.066 137.064 293.396C135.808 295.572 137.069 296.461 141.988 296.884C144.725 297.174 146.298 298.083 147.727 300.358C149.571 303.034 149.691 303.104 148.784 300.485C147.755 297.795 147.894 297.554 151.376 297.952C153.489 298.204 154.959 298.731 154.61 299.336C154.261 299.94 153.047 300.367 152.111 300.311C151.124 300.063 151.59 300.654 153.354 301.512C155.118 302.369 157.161 302.743 158.064 302.297C159.088 301.921 159.381 302.251 158.823 303.218C158.404 303.944 158.832 305.158 159.8 305.717C160.769 306.276 162.034 306.04 162.593 305.073C163.151 304.106 164.557 303.628 165.804 303.703C166.981 303.899 167.689 304.63 167.34 305.234C166.921 305.96 166.037 306.094 165.311 305.675C164.706 305.325 164.115 305.79 164.129 306.604C164.171 309.046 166.317 309.802 167.433 307.867C167.992 306.9 169.397 306.422 170.644 306.498C171.822 306.694 172.339 307.476 171.678 308.061C171.138 308.717 172.413 310.42 174.401 311.729C177.114 313.457 178.171 313.583 177.882 312.127C177.645 310.862 178.287 310.588 180.051 311.445C181.331 312.023 182.211 313.014 181.931 313.498C181.652 313.981 182.099 314.884 183.067 315.443C184.035 316.002 184.938 315.556 185.115 314.691C185.329 313.203 193.111 317.051 196.476 320.445C197.133 320.985 198.636 322.014 200.037 322.661C202.164 323.728 202.425 323.556 201.41 321.681C200.395 319.806 200.655 319.634 202.471 320.682C203.56 321.311 204.179 322.474 203.83 323.078C203.411 323.804 203.616 324.567 204.221 324.916C204.947 325.335 205.748 324.508 206.204 323.159C206.887 321.136 207.702 321.123 209.722 322.934C211.156 324.084 211.998 325.699 211.649 326.303C211.23 327.029 212.147 327.397 213.604 327.11C215.442 326.72 216.047 327.07 215.489 328.037C215.07 328.762 216.173 330.205 217.868 331.183C220.046 332.441 221.675 332.414 223.015 330.931C224.616 329.277 225.672 329.403 227.259 331.125C228.311 332.377 229.224 333.871 229.117 334.615C229.08 335.239 229.978 335.918 231.156 336.115C233.078 336.419 233.217 336.177 232.444 334.441C231.723 332.896 232.035 332.915 233.78 334.084C235.042 334.974 238.174 335.976 240.599 336.248C245.951 336.759 247.543 337.356 248.576 338.919C248.851 339.561 248.26 340.026 247.064 340.141C245.244 340.219 245.104 340.461 246.314 341.16C247.161 341.649 248.618 341.361 249.54 340.604C251.052 339.382 251.536 339.661 253.654 342.979C255.772 346.298 256.326 346.456 259.258 345.57C262.832 344.41 266.309 345.934 267.561 349.074C268.11 350.359 268.595 350.638 269.083 349.792C269.502 349.067 271.405 349.682 273.565 351.251C275.483 352.681 276.642 353.189 276.125 352.407C273.728 349.572 275.929 349.393 280.718 351.997C284.246 353.711 285.177 354.893 284.014 355.511C283.111 355.957 283.786 356.185 285.433 355.847C287.202 355.579 288.622 355.915 288.826 356.678C288.98 357.25 290.711 357.605 292.619 357.095C294.458 356.705 295.635 356.902 295.356 357.385C295.077 357.869 296.254 358.065 298.093 357.676C301.006 357.101 301.681 357.33 303.678 360.578C305.005 362.472 306.247 363.673 306.527 363.19C306.876 362.585 308.295 362.921 309.798 363.95C311.181 364.91 312.963 365.455 313.606 365.181C314.248 364.908 316.17 365.211 317.934 366.069C319.698 366.926 322.435 367.216 323.84 366.738C326.2 366.005 326.269 365.884 324.035 365.562C322.737 365.296 321.597 364.476 321.513 363.783C321.62 363.039 323.006 362.872 324.84 363.609C326.623 364.154 327.642 364.904 327.121 365.248C326.479 365.522 326.456 366.959 326.935 368.364C327.689 370.412 328.052 370.621 328.82 369.291C329.448 368.203 329.881 368.292 330.291 369.818C330.701 371.344 331.981 371.922 334.978 372.041C337.351 372.121 340.069 372.724 341.038 373.283C342.006 373.842 344.914 374.393 347.288 374.474C349.662 374.555 351.011 375.012 350.23 375.527C349.327 375.973 350.467 376.793 352.976 377.757C355.675 378.671 356.625 379.542 355.652 380.109C354.94 380.503 354.833 381.248 355.438 381.597C357.133 382.575 358.04 381.003 357.271 378.142C356.913 376.807 357.09 375.942 357.574 376.221C360.948 377.364 361.777 378.164 362.131 380.625C362.471 382.272 363.178 383.003 364.202 382.627C365.156 382.372 366.715 382.466 367.683 383.025C368.651 383.584 369.796 383.278 370.112 382.171C370.638 380.702 371.122 380.981 372.514 383.88C373.58 385.946 374.995 387.408 375.759 387.204C376.522 387 377.457 387.056 377.941 387.336C378.425 387.615 380.315 387.417 382.153 387.027C385.848 385.937 388.115 386.762 387.068 388.576C386.231 390.026 389.777 391.429 394.524 391.591C397.089 391.621 398.057 392.18 398.103 393.496C398.15 394.813 398.513 395.022 399.677 394.405C400.579 393.959 402.813 394.281 404.698 395.208C406.462 396.066 409.753 396.515 411.833 396.265C415.3 395.849 415.905 396.199 417.418 399.168C418.931 402.136 419.364 402.225 421.347 400.468C422.547 399.227 424.143 398.698 424.748 399.048C425.475 399.467 425.247 400.141 424.344 400.587C421.947 401.944 429.063 403.312 432.014 402.114C433.489 401.515 434.62 400.395 434.536 399.702C434.522 398.888 435.043 398.544 435.769 398.963C436.374 399.313 436.993 400.476 437.008 401.29C436.952 402.225 436.431 402.569 435.584 402.08C434.736 401.591 434.234 401.623 434.266 402.125C434.881 404.414 440.824 404.461 442.341 402.113C443.509 400.369 443.891 400.267 443.346 402.049C442.96 403.276 443.23 405.044 443.989 405.966C444.869 406.957 445.441 406.804 445.655 405.316C445.85 404.139 446.753 403.693 447.964 404.392C449.053 405.021 449.569 405.803 449.099 406.337C448.248 406.974 448.867 408.137 450.924 409.325C453.707 410.932 453.218 407.587 450.249 404.905ZM439.87 400.525C439.474 399.813 439.497 398.375 439.916 397.65C440.404 396.804 440.819 397.204 440.917 398.711C441.043 401.847 440.763 402.33 439.87 400.525ZM433.809 395.092C433.172 394.24 432.864 393.095 433.213 392.491C433.562 391.887 434.567 391.822 435.414 392.311C436.383 392.87 436.69 394.015 436.132 394.982C435.573 395.949 434.568 396.013 433.809 395.092ZM428.993 399.242C427.797 399.357 427.764 398.855 428.946 397.925C429.937 397.047 430.482 395.266 430.244 394C429.802 391.972 429.923 392.042 430.97 394.42C432.274 397.751 431.748 399.221 428.993 399.242ZM448.111 363.054C447.246 362.876 446.003 361.675 445.765 360.41C445.253 358.502 445.653 358.088 447.454 358.322C448.753 358.589 450.294 358.995 450.899 359.344C452.593 360.322 450.345 363.376 448.111 363.054ZM428.303 389.817C427.698 389.468 427.232 388.877 427.372 388.635C427.581 388.272 428.535 388.017 429.35 388.004C430.285 388.06 430.63 388.582 430.281 389.186C429.862 389.911 429.029 390.236 428.303 389.817ZM434.86 353.308C432.296 353.278 432.123 353.017 433.515 351.725C434.627 350.917 435.511 350.782 435.735 351.234C435.888 351.806 437.187 352.072 438.643 351.785C440.845 351.605 440.966 351.675 439.612 352.344C438.639 352.91 436.419 353.402 434.86 353.308ZM430.188 360.281C429.946 360.142 430.09 358.774 430.495 357.235C430.9 355.695 431.63 354.989 431.956 355.822C432.696 357.055 431.156 360.84 430.188 360.281ZM427.269 353.599C427.335 354.604 427.107 355.278 426.744 355.069C426.381 354.859 426.092 353.403 426.185 351.845C426.194 349.594 426.836 349.32 428.963 350.386C431.039 351.263 431.141 351.644 429.512 351.671C428.316 351.786 427.325 352.664 427.269 353.599ZM404.894 394.032C404.289 393.683 403.823 393.091 403.963 392.85C404.172 392.487 405.126 392.232 405.941 392.219C406.876 392.275 407.221 392.796 406.872 393.401C406.453 394.126 405.62 394.451 404.894 394.032ZM421.968 349.088C421.47 347.994 420.45 347.245 419.687 347.449C418.803 347.583 419.012 347.22 419.915 346.774C422.381 345.297 425.025 347.146 423.769 349.322C423.071 350.531 422.447 350.493 421.968 349.088ZM412.186 355.69C408.84 356.176 408.649 356.227 410.957 355.303C412.693 354.532 413.303 353.756 412.576 353.337C411.85 352.917 410.082 353.186 408.658 353.976C406.401 355.09 406.28 355.02 408.16 352.882C410.51 350.209 408.927 347.361 405.562 348.159C403.724 348.548 403.24 348.269 403.505 346.971C403.751 345.985 402.681 345.045 401.382 344.778C400.084 344.512 399.479 344.163 400.121 343.889C400.884 343.685 403.048 344.129 405.194 344.884C407.219 345.569 409.434 346.203 410.248 346.19C410.942 346.107 411.217 346.749 410.798 347.474C410.24 348.441 410.966 348.861 413.218 348.872C415.089 348.985 416.127 349.423 415.708 350.148C415.359 350.753 414.145 351.18 413.279 351.002C412.222 350.876 412.497 351.518 414.07 352.426C417.268 354.433 417.128 354.675 412.186 355.69ZM403.962 354.004C403.148 354.018 402.44 353.287 402.426 352.473C402.412 351.659 403.315 351.213 404.562 351.288C406.917 351.681 406.475 353.844 403.962 354.004ZM407.413 340.201C406.357 340.075 406.603 339.089 407.804 337.848C409.004 336.607 410.149 336.301 410.666 337.083C411.509 338.697 409.577 340.645 407.413 340.201ZM383.362 375.153C382.757 374.804 382.761 373.678 383.319 372.711C384.366 370.898 386.167 371.132 386.731 373.23C387.141 374.756 384.935 376.061 383.362 375.153ZM378.765 385.071C378.285 383.666 378.429 382.299 379.141 381.904C380.756 381.063 381.785 383.753 380.599 385.808C379.761 387.258 379.519 387.118 378.765 385.071ZM402.285 340.142C401.47 340.155 400.763 339.424 400.697 338.419C400.683 337.605 401.516 337.28 402.484 337.839C404.663 339.097 404.607 340.032 402.285 340.142ZM389.854 341.83C389.858 340.704 388.909 339.833 387.973 339.777C386.968 339.841 386.642 339.008 387.27 337.92C387.968 336.711 387.642 335.879 386.446 335.994C384.887 335.9 384.957 335.779 386.744 335.199C388.531 334.619 389.257 335.038 390.03 336.774C390.51 338.179 391.459 339.049 392.101 338.775C392.795 338.692 392.879 339.385 392.251 340.473C391.553 341.682 391.79 342.948 392.567 343.557C393.536 344.116 393.396 344.358 391.907 344.143C390.85 344.017 389.849 342.955 389.854 341.83ZM386.066 344.478C385.703 344.268 385.377 343.436 385.433 342.501C385.419 341.687 386.01 341.222 386.615 341.571C387.341 341.991 387.597 342.944 387.248 343.549C386.829 344.274 386.308 344.618 386.066 344.478ZM366.309 375.623C365.132 375.427 364.424 374.696 364.703 374.213C365.052 373.608 366.318 373.372 367.566 373.448C368.743 373.644 369.451 374.375 369.171 374.858C368.822 375.463 367.557 375.699 366.309 375.623ZM365.563 362.943C362.677 360.954 362.914 358.029 366.051 357.905C367.056 357.841 367.21 358.413 366.53 359.311C365.73 360.138 366.177 361.041 367.648 361.567C368.876 361.955 369.565 362.997 369.216 363.601C368.798 364.327 367.187 364.042 365.563 362.943ZM376.967 344.866C376.153 344.88 375.376 344.27 375.362 343.456C375.347 342.642 376.111 342.438 377.079 342.997C379.136 344.184 379.169 344.687 376.967 344.866ZM361.147 366.679C359.816 365.911 359.248 364.938 359.89 364.664C360.411 364.32 360.104 363.176 359.154 362.305C357.739 360.843 357.93 360.792 360.178 361.929C361.63 362.768 362.491 364.071 362.003 364.917C361.444 365.884 361.998 366.043 363.422 365.253C365.298 364.24 365.54 364.38 364.493 366.193C363.795 367.402 362.529 367.638 361.147 366.679ZM368.514 335.473C367.546 334.914 366.997 333.63 367.192 332.453C367.476 330.844 367.839 331.053 369.096 333.069C371.093 336.317 370.935 336.87 368.514 335.473ZM360.766 336.318C360.16 335.969 359.695 335.378 359.835 335.136C360.044 334.773 360.998 334.518 361.812 334.505C362.748 334.561 363.092 335.083 362.743 335.687C362.325 336.412 361.492 336.737 360.766 336.318ZM348.25 333.122C347.436 333.135 346.728 332.405 346.663 331.4C346.598 330.395 345.89 329.664 345.076 329.677C344.192 329.812 344.489 329.016 345.602 328.208C346.784 327.279 347.477 327.195 347.3 328.06C347.175 329.116 348.003 329.917 349.181 330.113C351.415 330.436 350.764 332.961 348.25 333.122ZM323.118 361.003C322.964 360.43 323.988 360.054 325.408 360.39C327.52 360.643 327.572 360.834 325.785 361.414C324.449 361.771 323.272 361.575 323.118 361.003ZM329.777 324.874C327.841 323.757 331.397 322.908 334.408 323.841C337.489 324.652 337.419 324.773 334.334 325.087C332.444 325.286 330.382 325.224 329.777 324.874ZM321.773 328.957C321.149 328.919 320.009 328.1 319.511 327.006C318.599 325.512 319.12 325.169 321.805 325.268C324.56 325.247 324.975 325.648 324.137 327.098C323.579 328.065 322.466 328.874 321.773 328.957ZM325.238 315.968C324.847 314.13 325.038 314.079 326.314 315.783C327.314 316.844 327.501 317.919 326.928 318.072C326.356 318.225 325.597 317.303 325.238 315.968ZM310.161 325.315C305.013 321.376 304.892 321.306 308.275 320.197C311.277 319.19 311.556 318.706 310.592 317.022C309.578 315.146 309.838 314.974 311.653 316.022C312.985 316.791 313.152 318.177 312.315 319.628C311.477 321.078 311.645 322.465 312.562 322.833C315.918 324.287 317.091 325.609 315.406 326.57C314.243 327.188 314.657 327.588 316.579 327.892C318.38 328.126 318.794 328.527 317.459 328.884C316.505 329.139 313.098 327.494 310.161 325.315ZM314.735 321.025C314.13 320.676 313.874 319.722 314.293 318.997C314.642 318.392 315.386 318.5 315.782 319.212C316.299 319.994 316.434 320.878 316.224 321.24C316.085 321.482 315.461 321.444 314.735 321.025ZM312.197 305.859C311.801 305.147 311.754 303.831 312.103 303.226C312.522 302.501 313.197 302.729 313.592 303.441C314.109 304.223 314.035 305.47 313.686 306.074C313.267 306.8 312.713 306.641 312.197 305.859ZM294.997 317.205C291.092 314.467 291.413 312.234 295.676 312.117C298.38 311.905 298.552 312.165 297.23 313.336C296.188 314.024 296.062 315.08 296.788 315.499C297.515 315.918 298.399 315.784 298.818 315.059C299.795 313.366 301.903 314.745 302.723 317.797C303.477 319.844 303.146 320.137 300.912 319.814C299.302 319.529 296.742 318.374 294.997 317.205ZM293.813 301.37C292.57 300.169 292.072 299.075 292.644 298.922C293.719 298.737 296.652 302.042 296.163 302.888C296.023 303.13 294.934 302.501 293.813 301.37ZM279.409 306.755C277.543 305.516 276.197 303.933 276.477 303.45C277.105 302.362 278.022 302.73 281.215 305.863C284.338 309.117 283.435 309.563 279.409 306.755ZM277.678 310.591C276.729 309.72 276.058 308.366 276.305 307.38C276.43 306.324 277.296 306.502 278.66 307.773C281.267 310.245 280.234 312.872 277.678 310.591ZM270.855 305.362C271.031 304.497 270.254 303.887 269.319 303.83C267.881 303.806 267.95 303.685 269.737 303.105C271.073 302.748 272.735 303.223 273.787 304.476C275.183 306.249 275.044 306.491 273.033 306.619C271.525 306.716 270.678 306.227 270.855 305.362ZM256.631 300.373C256.026 300.024 256.757 299.318 258.162 298.84C259.568 298.362 261.057 298.577 261.453 299.289C262.174 300.834 258.689 301.561 256.631 300.373ZM252.065 298.221C250.944 297.09 250.064 296.098 250.134 295.977C250.204 295.856 251.851 295.518 253.88 295.078C257.296 294.471 257.417 294.541 255.812 297.321C254.486 299.618 253.723 299.822 252.065 298.221ZM244.921 295.224C244.679 295.085 244.372 293.94 244.134 292.675C243.864 290.907 244.264 290.493 245.353 291.122C246.321 291.681 246.629 292.825 246.07 293.793C245.582 294.639 245.042 295.294 244.921 295.224ZM237.232 289.818C236.957 289.176 236.264 289.259 235.915 289.863C235.496 290.589 234.3 290.704 233.332 290.145C232.364 289.586 231.796 288.614 232.215 287.888C232.564 287.284 233.518 287.029 234.244 287.448C234.849 287.797 235.37 287.453 235.426 286.519C235.412 285.705 236.366 285.449 237.697 286.218C238.907 286.917 239.507 288.392 238.949 289.359C238.391 290.326 237.628 290.53 237.232 289.818ZM222.022 284.582C220.984 284.144 220.588 283.432 221.23 283.158C221.942 282.764 221.5 280.735 220.243 278.72C217.161 273.717 218.614 274.556 222.906 280.257C226.215 284.586 225.931 286.195 222.022 284.582ZM214.57 280.441C214.417 279.869 214.924 278.711 215.775 278.075C216.697 277.317 216.85 277.889 216.083 279.219C215.436 280.619 214.654 281.134 214.57 280.441ZM201.775 273.538C201.17 273.188 201.417 272.202 202.338 271.445C203.381 270.757 204.353 270.191 204.595 270.33C204.837 270.47 204.591 271.456 204.032 272.423C203.474 273.39 202.501 273.957 201.775 273.538ZM193.816 270.555C193.211 270.205 192.955 269.251 193.374 268.526C193.723 267.922 194.468 268.029 194.863 268.741C195.38 269.523 195.515 270.407 195.306 270.77C195.166 271.011 194.543 270.974 193.816 270.555ZM183.959 265.83C183.505 263.634 183.887 263.532 185.103 265.524C186.258 267.158 186.668 268.684 186.025 268.958C185.332 269.041 184.471 267.738 183.959 265.83ZM171.038 259.982C169.223 258.934 169.19 258.432 170.856 257.782C172.071 257.355 173.458 257.189 174.063 257.538C174.668 257.887 174.733 258.892 174.245 259.738C173.756 260.585 172.248 260.681 171.038 259.982ZM166.384 258.262C166.538 258.835 163.908 257.8 160.761 255.983C146.775 248.069 142.814 246.266 143.88 248.332C144.672 249.756 143.978 249.84 141.246 248.423C135.782 245.591 132.547 244.207 128.479 243.148C125.71 242.355 125.072 241.503 125.584 239.22C126.379 235.327 129.018 234.11 130.098 236.99C130.699 238.465 131.616 238.834 133.473 238.133C135.781 237.209 135.646 236.325 133.137 235.36C132.532 235.011 132.378 234.438 132.797 233.713C133.844 231.9 135.571 233.38 136.079 236.414C136.367 237.87 137.21 239.485 138.178 240.043C139.025 240.533 139.989 242.217 140.398 243.743C141.013 246.032 141.497 246.312 142.749 245.261C145.183 243.282 150.321 245.281 148.995 247.578C148.088 249.15 148.26 249.41 149.805 248.69C150.847 248.003 152.043 247.888 152.528 248.167C155.637 250.607 158.164 251.26 158.066 249.753C158.071 248.627 158.676 248.976 159.932 250.992C160.896 252.676 162.4 253.705 163.163 253.501C163.875 253.107 165.727 253.531 167.249 254.249C169.185 255.367 169.46 256.009 168.055 256.487C166.961 256.984 166.23 257.69 166.384 258.262ZM143.812 295.68C142.998 295.694 142.533 295.103 142.882 294.498C143.3 293.773 144.254 293.518 144.859 293.867C145.585 294.286 145.93 294.808 145.79 295.049C145.581 295.412 144.748 295.737 143.812 295.68ZM119.978 284.982C118.8 284.786 118.386 284.385 119.168 283.87C119.95 283.354 121.076 283.359 121.802 283.779C123.496 284.757 122.645 285.393 119.978 284.982ZM106.368 278.092C105.768 276.617 105.842 275.37 106.224 275.268C107.559 274.911 108.882 277.931 108.044 279.381C107.625 280.107 106.899 279.688 106.368 278.092ZM105.112 215.15C104.298 215.164 104.093 214.401 104.651 213.434C105.21 212.467 106.182 211.9 106.787 212.249C107.271 212.529 107.476 213.292 107.127 213.896C106.709 214.621 105.806 215.067 105.112 215.15ZM93.0475 203.349C91.87 203.153 91.1625 202.422 91.5114 201.818C91.9302 201.092 93.0565 201.098 94.0246 201.657C94.9927 202.216 95.7002 202.947 95.5606 203.189C95.421 203.43 94.2948 203.425 93.0475 203.349ZM85.275 201.441C84.6699 201.091 84.2044 200.5 84.344 200.259C84.5534 199.896 85.5074 199.641 86.3219 199.628C87.2574 199.684 87.6018 200.205 87.2529 200.81C86.8341 201.535 86.0011 201.86 85.275 201.441ZM72.4954 203.733C71.8903 203.384 71.6854 202.621 71.9646 202.137C72.3135 201.533 73.4398 201.539 74.4079 202.098C75.376 202.656 75.581 203.419 74.869 203.814C74.2267 204.088 73.2215 204.153 72.4954 203.733ZM63.9162 191.205C63.6928 190.753 65.0469 190.085 66.7642 189.625C68.8631 189.064 69.7289 189.242 69.1705 190.209C68.6819 191.055 68.938 192.009 69.6641 192.428C70.2692 192.777 70.93 192.192 70.8647 191.187C70.818 189.87 71.3533 190.341 72.0563 192.197C73.1364 195.077 72.9456 195.128 68.7242 193.497C66.2156 192.532 64.0884 191.465 63.9162 191.205ZM46.1398 238.483C45.5347 238.134 45.0692 237.543 45.2088 237.301C45.4182 236.938 46.3722 236.683 47.1867 236.67C48.1222 236.726 48.4666 237.248 48.1176 237.852C47.6989 238.577 46.8659 238.902 46.1398 238.483ZM60.9432 198.031C59.7843 197.523 59.1979 196.862 59.9099 196.467C60.6219 196.072 60.4867 195.188 59.97 194.406C59.2625 193.676 60.2492 193.923 62.0644 194.971C65.6436 196.876 64.7318 199.573 60.9432 198.031ZM56.4134 186.873C56.0036 185.347 56.562 184.38 58.5072 183.246C59.9312 182.457 60.7456 182.443 60.3269 183.169C59.8383 184.015 60.49 185.681 61.8538 186.952L64.0277 189.335L60.4766 189.058C57.982 188.907 56.7719 188.208 56.4134 186.873ZM36.6151 219.767C34.5578 218.579 34.1621 217.867 35.6002 217.892C36.6752 217.707 38.1972 218.424 38.9559 219.346C40.6968 221.64 40.1245 221.793 36.6151 219.767ZM47.9282 181.168C43.7023 180.662 42.6176 178.908 46.0522 177.99C48.4629 177.447 52.8566 179.339 52.0889 180.669C51.8097 181.153 49.9202 181.351 47.9282 181.168ZM38.7323 184.24C38.1273 183.891 37.8014 183.058 38.2201 182.333C38.5691 181.728 39.5231 181.473 40.1282 181.823C40.8543 182.242 40.9894 183.126 40.6404 183.73C40.2217 184.455 39.4584 184.659 38.7323 184.24ZM41.0074 178.623C40.8538 178.051 41.3608 176.893 42.2124 176.256C43.1337 175.499 43.2875 176.071 42.5198 177.401C41.8731 178.8 41.0913 179.316 41.0074 178.623Z" fill="#C2D0FF"/>
</svg>
