<svg width="24" height="24" viewBox="0 0 24 24" fill="none" xmlns="http://www.w3.org/2000/svg">
<path d="M8.46973 4.46967C8.76262 4.17678 9.23738 4.17678 9.53027 4.46967C9.82311 4.76257 9.82315 5.23734 9.53027 5.53022L7.81055 7.24994H12C15.7282 7.24994 18.75 10.2717 18.75 13.9999V18.9999C18.75 19.4141 18.4142 19.7499 18 19.7499C17.5858 19.7499 17.25 19.4141 17.25 18.9999V13.9999C17.25 11.1002 14.8998 8.74994 12 8.74994H7.81055L9.53027 10.4697C9.82311 10.7626 9.82315 11.2373 9.53027 11.5302C9.2374 11.823 8.76261 11.823 8.46973 11.5302L5.46973 8.53022C5.43773 8.49822 5.40977 8.46355 5.38477 8.42768C5.35404 8.38357 5.32743 8.33639 5.30664 8.28608C5.2859 8.2358 5.27106 8.18369 5.26172 8.1308C5.25423 8.08829 5.25 8.0446 5.25 7.99994C5.25 7.95464 5.25402 7.91022 5.26172 7.86713C5.27081 7.8163 5.28506 7.76616 5.30469 7.71772L5.30859 7.70795C5.32018 7.68056 5.33596 7.65544 5.35059 7.62983C5.38302 7.57298 5.42122 7.51819 5.46973 7.46967L8.46973 4.46967Z" fill="black"/>
</svg>
