<svg width="24" height="24" viewBox="0 0 24 24" fill="none" xmlns="http://www.w3.org/2000/svg">
<path d="M18.2529 6.99765C18.2528 5.75454 17.2451 4.74684 16.002 4.74667H7.99805C6.75493 4.74682 5.74722 5.75454 5.74707 6.99765V19.0172L11.2725 15.0699C11.7072 14.7591 12.2917 14.7594 12.7266 15.0699L18.2529 19.0182V6.99765ZM19.7529 19.5025L19.7412 19.6764C19.6856 20.0754 19.4388 20.4272 19.0742 20.6148C18.7094 20.8024 18.2799 20.798 17.9229 20.6109L17.7754 20.5201L11.999 16.3932L6.22461 20.5191C5.84395 20.7915 5.34322 20.8285 4.92676 20.6148C4.51031 20.4011 4.2478 19.9726 4.24707 19.5045V6.99765C4.24722 4.92611 5.92651 3.24682 7.99805 3.24667H16.002C18.0735 3.24684 19.7528 4.92612 19.7529 6.99765V19.5025Z" fill="black"/>
</svg>
