<svg width="24" height="24" viewBox="0 0 24 24" fill="none" xmlns="http://www.w3.org/2000/svg">
<path fill-rule="evenodd" clip-rule="evenodd" d="M17.75 3.012C17.75 1.77115 16.437 0.833032 15.2467 1.43063C13.4669 2.32267 11.9242 4.06168 11.3809 5.97405C9.04701 4.83243 6.82819 4.35617 4.04118 4.26632C3.04494 4.23418 2.25 5.04817 2.25 6.01593V17.8529C2.25 18.795 3.00225 19.5876 3.96284 19.6018C6.93728 19.6461 9.13232 20.1867 11.6068 21.6388C11.6613 21.6724 11.7206 21.6993 11.7835 21.7182C11.8547 21.7397 11.9276 21.7501 12 21.7501L12.0087 21.75C12.1303 21.7487 12.2465 21.7179 12.3494 21.6637C12.3641 21.656 12.3786 21.6477 12.3928 21.639C14.8674 20.1868 17.0626 19.6461 20.0374 19.6008L20.0437 19.6007C21.0002 19.583 21.75 18.7938 21.75 17.8529V6.01591C21.75 5.89063 21.7369 5.76883 21.7121 5.65167C21.5383 4.8315 20.7893 4.23863 19.9306 4.26736C19.1666 4.29325 18.4451 4.34999 17.75 4.4414V3.012ZM3.99282 5.76554C6.80497 5.8562 8.92662 6.35695 11.25 7.59099V19.7389C8.94756 18.5912 6.74244 18.143 3.98509 18.102C3.86368 18.1002 3.75 17.9949 3.75 17.8529V6.01593C3.75 5.86569 3.87306 5.76168 3.99282 5.76554ZM20.0095 18.1011C17.534 18.1392 15.5035 18.5052 13.4476 19.4112C14.1743 18.2694 15.3321 17.3025 16.5697 16.887C17.2836 16.6473 17.75 15.9774 17.75 15.238V5.95543C18.4504 5.8554 19.1863 5.79346 19.9811 5.76651C20.1356 5.76134 20.25 5.88228 20.25 6.01593V17.8529C20.25 17.9939 20.1373 18.0992 20.0149 18.101L20.0095 18.1011ZM12.75 7.16099C12.7502 7.15139 12.7502 7.14181 12.75 7.13224V6.68509C12.7658 6.60827 12.784 6.53141 12.8045 6.45459C13.1989 4.97367 14.44 3.51271 15.9196 2.7712C15.9821 2.73981 16.053 2.7413 16.1267 2.78919C16.2035 2.83915 16.25 2.92051 16.25 3.012V5.3297V15.238C16.25 15.3466 16.1824 15.4347 16.0923 15.465C14.833 15.8878 13.6437 16.7458 12.75 17.826V7.16099Z" fill="black"/>
</svg>
