<svg width="24" height="24" viewBox="0 0 24 24" fill="none" xmlns="http://www.w3.org/2000/svg">
<path fill-rule="evenodd" clip-rule="evenodd" d="M4.46103 9.09206L5.10857 6.66222C5.48725 5.23822 6.77729 4.24707 8.24942 4.24707H15.8366C17.3413 4.24707 18.6493 5.27968 18.9991 6.7436L19.5579 9.08732L20.8219 8.77134C21.2237 8.67088 21.6309 8.9152 21.7314 9.31704C21.8318 9.71889 21.5875 10.1261 21.1857 10.2266L20.0697 10.5055L20.6547 11.0905C21.3586 11.7944 21.7537 12.7485 21.7537 13.7437V18.5027L21.7537 18.5051V20.0033C21.7537 20.9698 20.9698 21.7538 20.0033 21.7538H18.0025C17.036 21.7538 16.2521 20.9698 16.2521 20.0033V19.2527H16.0186C16.0072 19.253 15.9958 19.253 15.9845 19.2527H8.01548C8.00414 19.253 7.99276 19.253 7.98136 19.2527H7.74791V20.0033C7.74791 20.9698 6.96393 21.7538 5.99749 21.7538H3.99666C3.03021 21.7538 2.24624 20.9698 2.24624 20.0033V13.7437C2.24624 12.7488 2.64119 11.7945 3.34539 11.0914L3.93065 10.5056L2.81434 10.2266C2.41249 10.1261 2.16817 9.71889 2.26863 9.31704C2.3691 8.9152 2.7763 8.67088 3.17814 8.77134L4.46103 9.09206ZM6.55825 7.04747C6.76199 6.28082 7.45678 5.74707 8.24942 5.74707H15.8366C16.6468 5.74707 17.3516 6.30312 17.5401 7.09214L18.1737 9.74939H5.8382L6.55825 7.04747ZM14.9611 17.7527H9.03888L9.5393 16.2515H14.4607L14.9611 17.7527ZM15.7127 15.2643L16.5422 17.7527H16.9989L17.0021 17.7527L17.0053 17.7527H20.2537V15.3161L18.0648 15.4986C17.652 15.533 17.2895 15.2262 17.2551 14.8134C17.2207 14.4006 17.5274 14.0381 17.9402 14.0037L20.2537 13.8109V13.7437C20.2537 13.1463 20.0166 12.5738 19.594 12.1512L18.6922 11.2494H5.30793L4.40547 12.1527C3.98342 12.574 3.74624 13.1462 3.74624 13.7437V13.8109L6.05977 14.0037C6.47256 14.0381 6.7793 14.4006 6.7449 14.8134C6.7105 15.2262 6.34799 15.533 5.93521 15.4986L3.74624 15.3161V17.7527H6.99471L6.99791 17.7527L7.00111 17.7527H7.45774L8.28722 15.2643C8.38931 14.958 8.67591 14.7515 8.99873 14.7515H15.0012C15.3241 14.7515 15.6107 14.958 15.7127 15.2643ZM20.2537 19.2527H17.7521V20.0033C17.7521 20.1414 17.8645 20.2538 18.0025 20.2538H20.0033C20.1413 20.2538 20.2537 20.1414 20.2537 20.0033V19.2527ZM3.74624 19.2527V20.0033C3.74624 20.1414 3.85864 20.2538 3.99666 20.2538H5.99749C6.13551 20.2538 6.24791 20.1414 6.24791 20.0033V19.2527H3.74624Z" fill="white"/>
</svg>
