<svg width="24" height="24" viewBox="0 0 24 24" fill="none" xmlns="http://www.w3.org/2000/svg">
<path fill-rule="evenodd" clip-rule="evenodd" d="M13.9429 3.26788C14.3472 3.35784 14.6021 3.75854 14.5121 4.16287L10.9521 20.1629C10.8621 20.5672 10.4614 20.822 10.0571 20.7321C9.65278 20.6421 9.39794 20.2414 9.4879 19.8371L13.0479 3.83709C13.1379 3.43276 13.5386 3.17792 13.9429 3.26788ZM6.53033 7.46965C6.82322 7.76254 6.82322 8.23741 6.53033 8.53031L3.06066 12L6.53033 15.4696C6.82322 15.7625 6.82322 16.2374 6.53033 16.5303C6.23744 16.8232 5.76256 16.8232 5.46967 16.5303L1.46967 12.5303C1.17678 12.2374 1.17678 11.7625 1.46967 11.4696L5.46967 7.46965C5.76256 7.17675 6.23744 7.17675 6.53033 7.46965ZM17.4697 7.46965C17.7626 7.17675 18.2374 7.17675 18.5303 7.46965L22.5303 11.4696C22.8232 11.7625 22.8232 12.2374 22.5303 12.5303L18.5303 16.5303C18.2374 16.8232 17.7626 16.8232 17.4697 16.5303C17.1768 16.2374 17.1768 15.7625 17.4697 15.4696L20.9393 12L17.4697 8.53031C17.1768 8.23741 17.1768 7.76254 17.4697 7.46965Z" fill="black"/>
</svg>
