<svg width="24" height="24" viewBox="0 0 24 24" fill="none" xmlns="http://www.w3.org/2000/svg">
<path fill-rule="evenodd" clip-rule="evenodd" d="M18.0025 3.74628C19.2458 3.74628 20.2537 4.7542 20.2537 5.99753V14.0009C20.2537 15.2442 19.2458 16.2521 18.0025 16.2521H17.7521V9.99794C17.7521 7.92688 16.0731 6.24794 14.0021 6.24794H7.74791V5.99753C7.74791 4.7542 8.75583 3.74628 9.99916 3.74628H18.0025ZM6.24791 6.24794V5.99753C6.24791 3.92577 7.9274 2.24628 9.99916 2.24628H18.0025C20.0743 2.24628 21.7537 3.92577 21.7537 5.99753V14.0009C21.7537 16.0726 20.0743 17.7521 18.0025 17.7521H17.7521V18.0038C17.7521 20.0748 16.0731 21.7538 14.0021 21.7538H5.99625C3.92518 21.7538 2.24625 20.0748 2.24625 18.0038V9.99794C2.24625 7.92688 3.92518 6.24794 5.99625 6.24794H6.24791ZM14.0021 7.74794C15.2447 7.74794 16.2521 8.7553 16.2521 9.99794V18.0038C16.2521 19.2464 15.2447 20.2538 14.0021 20.2538H5.99625C4.7536 20.2538 3.74625 19.2464 3.74625 18.0038V9.99794C3.74625 8.7553 4.75361 7.74794 5.99625 7.74794H14.0021ZM9.99916 11.25C9.58495 11.25 9.24916 11.5858 9.24916 12V13.2509H7.99833C7.58412 13.2509 7.24833 13.5866 7.24833 14.0009C7.24833 14.4151 7.58412 14.7509 7.99833 14.7509H9.24916V16.0017C9.24916 16.4159 9.58495 16.7517 9.99916 16.7517C10.4134 16.7517 10.7492 16.4159 10.7492 16.0017V14.7509H12C12.4142 14.7509 12.75 14.4151 12.75 14.0009C12.75 13.5866 12.4142 13.2509 12 13.2509H10.7492V12C10.7492 11.5858 10.4134 11.25 9.99916 11.25Z" fill="black"/>
</svg>
