<svg width="24" height="24" viewBox="0 0 24 24" fill="none" xmlns="http://www.w3.org/2000/svg">
<path fill-rule="evenodd" clip-rule="evenodd" d="M11.0535 2.8895C10.7092 2.6982 10.2905 2.6982 9.94626 2.8895L3.33247 6.56405C2.97065 6.7648 2.74582 7.14626 2.74582 7.56013V18.2529H5.24749V12C5.24749 11.5858 5.58327 11.25 5.99749 11.25H8.99874C9.41295 11.25 9.74874 11.5858 9.74874 12C9.74874 12.4142 9.41295 12.75 8.99874 12.75H6.74749V19.0029C6.74749 19.4171 6.4117 19.7529 5.99749 19.7529H1.99582C1.58161 19.7529 1.24582 19.4171 1.24582 19.0029V7.56013C1.24582 6.60144 1.7657 5.71812 2.60398 5.25283L9.2177 1.57832C9.21771 1.57831 9.21769 1.57832 9.2177 1.57832C10.015 1.13528 10.9846 1.13527 11.782 1.5783C11.782 1.5783 11.782 1.57829 11.782 1.5783L18.3957 5.25283C19.2333 5.71857 19.7529 6.6018 19.7529 7.56013V8.99872C19.7529 9.41294 19.4171 9.74872 19.0029 9.74872C18.5887 9.74872 18.2529 9.41294 18.2529 8.99872V7.56013C18.2529 7.14638 18.0287 6.76516 17.6672 6.56405C17.6672 6.564 17.6673 6.56409 17.6672 6.56405L11.0535 2.8895ZM7.85957 6.99789C7.85957 6.58368 8.19536 6.24789 8.60957 6.24789H12.3891C12.8034 6.24789 13.1391 6.58368 13.1391 6.99789C13.1391 7.41211 12.8034 7.74789 12.3891 7.74789H8.60957C8.19536 7.74789 7.85957 7.41211 7.85957 6.99789ZM13.5667 11.25L13.5686 11.25L18.4366 11.25C19.478 11.2526 20.3816 11.9694 20.6212 12.983L20.6216 12.9846L21.011 14.6491L21.6689 14.3203C22.0395 14.1352 22.4899 14.2855 22.6751 14.656C22.8602 15.0265 22.7099 15.477 22.3394 15.6621L21.9486 15.8574C22.4463 16.3552 22.7542 17.0428 22.7542 17.8024V21.0037C22.7542 21.9705 21.9705 22.7541 21.0037 22.7541H20.0133C19.0763 22.7541 18.3113 22.018 18.2651 21.0925H13.7382C13.692 22.018 12.927 22.7541 11.99 22.7541H10.9996C10.0328 22.7541 9.24915 21.9705 9.24915 21.0037V17.8024C9.24915 17.0426 9.55717 16.3548 10.0552 15.857L9.66482 15.6626C9.29404 15.4779 9.14315 15.0277 9.3278 14.6569C9.51244 14.2861 9.96271 14.1352 10.3335 14.3199L10.9926 14.6481L11.3818 12.9846L11.3821 12.983C11.6217 11.9694 12.5253 11.2526 13.5667 11.25ZM12.4387 15.0516L12.8419 13.328C12.8419 13.3282 12.842 13.3277 12.8419 13.328C12.922 12.9906 13.2229 12.7513 13.5696 12.75H18.4337C18.7803 12.7513 19.081 12.9897 19.1611 13.3269C19.1612 13.3273 19.1613 13.3276 19.1614 13.328L19.5646 15.0516H12.4387ZM12 16.5516C11.3092 16.5516 10.7492 17.1116 10.7492 17.8024V21.0037C10.7492 21.142 10.8613 21.2541 10.9996 21.2541H11.99C12.1283 21.2541 12.2404 21.142 12.2404 21.0037V20.3425C12.2404 19.9282 12.5762 19.5925 12.9904 19.5925H19.0129C19.4271 19.5925 19.7629 19.9282 19.7629 20.3425V21.0037C19.7629 21.142 19.875 21.2541 20.0133 21.2541H21.0037C21.142 21.2541 21.2542 21.142 21.2542 21.0037V17.8024C21.2542 17.1116 20.6941 16.5516 20.0033 16.5516H12ZM11.4921 18.1025C11.4921 17.6883 11.8279 17.3525 12.2421 17.3525H13.7377C14.1519 17.3525 14.4877 17.6883 14.4877 18.1025C14.4877 18.5167 14.1519 18.8525 13.7377 18.8525H12.2421C11.8279 18.8525 11.4921 18.5167 11.4921 18.1025ZM17.5156 18.1025C17.5156 17.6883 17.8514 17.3525 18.2656 17.3525H19.7612C20.1754 17.3525 20.5112 17.6883 20.5112 18.1025C20.5112 18.5167 20.1754 18.8525 19.7612 18.8525H18.2656C17.8514 18.8525 17.5156 18.5167 17.5156 18.1025Z" fill="white"/>
</svg>
