<svg width="12" height="12" viewBox="0 0 12 12" fill="none" xmlns="http://www.w3.org/2000/svg">
<path fill-rule="evenodd" clip-rule="evenodd" d="M5.99961 0.164551C6.27576 0.164551 6.49961 0.388408 6.49961 0.664551V6.57174L8.01772 5.05364C8.21298 4.85838 8.52956 4.85838 8.72482 5.05364C8.92008 5.2489 8.92008 5.56548 8.72482 5.76075L6.35317 8.1324C6.15791 8.32766 5.84132 8.32766 5.64606 8.1324L3.27441 5.76075C3.07914 5.56548 3.07914 5.2489 3.27441 5.05364C3.46967 4.85838 3.78625 4.85838 3.98151 5.05364L5.49961 6.57174V0.664551C5.49961 0.388408 5.72347 0.164551 5.99961 0.164551ZM0.664062 8.46393C0.940205 8.46393 1.16406 8.68779 1.16406 8.96393C1.16406 9.99762 2.00203 10.8356 3.03572 10.8356H8.96352C9.9972 10.8356 10.8352 9.99762 10.8352 8.96393C10.8352 8.68779 11.059 8.46393 11.3352 8.46393C11.6113 8.46393 11.8352 8.68779 11.8352 8.96393C11.8352 10.5499 10.5495 11.8356 8.96352 11.8356H3.03572C1.44975 11.8356 0.164062 10.5499 0.164062 8.96393C0.164062 8.68779 0.38792 8.46393 0.664062 8.46393Z" fill="#0B0D0F"/>
</svg>
