<svg width="24" height="24" viewBox="0 0 24 24" fill="none" xmlns="http://www.w3.org/2000/svg">
<path d="M12 3.24664C12.4142 3.24664 12.75 3.58243 12.75 3.99664V12.8575L15.0271 10.5803C15.32 10.2874 15.7949 10.2874 16.0878 10.5803C16.3807 10.8732 16.3807 11.3481 16.0878 11.641L12.5303 15.1985C12.4429 15.2859 12.3393 15.3472 12.2291 15.3824C12.1881 15.3956 12.1455 15.4053 12.1017 15.4113C12.0319 15.4207 11.9611 15.4204 11.8914 15.4103C11.8546 15.405 11.8188 15.397 11.784 15.3865C11.6689 15.352 11.5605 15.2893 11.4697 15.1985L7.91217 11.641C7.61928 11.3481 7.61928 10.8732 7.91217 10.5803C8.20507 10.2874 8.67994 10.2874 8.97284 10.5803L11.25 12.8575V3.99664C11.25 3.58243 11.5858 3.24664 12 3.24664Z" fill="black"/>
<path d="M4.74664 16.4457C4.74664 16.0315 4.41086 15.6957 3.99664 15.6957C3.58243 15.6957 3.24664 16.0315 3.24664 16.4457C3.24664 18.8247 5.17517 20.7532 7.55412 20.7532H16.4458C18.8248 20.7532 20.7533 18.8247 20.7533 16.4457C20.7533 16.0315 20.4175 15.6957 20.0033 15.6957C19.5891 15.6957 19.2533 16.0315 19.2533 16.4457C19.2533 17.9963 17.9964 19.2532 16.4458 19.2532H7.55412C6.0036 19.2532 4.74664 17.9963 4.74664 16.4457Z" fill="black"/>
</svg>
