<svg width="24" height="24" viewBox="0 0 24 24" fill="none" xmlns="http://www.w3.org/2000/svg">
<path d="M10.2502 5.99746C10.2502 6.68793 9.6905 7.24767 9.00003 7.24767C8.30955 7.24767 7.74982 6.68793 7.74982 5.99746C7.74982 5.30699 8.30955 4.74725 9.00003 4.74725C9.6905 4.74725 10.2502 5.30699 10.2502 5.99746Z" fill="black"/>
<path d="M9.00003 13.2502C9.6905 13.2502 10.2502 12.6904 10.2502 12C10.2502 11.3095 9.6905 10.7498 9.00003 10.7498C8.30955 10.7498 7.74982 11.3095 7.74982 12C7.74982 12.6904 8.30955 13.2502 9.00003 13.2502Z" fill="black"/>
<path d="M9.00003 19.2527C9.6905 19.2527 10.2502 18.6929 10.2502 18.0025C10.2502 17.312 9.6905 16.7523 9.00003 16.7523C8.30955 16.7523 7.74982 17.312 7.74982 18.0025C7.74982 18.6929 8.30955 19.2527 9.00003 19.2527Z" fill="black"/>
<path d="M16.2502 5.99746C16.2502 6.68793 15.6905 7.24767 15 7.24767C14.3096 7.24767 13.7498 6.68793 13.7498 5.99746C13.7498 5.30699 14.3096 4.74725 15 4.74725C15.6905 4.74725 16.2502 5.30699 16.2502 5.99746Z" fill="black"/>
<path d="M15 13.2502C15.6905 13.2502 16.2502 12.6904 16.2502 12C16.2502 11.3095 15.6905 10.7498 15 10.7498C14.3096 10.7498 13.7498 11.3095 13.7498 12C13.7498 12.6904 14.3096 13.2502 15 13.2502Z" fill="black"/>
<path d="M15 19.2527C15.6905 19.2527 16.2502 18.6929 16.2502 18.0025C16.2502 17.312 15.6905 16.7523 15 16.7523C14.3096 16.7523 13.7498 17.312 13.7498 18.0025C13.7498 18.6929 14.3096 19.2527 15 19.2527Z" fill="black"/>
</svg>
