<svg width="24" height="24" viewBox="0 0 24 24" fill="none" xmlns="http://www.w3.org/2000/svg">
<path fill-rule="evenodd" clip-rule="evenodd" d="M13.2536 6.5977C13.2421 6.60794 13.2307 6.61859 13.2197 6.62967C13.2086 6.64074 13.1979 6.65207 13.1877 6.66364L4.76409 15.0873L4.7633 15.088C4.4335 15.4165 4.25 15.8619 4.25 16.325V19C4.25 19.4142 4.58579 19.75 5 19.75H7.675C8.13818 19.75 8.58359 19.5665 8.91206 19.2366L17.3564 10.7939C17.3611 10.7894 17.3657 10.7849 17.3703 10.7803C17.3749 10.7758 17.3794 10.7712 17.3838 10.7665L19.2383 8.91239C19.9212 8.2295 19.9212 7.12157 19.2383 6.43868L17.5623 4.76268C16.8794 4.07979 15.7716 4.07979 15.0887 4.76268L13.2536 6.5977ZM16.1493 5.82334C16.2464 5.72623 16.4046 5.72623 16.5017 5.82334L18.1777 7.49934C18.2748 7.59643 18.2748 7.75452 18.1777 7.85163L16.8399 9.18921L14.8117 7.161L16.1493 5.82334ZM15.7791 10.2498L7.85072 18.1766L7.84926 18.1781C7.8038 18.2238 7.7415 18.25 7.675 18.25H5.75V16.325C5.75 16.2585 5.77621 16.1962 5.82191 16.1508L5.82333 16.1493L13.751 8.22166L15.7791 10.2498Z" fill="white"/>
</svg>
