<svg width="24" height="24" viewBox="0 0 24 24" fill="none" xmlns="http://www.w3.org/2000/svg">
<path d="M8.25 20V17C8.25 16.3092 7.69079 15.75 7 15.75H4C3.58579 15.75 3.25 15.4142 3.25 15C3.25 14.5858 3.58579 14.25 4 14.25H7C8.51921 14.25 9.75 15.4808 9.75 17V20C9.75 20.4142 9.41421 20.75 9 20.75C8.58579 20.75 8.25 20.4142 8.25 20ZM14.25 20V17C14.25 15.4808 15.4808 14.25 17 14.25H20C20.4142 14.25 20.75 14.5858 20.75 15C20.75 15.4142 20.4142 15.75 20 15.75H17C16.3092 15.75 15.75 16.3092 15.75 17V20C15.75 20.4142 15.4142 20.75 15 20.75C14.5858 20.75 14.25 20.4142 14.25 20ZM8.25 7V4C8.25 3.58579 8.58579 3.25 9 3.25C9.41421 3.25 9.75 3.58579 9.75 4V7C9.75 8.51921 8.51921 9.75 7 9.75H4C3.58579 9.75 3.25 9.41421 3.25 9C3.25 8.58579 3.58579 8.25 4 8.25H7C7.69079 8.25 8.25 7.69079 8.25 7ZM14.25 7V4C14.25 3.58579 14.5858 3.25 15 3.25C15.4142 3.25 15.75 3.58579 15.75 4V7C15.75 7.69079 16.3092 8.25 17 8.25H20C20.4142 8.25 20.75 8.58579 20.75 9C20.75 9.41421 20.4142 9.75 20 9.75H17C15.4808 9.75 14.25 8.51921 14.25 7Z" fill="black"/>
</svg>
