<svg width="24" height="24" viewBox="0 0 24 24" fill="none" xmlns="http://www.w3.org/2000/svg">
<path d="M18.47 4.46973C18.7629 4.17696 19.2376 4.17687 19.5305 4.46973C19.8232 4.76259 19.8232 5.23741 19.5305 5.53027L7.50414 17.5557C7.49657 17.5638 7.48855 17.5714 7.4807 17.5791L5.5305 19.5303C5.23765 19.8231 4.76286 19.823 4.46996 19.5303C4.17706 19.2374 4.17706 18.7626 4.46996 18.4697L5.84203 17.0967C4.48527 15.9034 3.31471 14.4086 2.45824 12.8252V12.8242C2.18132 12.311 2.18132 11.69 2.45824 11.1768L2.64867 10.834C3.6269 9.12929 4.96476 7.54633 6.49925 6.36035C8.13183 5.09859 10.0369 4.25 12.0002 4.25C13.7532 4.25006 15.4595 4.92794 16.967 5.97168L18.47 4.46973ZM18.592 8.35059C18.907 8.08171 19.3807 8.11868 19.6496 8.43359C20.3724 9.27975 21.0163 10.2059 21.5412 11.1768H21.5422C21.8191 11.69 21.8191 12.311 21.5422 12.8242L21.5412 12.8252C20.5498 14.6586 19.1376 16.3749 17.5012 17.6396C15.8687 18.9013 13.9635 19.7499 12.0002 19.75C11.0521 19.75 10.1166 19.5493 9.22484 19.2041C8.83895 19.0544 8.64684 18.6204 8.79613 18.2344C8.94564 17.8481 9.38054 17.6561 9.76683 17.8057C10.513 18.0945 11.2644 18.25 12.0002 18.25C13.5316 18.2499 15.1218 17.5825 16.5832 16.4531C18.0407 15.3268 19.3215 13.7765 20.2219 12.1113C20.2587 12.0428 20.2587 11.9582 20.2219 11.8896C19.7509 11.0187 19.1681 10.1799 18.509 9.4082C18.24 9.09324 18.2771 8.61961 18.592 8.35059ZM12.0002 5.75C10.4686 5.75 8.87789 6.41817 7.41625 7.54785C5.95886 8.67434 4.67794 10.2241 3.77757 11.8896C3.74093 11.9581 3.74094 12.0429 3.77757 12.1113L3.95043 12.4219C4.72614 13.7726 5.74902 15.0318 6.9055 16.0332L8.7639 14.1748C7.7424 12.6583 7.90108 10.5825 9.24242 9.24121C10.5838 7.89997 12.6595 7.74118 14.176 8.7627L15.8869 7.05176C14.6247 6.22547 13.2915 5.75006 12.0002 5.75ZM13.0813 9.85742C12.1812 9.4032 11.0546 9.55105 10.303 10.3027C9.55163 11.0544 9.40454 12.1801 9.85863 13.0801L13.0813 9.85742Z" fill="black"/>
</svg>
