<svg width="24" height="24" viewBox="0 0 24 24" fill="none" xmlns="http://www.w3.org/2000/svg">
<path fill-rule="evenodd" clip-rule="evenodd" d="M2.24628 6.99794V17.0021C2.24628 19.6264 4.37367 21.7538 6.99794 21.7538H17.0021C19.6264 21.7538 21.7538 19.6264 21.7538 17.0021V6.99794C21.7538 4.37367 19.6264 2.24628 17.0021 2.24628H6.99794C4.37367 2.24628 2.24628 4.37367 2.24628 6.99794ZM6.99794 3.74628C5.2021 3.74628 3.74628 5.2021 3.74628 6.99794V11.1897L3.76164 11.1744C4.35464 10.5814 5.15891 10.2482 5.99753 10.2482C6.83614 10.2482 7.64041 10.5814 8.2334 11.1744L12.0015 14.9425L12.7684 14.1756C14.0032 12.9408 16.0053 12.9408 17.2401 14.1756L20.2488 17.1843C20.2521 17.124 20.2538 17.0632 20.2538 17.0021V6.99794C20.2538 5.2021 18.798 3.74628 17.0021 3.74628H6.99794ZM19.7244 18.7812L16.1795 15.2363C15.5304 14.5872 14.4781 14.5872 13.829 15.2363L8.81156 20.2538H17.0021C18.1413 20.2538 19.1436 19.668 19.7244 18.7812ZM6.7034 20.2406L10.9409 16.0031L7.17274 12.235C6.86105 11.9233 6.43831 11.7482 5.99753 11.7482C5.55673 11.7482 5.13399 11.9233 4.82231 12.235L3.74628 13.3111V17.0021C3.74628 18.6987 5.04558 20.0918 6.7034 20.2406Z" fill="black"/>
</svg>
