<svg width="24" height="24" viewBox="0 0 24 24" fill="none" xmlns="http://www.w3.org/2000/svg">
<path d="M7.5 3.25C7.91421 3.25 8.25 3.58579 8.25 4V6.25H11.501C11.7102 6.25 11.9099 6.3374 12.0519 6.49108C12.1939 6.64477 12.2652 6.85077 12.2486 7.05934C12.0593 9.44554 10.8637 11.6632 9.10992 13.2642C9.81733 13.8183 10.668 14.182 11.559 14.2523C11.9719 14.2849 12.2803 14.6461 12.2477 15.059C12.2151 15.4719 11.8539 15.7803 11.441 15.7477C10.1228 15.6436 8.88496 15.073 7.90133 14.2098C6.60978 15.0697 5.12057 15.6241 3.55916 15.7477C3.14623 15.7803 2.78501 15.4721 2.75234 15.0592C2.71967 14.6462 3.02792 14.285 3.44084 14.2523C4.66516 14.1555 5.8422 13.7356 6.88142 13.0832C6.24873 12.1976 5.83893 11.1561 5.75233 10.059C5.71973 9.64609 6.02805 9.28492 6.44098 9.25233C6.85391 9.21973 7.21508 9.52805 7.24767 9.94098C7.31105 10.7439 7.61259 11.514 8.07703 12.176C9.36685 11.0065 10.3071 9.44576 10.6415 7.75H3.501C3.08679 7.75 2.751 7.41421 2.751 7C2.751 6.58579 3.08679 6.25 3.501 6.25H6.75V4C6.75 3.58579 7.08579 3.25 7.5 3.25Z" fill="white"/>
<path fill-rule="evenodd" clip-rule="evenodd" d="M16.5 10.25C16.7964 10.25 17.065 10.4246 17.1854 10.6954L21.1854 19.6954C21.3536 20.0739 21.1831 20.5171 20.8046 20.6854C20.4261 20.8536 19.9829 20.6831 19.8146 20.3046L19.1237 18.75H13.8763L13.1854 20.3046C13.0171 20.6831 12.5739 20.8536 12.1954 20.6854C11.8169 20.5171 11.6464 20.0739 11.8146 19.6954L15.8146 10.6954C15.935 10.4246 16.2036 10.25 16.5 10.25ZM18.457 17.25L16.5 12.8467L14.543 17.25H18.457Z" fill="white"/>
</svg>
