<svg width="24" height="24" viewBox="0 0 24 24" fill="none" xmlns="http://www.w3.org/2000/svg">
<path fill-rule="evenodd" clip-rule="evenodd" d="M8.11953 9.18506L11.0539 5.36447C12.027 4.09661 13.9262 4.06536 14.9415 5.29776C15.3183 5.75421 15.522 6.32727 15.522 6.91601V9.43701H17.868C18.7194 9.43701 19.5139 9.86192 19.987 10.5685L20.316 11.0595C20.7334 11.6834 20.8561 12.4613 20.6477 13.1834L19.2887 17.9054C18.9743 18.9974 17.9756 19.75 16.839 19.75H10.55C9.84199 19.75 9.16476 19.4556 8.68253 18.9365L8.54227 18.7855C8.23962 19.359 7.63735 19.75 6.944 19.75H5.056C4.05879 19.75 3.25 18.9412 3.25 17.944V10.556C3.25 9.55879 4.05879 8.75 5.056 8.75H6.944C7.39289 8.75 7.80359 8.91388 8.11953 9.18506ZM12.244 6.27754C12.6289 5.77587 13.3813 5.76276 13.784 6.25176C13.9372 6.43728 14.022 6.67284 14.022 6.91601V10.187C14.022 10.6012 14.3578 10.937 14.772 10.937H17.868C18.2185 10.937 18.546 11.1123 18.7409 11.4035L19.0699 11.8945C19.2422 12.1523 19.2916 12.4731 19.2062 12.7686L17.8473 17.4905C17.7177 17.9405 17.3064 18.25 16.839 18.25H10.55C10.258 18.25 9.97919 18.1284 9.78142 17.9155L8.75 16.8054V10.8268L12.244 6.27754ZM7.25 10.5619C7.24992 10.5683 7.24992 10.5747 7.25 10.5811V17.0939C7.24996 17.0981 7.24996 17.1023 7.25 17.1065V17.944C7.25 18.1128 7.11279 18.25 6.944 18.25H5.056C4.88721 18.25 4.75 18.1128 4.75 17.944V10.556C4.75 10.3872 4.88721 10.25 5.056 10.25H6.944C7.11279 10.25 7.25 10.3872 7.25 10.556V10.5619Z" fill="black"/>
</svg>
