<svg width="24" height="24" viewBox="0 0 24 24" fill="none" xmlns="http://www.w3.org/2000/svg">
<path fill-rule="evenodd" clip-rule="evenodd" d="M11.7064 4.79333C13.7849 2.76602 17.1072 2.78673 19.1602 4.83979C21.2133 6.89286 21.234 10.2151 19.2067 12.2936L19.2001 12.3003L17.0082 14.4922C16.7153 14.7851 16.2404 14.7851 15.9475 14.4922C15.6546 14.1993 15.6546 13.7244 15.9475 13.4315L18.136 11.2431C19.5868 9.75217 19.5709 7.37184 18.0996 5.90045C16.6282 4.42907 14.2479 4.41319 12.757 5.86401L10.5685 8.05248C10.2756 8.34537 9.80074 8.34537 9.50785 8.05248C9.21496 7.75958 9.21496 7.28471 9.50785 6.99182L11.7064 4.79333Z" fill="black"/>
<path fill-rule="evenodd" clip-rule="evenodd" d="M15.1984 8.80157C15.4913 9.09446 15.4913 9.56934 15.1984 9.86223L9.86222 15.1985C9.56932 15.4913 9.09445 15.4913 8.80155 15.1985C8.50866 14.9056 8.50866 14.4307 8.80155 14.1378L14.1378 8.80157C14.4307 8.50868 14.9055 8.50868 15.1984 8.80157Z" fill="black"/>
<path fill-rule="evenodd" clip-rule="evenodd" d="M8.05246 9.50786C8.34535 9.80076 8.34535 10.2756 8.05246 10.5685L5.864 12.757C4.41317 14.2479 4.42905 16.6282 5.90044 18.0996C7.37183 19.571 9.75215 19.5868 11.243 18.136L13.4315 15.9475C13.7244 15.6547 14.1993 15.6547 14.4921 15.9475C14.785 16.2404 14.785 16.7153 14.4921 17.0082L12.2936 19.2067C10.2151 21.234 6.89284 21.2133 4.83978 19.1602C2.78671 17.1072 2.766 13.7849 4.79332 11.7064L4.79985 11.6997L6.9918 9.50786C7.28469 9.21497 7.75957 9.21497 8.05246 9.50786Z" fill="black"/>
</svg>
