<svg width="24" height="24" viewBox="0 0 24 24" fill="none" xmlns="http://www.w3.org/2000/svg">
<path fill-rule="evenodd" clip-rule="evenodd" d="M3.24667 6.43667C3.24667 5.7462 3.80641 5.18646 4.49688 5.18646C5.18735 5.18646 5.74709 5.7462 5.74709 6.43667C5.74709 7.12714 5.18735 7.68688 4.49688 7.68688C3.80641 7.68688 3.24667 7.12714 3.24667 6.43667ZM4.49688 6.68646C4.63484 6.68646 4.74667 6.57463 4.74667 6.43667C4.74667 6.29871 4.63484 6.18688 4.49688 6.18688C4.35893 6.18688 4.24709 6.29871 4.24709 6.43667C4.24709 6.57463 4.35893 6.68646 4.49688 6.68646ZM8.24876 6.43667C8.24876 6.02246 8.58454 5.68667 8.99876 5.68667H20.0033C20.4176 5.68667 20.7533 6.02246 20.7533 6.43667C20.7533 6.85088 20.4176 7.18667 20.0033 7.18667H8.99876C8.58454 7.18667 8.24876 6.85088 8.24876 6.43667ZM5.24751 12C5.24751 11.3095 5.80724 10.7498 6.49772 10.7498C7.18819 10.7498 7.74792 11.3095 7.74792 12C7.74792 12.6905 7.18819 13.2502 6.49772 13.2502C5.80724 13.2502 5.24751 12.6905 5.24751 12ZM6.49772 12.2498C6.63567 12.2498 6.74751 12.1379 6.74751 12C6.74751 11.862 6.63567 11.7502 6.49772 11.7502C6.35976 11.7502 6.24792 11.862 6.24792 12C6.24792 12.1379 6.35976 12.2498 6.49772 12.2498ZM10.2496 12C10.2496 11.5858 10.5854 11.25 10.9996 11.25H20.0033C20.4176 11.25 20.7533 11.5858 20.7533 12C20.7533 12.4142 20.4176 12.75 20.0033 12.75H10.9996C10.5854 12.75 10.2496 12.4142 10.2496 12ZM7.24834 17.5633C7.24834 16.8728 7.80808 16.3131 8.49855 16.3131C9.18902 16.3131 9.74876 16.8728 9.74876 17.5633C9.74876 18.2538 9.18902 18.8135 8.49855 18.8135C7.80808 18.8135 7.24834 18.2538 7.24834 17.5633ZM8.49855 17.8131C8.6365 17.8131 8.74834 17.7013 8.74834 17.5633C8.74834 17.4254 8.6365 17.3135 8.49855 17.3135C8.36059 17.3135 8.24876 17.4254 8.24876 17.5633C8.24876 17.7013 8.36059 17.8131 8.49855 17.8131ZM12.2504 17.5633C12.2504 17.1491 12.5862 16.8133 13.0004 16.8133H20.0033C20.4176 16.8133 20.7533 17.1491 20.7533 17.5633C20.7533 17.9775 20.4176 18.3133 20.0033 18.3133H13.0004C12.5862 18.3133 12.2504 17.9775 12.2504 17.5633Z" fill="black"/>
</svg>
