<svg width="24" height="24" viewBox="0 0 24 24" fill="none" xmlns="http://www.w3.org/2000/svg">
<path d="M7.02804 1.9657C6.73515 1.67281 6.26027 1.67281 5.96738 1.9657C5.67449 2.2586 5.67449 2.73347 5.96738 3.02636L6.18769 3.24667H5.9975C3.92574 3.24667 2.24625 4.92617 2.24625 6.99792C2.24625 7.41214 2.58203 7.74792 2.99625 7.74792C3.41046 7.74792 3.74625 7.41214 3.74625 6.99792C3.74625 5.75459 4.75417 4.74667 5.9975 4.74667H6.18766L5.96738 4.96695C5.67449 5.25985 5.67449 5.73472 5.96738 6.02761C6.26027 6.32051 6.73515 6.32051 7.02804 6.02761L8.52644 4.52921C8.53324 4.52247 8.53991 4.5156 8.54645 4.5086C8.6748 4.37135 8.74195 4.19764 8.7479 4.02225C8.75133 3.92132 8.73449 3.81984 8.69739 3.72442C8.66082 3.63039 8.60458 3.54225 8.52867 3.46633L7.02804 1.9657Z" fill="white"/>
<path d="M18.0326 17.9724C18.3255 18.2653 18.3255 18.7402 18.0326 19.033L17.8123 19.2533H18.0025C19.2458 19.2533 20.2537 18.2454 20.2537 17.0021C20.2537 16.5879 20.5895 16.2521 21.0037 16.2521C21.418 16.2521 21.7537 16.5879 21.7537 17.0021C21.7537 19.0738 20.0743 20.7533 18.0025 20.7533H17.8123L18.0326 20.9736C18.3255 21.2665 18.3255 21.7414 18.0326 22.0343C17.7397 22.3272 17.2649 22.3272 16.972 22.0343L15.4713 20.5337C15.3977 20.46 15.3425 20.3748 15.3059 20.2839C15.2709 20.1972 15.2517 20.1025 15.2517 20.0033C15.2517 19.8987 15.2731 19.7991 15.3118 19.7086C15.3436 19.634 15.3882 19.5634 15.4454 19.5003C15.4547 19.4899 15.4644 19.4798 15.4743 19.47L16.972 17.9724C17.2649 17.6795 17.7397 17.6795 18.0326 17.9724Z" fill="white"/>
<path d="M10.2489 12.6662C10.2489 12.3627 10.0659 12.0891 9.78545 11.9731C9.50497 11.8571 9.18223 11.9216 8.96788 12.1365L8.15654 12.9499C7.86401 13.2431 7.8646 13.718 8.15785 14.0105C8.31987 14.1721 8.53734 14.2443 8.74886 14.227V15.1675H8.68962C8.27541 15.1675 7.93962 15.5033 7.93962 15.9175C7.93962 16.3317 8.27541 16.6675 8.68962 16.6675H10.3081C10.7223 16.6675 11.0581 16.3317 11.0581 15.9175C11.0581 15.5033 10.7223 15.1675 10.3081 15.1675H10.2489V12.6662Z" fill="white"/>
<path fill-rule="evenodd" clip-rule="evenodd" d="M9.49897 20.7533C11.1572 20.7533 12.7475 20.0946 13.92 18.9221C15.0925 17.7495 15.7513 16.1593 15.7513 14.501C15.7513 11.048 12.952 8.24875 9.49897 8.24875C6.04592 8.24875 3.24667 11.048 3.24667 14.501C3.24667 17.9541 6.04592 20.7533 9.49897 20.7533ZM9.49897 9.74875C6.87435 9.74875 4.74667 11.8764 4.74667 14.501C4.74667 17.1257 6.87435 19.2533 9.49897 19.2533C10.7594 19.2533 11.9681 18.7526 12.8593 17.8614C13.7506 16.9702 14.2513 15.7614 14.2513 14.501C14.2513 11.8764 12.1236 9.74875 9.49897 9.74875Z" fill="white"/>
<path d="M11.1406 6.19083C12.9965 4.33495 16.0054 4.33495 17.8613 6.19084C19.7172 8.04672 19.7172 11.0557 17.8613 12.9116C17.5684 13.2045 17.5684 13.6794 17.8613 13.9723C18.1542 14.2651 18.6291 14.2651 18.922 13.9723C21.3637 11.5306 21.3637 7.57185 18.922 5.13018C16.4803 2.6885 12.5216 2.6885 10.0799 5.13017C9.78702 5.42306 9.78702 5.89794 10.0799 6.19083C10.3728 6.48372 10.8477 6.48372 11.1406 6.19083Z" fill="white"/>
</svg>
