<svg width="24" height="24" viewBox="0 0 24 24" fill="none" xmlns="http://www.w3.org/2000/svg">
<path d="M5.11931 4.06305C8.93715 0.311259 15.0619 0.311365 18.8806 4.06298C22.7068 7.82191 22.7068 13.8631 18.8806 17.622C18.5851 17.9123 18.1103 17.9081 17.82 17.6126C17.5297 17.3171 17.5339 16.8423 17.8294 16.552C21.0572 13.3809 21.0572 8.30407 17.8294 5.133C14.5941 1.95461 9.40484 1.95472 6.17068 5.13292C2.94367 8.30411 2.94289 13.381 6.1706 16.552C6.46608 16.8423 6.47029 17.3171 6.18001 17.6126C5.88972 17.9081 5.41487 17.9123 5.11939 17.622C1.2931 13.863 1.29432 7.82187 5.11931 4.06305Z" fill="white"/>
<path d="M3.35001 21C3.35001 20.5858 3.68579 20.25 4.10001 20.25H20.1C20.5142 20.25 20.85 20.5858 20.85 21C20.85 21.4142 20.5142 21.75 20.1 21.75H4.10001C3.68579 21.75 3.35001 21.4142 3.35001 21Z" fill="white"/>
<path d="M12.75 6C12.75 5.58579 12.4142 5.25 12 5.25C11.5858 5.25 11.25 5.58579 11.25 6V6.5C9.86781 6.5027 8.75 7.62373 8.75 9.005C8.75 10.154 9.53195 11.1556 10.6452 11.4354L12.9884 12.0234C13.4356 12.1357 13.749 12.5376 13.749 12.999C13.749 13.5545 13.2991 14.004 12.744 14.004H12.0779C12.0523 14.0014 12.0263 14 12 14C11.9737 14 11.9477 14.0014 11.9221 14.004H11.374C10.7836 14.004 10.2981 13.5431 10.2594 12.951C10.2324 12.5377 9.87535 12.2246 9.46203 12.2516C9.0487 12.2786 8.73555 12.6356 8.7626 13.049C8.8492 14.3723 9.91042 15.4388 11.25 15.5011V16C11.25 16.4142 11.5858 16.75 12 16.75C12.4142 16.75 12.75 16.4142 12.75 16V15.504C14.1302 15.5008 15.249 14.3815 15.249 12.999C15.249 11.8504 14.4684 10.8483 13.3536 10.5686L11.0108 9.98061C10.5642 9.86828 10.25 9.46592 10.25 9.005C10.25 8.44993 10.6995 8 11.255 8H12.625C13.2143 8 13.6994 8.46001 13.7387 9.04984C13.7662 9.46314 14.1235 9.77587 14.5368 9.74834C14.9501 9.72082 15.2629 9.36346 15.2353 8.95016C15.1474 7.62893 14.0864 6.56565 12.75 6.50293V6Z" fill="white"/>
</svg>
