<svg width="24" height="24" viewBox="0 0 24 24" fill="none" xmlns="http://www.w3.org/2000/svg">
<path d="M5.49729 7.24835C5.08308 7.24835 4.74729 7.58414 4.74729 7.99835C4.74729 8.41257 5.08308 8.74835 5.49729 8.74835H18.5024C18.9166 8.74835 19.2524 8.41257 19.2524 7.99835C19.2524 7.58414 18.9166 7.24835 18.5024 7.24835H5.49729Z" fill="black"/>
<path d="M4.74763 11.9999C4.74763 11.5857 5.08342 11.2499 5.49763 11.2499H18.5027C18.9169 11.2499 19.2527 11.5857 19.2527 11.9999C19.2527 12.4142 18.9169 12.7499 18.5027 12.7499H5.49763C5.08342 12.7499 4.74763 12.4142 4.74763 11.9999Z" fill="black"/>
<path d="M4.74763 16.0016C4.74763 15.5874 5.08342 15.2516 5.49763 15.2516H18.5027C18.9169 15.2516 19.2527 15.5874 19.2527 16.0016C19.2527 16.4159 18.9169 16.7516 18.5027 16.7516H5.49763C5.08342 16.7516 4.74763 16.4159 4.74763 16.0016Z" fill="black"/>
</svg>
