<svg width="24" height="24" viewBox="0 0 24 24" fill="none" xmlns="http://www.w3.org/2000/svg">
<path d="M12 6.24792C11.5858 6.24792 11.25 6.58371 11.25 6.99792C11.25 7.41213 11.5858 7.74792 12 7.74792H15.0013C15.4155 7.74792 15.7513 7.41213 15.7513 6.99792C15.7513 6.58371 15.4155 6.24792 15.0013 6.24792H12Z" fill="white"/>
<path d="M12 9.24917C11.5858 9.24917 11.25 9.58496 11.25 9.99917C11.25 10.4134 11.5858 10.7492 12 10.7492H15.0013C15.4155 10.7492 15.7513 10.4134 15.7513 9.99917C15.7513 9.58496 15.4155 9.24917 15.0013 9.24917H12Z" fill="white"/>
<path fill-rule="evenodd" clip-rule="evenodd" d="M5.2475 7.49792C5.2475 6.80757 5.80714 6.24792 6.4975 6.24792H8.49875C9.1891 6.24792 9.74875 6.80757 9.74875 7.49792V9.49918C9.74875 10.1895 9.1891 10.7492 8.49875 10.7492H6.4975C5.80714 10.7492 5.2475 10.1895 5.2475 9.49918V7.49792ZM6.7475 7.74792V9.24918H8.24875V7.74792H6.7475Z" fill="white"/>
<path d="M5.9975 12.7506C5.58328 12.7506 5.2475 13.0864 5.2475 13.5006C5.2475 13.9148 5.58328 14.2506 5.9975 14.2506H15.0012C15.4155 14.2506 15.7512 13.9148 15.7512 13.5006C15.7512 13.0864 15.4155 12.7506 15.0012 12.7506H5.9975Z" fill="white"/>
<path d="M5.2475 17.0021C5.2475 16.5879 5.58328 16.2521 5.9975 16.2521H15.0012C15.4155 16.2521 15.7512 16.5879 15.7512 17.0021C15.7512 17.4163 15.4155 17.7521 15.0012 17.7521H5.9975C5.58328 17.7521 5.2475 17.4163 5.2475 17.0021Z" fill="white"/>
<path fill-rule="evenodd" clip-rule="evenodd" d="M18.7525 4.99708V7.24833H19.0029C20.5222 7.24833 21.7537 8.47992 21.7537 9.99916V19.0029C21.7537 20.5222 20.5222 21.7537 19.0029 21.7537H4.99708C3.47784 21.7537 2.24625 20.5222 2.24625 19.0029V4.99708C2.24625 3.47784 3.47784 2.24625 4.99708 2.24625H16.0017C17.5209 2.24625 18.7525 3.47784 18.7525 4.99708ZM3.74625 4.99708C3.74625 4.30626 4.30626 3.74625 4.99708 3.74625H16.0017C16.6925 3.74625 17.2525 4.30626 17.2525 4.99708V20.2537H4.99708C4.30626 20.2537 3.74625 19.6937 3.74625 19.0029V4.99708ZM18.7525 20.2537V8.74833H19.0029C19.6937 8.74833 20.2537 9.30835 20.2537 9.99916V19.0029C20.2537 19.6937 19.6937 20.2537 19.0029 20.2537H18.7525Z" fill="white"/>
</svg>
