<svg width="24" height="24" viewBox="0 0 24 24" fill="none" xmlns="http://www.w3.org/2000/svg">
<path d="M14.6314 12.5303C14.9243 12.2374 14.9243 11.7626 14.6314 11.4697C14.3385 11.1768 13.8636 11.1768 13.5707 11.4697L11.6011 13.4393L10.6314 12.4697C10.3385 12.1768 9.86364 12.1768 9.57074 12.4697C9.27785 12.7626 9.27785 13.2374 9.57074 13.5303L11.0707 15.0303C11.3636 15.3232 11.8385 15.3232 12.1314 15.0303L14.6314 12.5303Z" fill="white"/>
<path fill-rule="evenodd" clip-rule="evenodd" d="M7.25 4C7.25 3.0335 8.0335 2.25 9 2.25H15C15.9665 2.25 16.75 3.0335 16.75 4V4.25H18C19.5188 4.25 20.75 5.48122 20.75 7V19C20.75 20.5188 19.5188 21.75 18 21.75H6C4.48122 21.75 3.25 20.5188 3.25 19V7C3.25 5.48122 4.48122 4.25 6 4.25H7.25V4ZM18 5.75H16.75V6C16.75 6.9665 15.9665 7.75 15 7.75H9C8.0335 7.75 7.25 6.9665 7.25 6V5.75H6C5.30964 5.75 4.75 6.30964 4.75 7V19C4.75 19.6904 5.30964 20.25 6 20.25H18C18.6904 20.25 19.25 19.6904 19.25 19V7C19.25 6.30964 18.6904 5.75 18 5.75ZM8.75 6V4C8.75 3.86193 8.86193 3.75 9 3.75H15C15.1381 3.75 15.25 3.86193 15.25 4V6C15.25 6.13807 15.1381 6.25 15 6.25H9C8.86193 6.25 8.75 6.13807 8.75 6Z" fill="white"/>
</svg>
