<svg width="24" height="24" viewBox="0 0 24 24" fill="none" xmlns="http://www.w3.org/2000/svg">
<path fill-rule="evenodd" clip-rule="evenodd" d="M7.77486 16.3452C7.7536 16.3282 7.73305 16.3098 7.71332 16.2901C5.17564 13.7524 3.57472 10.7632 3.0473 7.98445C2.88535 7.21915 2.90637 6.54885 3.11297 5.93934C3.31839 5.33335 3.68515 4.85358 4.10232 4.4364L4.75332 3.7854C5.82722 2.71151 7.56809 2.71151 8.64198 3.7854L9.81498 4.9584C10.6936 5.83704 10.6943 7.26227 9.81453 8.14051L8.91098 9.04306C8.90901 9.04503 8.90744 9.04715 8.90626 9.04924C9.44551 10.2659 10.2541 11.4735 11.328 12.561C11.3481 12.5774 11.3676 12.5949 11.3863 12.6137C12.4886 13.716 13.7174 14.5436 14.9555 15.0924C14.9576 15.0912 14.9597 15.0896 14.9617 15.0877L15.8642 14.1841C16.7425 13.3045 18.1677 13.3051 19.0463 14.1837L20.2193 15.3567C21.2932 16.4305 21.2932 18.1714 20.2193 19.2453L19.5683 19.8963C19.1512 20.3135 18.6714 20.6802 18.0654 20.8857C17.4559 21.0923 16.7856 21.1133 16.0203 20.9513C13.2634 20.4281 10.2995 18.8482 7.77486 16.3452ZM5.81398 4.84606C6.30209 4.35795 7.09322 4.35795 7.58132 4.84606L8.75432 6.01906C9.04768 6.31242 9.04703 6.78719 8.75478 7.07895L7.85062 7.98211C7.43117 8.40155 7.27035 9.05753 7.52849 9.64252C8.15378 11.0582 9.09035 12.4451 10.3243 13.6791C10.3442 13.6989 10.3649 13.7175 10.3864 13.7347C11.605 14.9389 12.9694 15.855 14.362 16.47C14.947 16.7282 15.6029 16.5678 16.0223 16.1483L16.9256 15.244C17.2174 14.9518 17.6923 14.951 17.9857 15.2443L19.1587 16.4173C19.6468 16.9054 19.6468 17.6965 19.1587 18.1847L18.5077 18.8357C18.1838 19.1595 17.8946 19.3597 17.5838 19.4651C17.2789 19.5684 16.8875 19.6025 16.3244 19.4825L16.3073 19.479C13.8625 19.0168 11.1331 17.5824 8.77533 15.2247C8.75643 15.2058 8.73677 15.1881 8.71645 15.1716C6.39288 12.8271 4.97804 10.1223 4.5196 7.69741L4.51616 7.68033C4.39611 7.11727 4.43021 6.72583 4.53358 6.42089C4.63892 6.11012 4.83916 5.82089 5.16298 5.49706L5.81398 4.84606Z" fill="black"/>
</svg>
