<svg width="24" height="24" viewBox="0 0 24 24" fill="none" xmlns="http://www.w3.org/2000/svg">
<path fill-rule="evenodd" clip-rule="evenodd" d="M8.66972 3.80542C7.59596 2.73166 5.85539 2.73153 4.78147 3.80501L4.12906 4.45642C3.2023 5.38319 2.82931 6.70746 3.07245 7.99607C3.59824 10.7772 5.19983 13.7698 7.74006 16.3101C10.2803 18.8503 13.2732 20.452 16.0543 20.9777C17.3429 21.2209 18.667 20.8478 19.5937 19.9211L20.2447 19.2701C21.3186 18.1962 21.3186 16.4553 20.2447 15.3814L19.0717 14.2084C18.1931 13.3298 16.7679 13.3293 15.8896 14.2089L14.9869 15.1126C14.985 15.1145 14.9829 15.116 14.9809 15.1171C13.7427 14.5684 12.5127 13.7404 11.4105 12.6392C10.5397 11.7684 9.84098 10.8187 9.31585 9.84776C9.17631 9.58978 9.04904 9.3303 8.93405 9.07041C8.93505 9.06849 8.93656 9.06624 8.93872 9.06408L9.24609 8.75671L9.75772 8.24508C10.6943 7.30848 10.7482 5.88388 9.84272 4.97842L8.66972 3.80542ZM7.60906 4.86608C7.12095 4.37797 6.32983 4.37797 5.84172 4.86608L5.78722 4.92049L5.69077 5.0168L5.18972 5.51708C4.63466 6.07225 4.38959 6.88621 4.54634 7.71743C5.0086 10.1622 6.44304 12.8917 8.80072 15.2494C11.1584 17.6071 13.8877 19.0415 16.3324 19.5038C17.1637 19.6605 17.9779 19.4156 18.5331 18.8604L19.1841 18.2094C19.6722 17.7213 19.6722 16.9302 19.1841 16.4421L18.0111 15.2691C17.7177 14.9757 17.2429 14.9764 16.9512 15.2686L16.4096 15.8108L16.048 16.1728C15.6286 16.5922 14.9724 16.753 14.3874 16.4948C13.4932 16.0999 12.61 15.5807 11.7698 14.941C11.2799 14.568 10.8045 14.1542 10.3501 13.7001C9.89456 13.2446 9.47974 12.7683 9.10624 12.2774C8.46776 11.4383 7.95 10.5566 7.55614 9.66334L7.55533 9.66149C7.30053 9.07938 7.45714 8.42434 7.87806 8.00342L7.90881 7.97267L8.2403 7.64119L8.69706 7.18442C9.10246 6.77902 9.0486 6.30562 8.78206 6.03908L7.60906 4.86608Z" fill="black"/>
</svg>
