<svg width="24" height="24" viewBox="0 0 24 24" fill="none" xmlns="http://www.w3.org/2000/svg">
<path fill-rule="evenodd" clip-rule="evenodd" d="M14.9169 9.08319C14.8343 9.0006 14.7568 8.91484 14.6844 8.8263L9.98385 11.1766C10.1174 11.7168 10.1174 12.2832 9.98383 12.8234L14.6844 15.1737C14.7568 15.0851 14.8343 14.9994 14.9169 14.9168C16.2513 13.5823 18.4148 13.5823 19.7492 14.9168C21.0837 16.2512 21.0837 18.4147 19.7492 19.7491C18.4148 21.0836 16.2513 21.0836 14.9169 19.7491C14.0402 18.8725 13.7395 17.638 14.0147 16.5159L9.3115 14.1643C9.24031 14.251 9.16421 14.3351 9.08319 14.4161C7.74876 15.7506 5.58524 15.7506 4.25082 14.4161C2.91639 13.0817 2.91639 10.9182 4.25082 9.58377C5.58524 8.24934 7.74876 8.24934 9.08319 9.58377C9.16423 9.66481 9.24035 9.74891 9.31155 9.8357L14.0147 7.48414C13.7395 6.36197 14.0402 5.12748 14.9169 4.25082C16.2513 2.91639 18.4148 2.91639 19.7492 4.25082C21.0837 5.58524 21.0837 7.74876 19.7492 9.08319C18.4148 10.4176 16.2513 10.4176 14.9169 9.08319ZM15.9775 5.31148C16.7262 4.56284 17.9399 4.56284 18.6886 5.31148C19.4372 6.06011 19.4372 7.27389 18.6886 8.02253C17.9399 8.77116 16.7262 8.77116 15.9775 8.02253C15.8596 7.9046 15.7603 7.77514 15.6795 7.63777C15.6671 7.59606 15.651 7.55485 15.6308 7.51459C15.6109 7.47483 15.588 7.4376 15.5624 7.40306C15.2737 6.70774 15.4121 5.87693 15.9775 5.31148ZM8.36919 11.1454C8.35139 11.1098 8.33669 11.0735 8.32499 11.0367C8.24343 10.8966 8.14261 10.7645 8.02253 10.6444C7.27389 9.89579 6.06011 9.89579 5.31148 10.6444C4.56284 11.3931 4.56284 12.6068 5.31148 13.3555C6.06011 14.1041 7.27389 14.1041 8.02253 13.3555C8.14264 13.2354 8.24348 13.1033 8.32505 12.9631C8.33675 12.9264 8.35142 12.8901 8.36919 12.8546C8.38725 12.8185 8.40784 12.7844 8.43063 12.7526C8.6351 12.273 8.63513 11.7271 8.43073 11.2475C8.4079 11.2157 8.38728 11.1816 8.36919 11.1454ZM15.6308 16.4854C15.6109 16.5252 15.588 16.5624 15.5624 16.597C15.2737 17.2923 15.4121 18.123 15.9775 18.6885C16.7262 19.4371 17.9399 19.4371 18.6886 18.6885C19.4372 17.9398 19.4372 16.7261 18.6886 15.9774C17.9399 15.2288 16.7262 15.2288 15.9775 15.9774C15.8596 16.0953 15.7603 16.2248 15.6795 16.3621C15.6671 16.4039 15.651 16.4451 15.6308 16.4854Z" fill="white"/>
</svg>
