<svg width="24" height="24" viewBox="0 0 24 24" fill="none" xmlns="http://www.w3.org/2000/svg">
<path d="M2.24625 5.42526C2.24625 3.66954 3.66954 2.24625 5.42526 2.24625H18.0025C19.7582 2.24625 21.1815 3.66954 21.1815 5.42526V8.99875C21.1815 9.41296 20.8457 9.74875 20.4315 9.74875C20.0173 9.74875 19.6815 9.41296 19.6815 8.99875V5.42526C19.6815 4.49796 18.9298 3.74625 18.0025 3.74625H5.42526C4.49797 3.74625 3.74625 4.49797 3.74625 5.42526V13.5727C3.74625 14.4999 4.49797 15.2517 5.42526 15.2517H13.0004C13.4146 15.2517 13.7504 15.5875 13.7504 16.0017C13.7504 16.4159 13.4146 16.7517 13.0004 16.7517H9.58881L9.2761 19.2533H10.9996C11.4138 19.2533 11.7496 19.5891 11.7496 20.0033C11.7496 20.4175 11.4138 20.7533 10.9996 20.7533H8.43989C8.43162 20.7535 8.42333 20.7535 8.41502 20.7533H6.92589C6.51167 20.7533 6.17589 20.4175 6.17589 20.0033C6.17589 19.5891 6.51167 19.2533 6.92589 19.2533H7.76443L8.07713 16.7517H5.42526C3.66954 16.7517 2.24625 15.3284 2.24625 13.5727V5.42526Z" fill="white"/>
<path fill-rule="evenodd" clip-rule="evenodd" d="M16.5959 17.2525L16.5938 17.2525C15.0256 17.257 13.7555 18.5271 13.751 20.0952V20.5035C13.751 21.194 14.3108 21.7538 15.0012 21.7538H21.504C22.1944 21.7538 22.7542 21.194 22.7542 20.5035L22.7542 20.0974L22.7542 20.0952C22.7497 18.5271 21.4796 17.257 19.9114 17.2525L16.5959 17.2525ZM15.251 20.0986C15.2537 19.3563 15.8548 18.7551 16.5971 18.7525H19.9081C20.6504 18.7551 21.2516 19.3563 21.2542 20.0986V20.2538H15.251V20.0986Z" fill="white"/>
<path fill-rule="evenodd" clip-rule="evenodd" d="M15.5058 13.4979C15.5073 11.9797 16.7384 10.7498 18.2566 10.7498C19.7748 10.7498 21.0059 11.9797 21.0074 13.4979C21.009 15.016 19.7803 16.2484 18.2621 16.2515L18.2606 16.2515H18.2526L18.2511 16.2515C16.7329 16.2484 15.5043 15.016 15.5058 13.4979ZM18.2566 12.2498C17.5663 12.2498 17.0065 12.809 17.0058 13.4994C17.0051 14.1895 17.5634 14.7497 18.2535 14.7515H18.2597C18.9498 14.7497 19.5081 14.1895 19.5074 13.4994C19.5067 12.809 18.9469 12.2498 18.2566 12.2498Z" fill="white"/>
</svg>
