<svg width="24" height="24" viewBox="0 0 24 24" fill="none" xmlns="http://www.w3.org/2000/svg">
<path fill-rule="evenodd" clip-rule="evenodd" d="M12 3.74625C7.44158 3.74625 3.74625 7.44158 3.74625 12C3.74625 16.5584 7.44158 20.2537 12 20.2537C16.5584 20.2537 20.2537 16.5584 20.2537 12C20.2537 7.44158 16.5584 3.74625 12 3.74625ZM2.24625 12C2.24625 6.61315 6.61315 2.24625 12 2.24625C17.3868 2.24625 21.7537 6.61315 21.7537 12C21.7537 17.3868 17.3868 21.7537 12 21.7537C6.61315 21.7537 2.24625 17.3868 2.24625 12Z" fill="black"/>
<path fill-rule="evenodd" clip-rule="evenodd" d="M12 5.2475C12.4142 5.2475 12.75 5.58328 12.75 5.9975V11.4594L15.6925 12.4399C16.0855 12.5709 16.2979 12.9956 16.167 13.3886C16.036 13.7816 15.6113 13.994 15.2183 13.863L11.7629 12.7115C11.4566 12.6095 11.25 12.3228 11.25 12V5.9975C11.25 5.58328 11.5858 5.2475 12 5.2475Z" fill="black"/>
</svg>
