<svg width="24" height="24" viewBox="0 0 24 24" fill="none" xmlns="http://www.w3.org/2000/svg">
<path fill-rule="evenodd" clip-rule="evenodd" d="M9.068 6C9.068 5.58579 9.40379 5.25 9.818 5.25H18.545C18.9592 5.25 19.295 5.58579 19.295 6C19.295 6.41421 18.9592 6.75 18.545 6.75H15.06L10.5713 17.25H14.182C14.5962 17.25 14.932 17.5858 14.932 18C14.932 18.4142 14.5962 18.75 14.182 18.75H5.455C5.04079 18.75 4.705 18.4142 4.705 18C4.705 17.5858 5.04079 17.25 5.455 17.25H8.93997L13.4287 6.75H9.818C9.40379 6.75 9.068 6.41421 9.068 6Z" fill="black"/>
</svg>
