<svg width="24" height="24" viewBox="0 0 24 24" fill="none" xmlns="http://www.w3.org/2000/svg">
<path fill-rule="evenodd" clip-rule="evenodd" d="M16.8565 3.63127C17.9862 2.6439 19.6889 2.69921 20.7513 3.76167C21.8118 4.8235 21.8698 6.52668 20.8801 7.65626L15.2812 14.0553C15.2527 14.0996 15.2191 14.1416 15.1803 14.1803C15.166 14.1947 15.1512 14.2083 15.1361 14.2212L13.8485 15.6928C13.212 16.4204 12.2813 16.7284 11.3966 16.6052C11.583 18.8295 9.90564 21.073 7.302 21.073H3.599C2.77055 21.073 2.20037 20.247 2.48804 19.4735L2.48876 19.4716L4.01076 15.4136C4.64424 13.7233 6.28882 12.8372 7.89134 12.9833C7.81477 12.1394 8.12708 11.269 8.81914 10.6636L16.8565 3.63127ZM19.7516 6.66813L14.6077 12.5471L11.9649 9.90425L17.8435 4.76072C18.3796 4.2922 19.1868 4.31877 19.6903 4.82199C20.1939 5.32616 20.2198 6.13371 19.7516 6.66813ZM9.80686 11.7924L10.8335 10.8942L13.6178 13.6785L12.7195 14.7052C12.2442 15.2486 11.4066 15.2769 10.8953 14.7657L9.74633 13.6167C9.23489 13.1052 9.26265 12.2685 9.80686 11.7924ZM5.41531 15.9402C5.99381 14.3962 7.97427 13.9669 9.14067 15.1333C10.7792 16.7719 9.61877 19.573 7.302 19.573H4.05277L5.41531 15.9402Z" fill="white"/>
</svg>
