<svg width="24" height="24" viewBox="0 0 24 24" fill="none" xmlns="http://www.w3.org/2000/svg">
<path d="M13.9696 10.1245C14.3838 10.1245 14.7196 10.4603 14.7196 10.8745V16.5019C14.7196 16.9161 14.3838 17.2519 13.9696 17.2519C13.5554 17.2519 13.2196 16.9161 13.2196 16.5019V10.8745C13.2196 10.4603 13.5554 10.1245 13.9696 10.1245Z" fill="black"/>
<path d="M10.7804 10.8745C10.7804 10.4603 10.4446 10.1245 10.0304 10.1245C9.61621 10.1245 9.28042 10.4603 9.28042 10.8745V16.5019C9.28042 16.9161 9.61621 17.2519 10.0304 17.2519C10.4446 17.2519 10.7804 16.9161 10.7804 16.5019V10.8745Z" fill="black"/>
<path fill-rule="evenodd" clip-rule="evenodd" d="M7.31085 5.62264V4.12175C7.31085 3.08595 8.15053 2.24628 9.18632 2.24628H14.8137C15.8495 2.24628 16.6891 3.08595 16.6891 4.12175V5.62264H20.0033C20.4175 5.62264 20.7533 5.95843 20.7533 6.37264C20.7533 6.78686 20.4175 7.12264 20.0033 7.12264H19.4473L18.535 18.983C18.4147 20.5465 17.111 21.7538 15.5429 21.7538H8.4571C6.889 21.7538 5.58527 20.5465 5.465 18.983L4.55267 7.12264H3.99664C3.58243 7.12264 3.24664 6.78686 3.24664 6.37264C3.24664 5.95843 3.58243 5.62264 3.99664 5.62264H7.31085ZM8.81085 4.12175C8.81085 3.91438 8.97896 3.74628 9.18632 3.74628H14.8137C15.021 3.74628 15.1891 3.91438 15.1891 4.12175V5.62264H8.81085V4.12175ZM8.05894 7.12268H6.0571L6.96059 18.868C7.02074 19.6499 7.67281 20.2538 8.4571 20.2538H15.5429C16.3272 20.2538 16.9793 19.6499 17.0394 18.868L17.9429 7.12268H15.941L15.9391 7.12268H8.06085L8.05894 7.12268Z" fill="black"/>
</svg>
