<svg width="24" height="24" viewBox="0 0 24 24" fill="none" xmlns="http://www.w3.org/2000/svg">
<path fill-rule="evenodd" clip-rule="evenodd" d="M14.1791 2.6754C12.7834 2.10352 11.2187 2.10359 9.82221 2.67525L4.95671 4.66587C3.92213 5.08848 3.24667 6.09558 3.24667 7.212V11.2417C3.24667 15.9592 6.63962 20.3417 11.2752 21.6533C11.7472 21.7873 12.253 21.7872 12.7249 21.6532C17.3602 20.3405 20.7533 15.9592 20.7533 11.2417V7.212C20.7533 6.09563 20.0784 5.08871 19.0448 4.66608L14.1791 2.6754ZM13.6104 4.06341C12.5792 3.64089 11.4228 3.6408 10.3904 4.06349L5.52418 6.05438C5.05444 6.24615 4.74667 6.70394 4.74667 7.212V11.2417C4.74667 15.2637 7.67016 19.0745 11.6839 20.21C11.8881 20.268 12.1111 20.2682 12.3153 20.2103C16.3293 19.0737 19.2533 15.2636 19.2533 11.2417V7.212C19.2533 6.70377 18.9459 6.24614 18.477 6.05447L13.6104 4.06341ZM12 7.7479C11.1865 7.7479 10.5271 8.40675 10.5271 9.22083C10.5271 10.0349 11.1865 10.6938 12 10.6938C12.8133 10.6938 13.4729 10.0341 13.4729 9.22083C13.4729 8.40753 12.8133 7.7479 12 7.7479ZM12 6.2479C10.3585 6.2479 9.02708 7.57788 9.02708 9.22083C9.02708 10.8638 10.3585 12.1938 12 12.1938C13.6417 12.1938 14.9729 10.8626 14.9729 9.22083C14.9729 7.5791 13.6417 6.2479 12 6.2479ZM8.01702 13.6816C8.5456 13.1922 9.23834 12.9177 9.96215 12.9177H14.0388C14.763 12.9177 15.4547 13.1925 15.983 13.6816C16.2947 13.9704 16.5409 14.3258 16.699 14.7252C16.8515 15.1103 16.6629 15.5461 16.2777 15.6986C15.8926 15.8511 15.4568 15.6625 15.3043 15.2773C15.2304 15.0906 15.1143 14.9216 14.9639 14.7823C14.7099 14.5471 14.3811 14.4177 14.0388 14.4177H9.96215C9.61959 14.4177 9.28998 14.5473 9.03625 14.7821C8.88693 14.9205 8.77057 15.0898 8.69485 15.2794C8.54124 15.6641 8.10488 15.8514 7.7202 15.6978C7.33552 15.5442 7.1482 15.1078 7.30181 14.7231C7.46016 14.3266 7.70423 13.9714 8.01702 13.6816Z" fill="white"/>
</svg>
