<svg width="24" height="24" viewBox="0 0 24 24" fill="none" xmlns="http://www.w3.org/2000/svg">
<path fill-rule="evenodd" clip-rule="evenodd" d="M4.95041 5.48969C6.57863 3.73622 9.35666 3.91834 11.0068 5.44711L11.0205 5.46005L11.0338 5.47313C12.7119 7.15491 12.74 9.84347 11.0103 11.4496C9.3611 12.9811 6.68016 13.1655 5.05041 11.4104C3.51013 9.75161 3.35709 7.20557 4.95041 5.48969ZM6.0496 6.51037C7.01734 5.46819 8.82861 5.48137 9.97947 6.54021C11.0879 7.65881 11.0557 9.36059 9.98967 10.3504C8.83891 11.419 7.11985 11.4346 6.1496 10.3897C5.08988 9.24845 5.04292 7.59449 6.0496 6.51037Z" fill="black"/>
<path d="M2.75 19C2.75 17.2142 4.21421 15.75 6 15.75H10C11.7858 15.75 13.25 17.2142 13.25 19C13.25 19.4142 13.5858 19.75 14 19.75C14.4142 19.75 14.75 19.4142 14.75 19C14.75 16.3858 12.6142 14.25 10 14.25H6C3.38579 14.25 1.25 16.3858 1.25 19C1.25 19.4142 1.58579 19.75 2 19.75C2.41421 19.75 2.75 19.4142 2.75 19Z" fill="black"/>
<path d="M15.25 14C15.25 13.5858 15.5858 13.25 16 13.25H19C21.1142 13.25 22.75 14.8858 22.75 17C22.75 17.4142 22.4142 17.75 22 17.75C21.5858 17.75 21.25 17.4142 21.25 17C21.25 15.7142 20.2858 14.75 19 14.75H16C15.5858 14.75 15.25 14.4142 15.25 14Z" fill="black"/>
<path fill-rule="evenodd" clip-rule="evenodd" d="M15.2837 6.15576C16.4912 4.9643 18.5319 5.00459 19.7966 6.13793C19.8032 6.14379 19.8097 6.14979 19.8162 6.15593C19.8227 6.16206 19.829 6.16828 19.8352 6.17459C21.1069 7.45155 21.1474 9.54636 19.8017 10.7575C18.5724 11.8639 16.4854 12.0827 15.2425 10.7017C14.14 9.47677 13.9189 7.40016 15.2837 6.15576ZM16.3303 7.23036C16.919 6.64164 18.0522 6.6003 18.7836 7.24443C19.4926 7.96807 19.4466 9.05904 18.7983 9.64256C18.0276 10.3362 16.9146 10.3173 16.3575 9.6983C15.6639 8.92763 15.6827 7.81463 16.3017 7.2575C16.3115 7.2487 16.321 7.23965 16.3303 7.23036Z" fill="black"/>
</svg>
