<svg width="24" height="24" viewBox="0 0 24 24" fill="none" xmlns="http://www.w3.org/2000/svg">
<path d="M12.0002 4.25C13.9635 4.25007 15.8687 5.09859 17.5012 6.36035C19.0356 7.54627 20.3726 9.12944 21.3508 10.834L21.5422 11.1768L21.633 11.374C21.8147 11.8437 21.7845 12.3751 21.5422 12.8242L21.5412 12.8252C20.5498 14.6586 19.1376 16.3749 17.5012 17.6396C15.8687 18.9013 13.9635 19.7499 12.0002 19.75C10.0369 19.75 8.13183 18.9014 6.49925 17.6396C4.96476 16.4537 3.6269 14.8707 2.64867 13.166L2.45824 12.8232C2.18132 12.31 2.18132 11.689 2.45824 11.1758C3.44979 9.34216 4.86266 7.62512 6.49925 6.36035C8.13183 5.0987 10.0369 4.25 12.0002 4.25ZM12.0002 5.75C10.4686 5.75 8.87788 6.41733 7.41625 7.54688C5.9587 8.67327 4.67802 10.2234 3.77757 11.8887C3.74094 11.9571 3.74093 12.0419 3.77757 12.1104L3.9514 12.4209C4.83932 13.9677 6.04993 15.3961 7.41625 16.4521C8.87789 17.5818 10.4686 18.25 12.0002 18.25C13.5316 18.2499 15.1218 17.5825 16.5832 16.4531C18.0407 15.3268 19.3215 13.7765 20.2219 12.1113C20.2587 12.0428 20.2587 11.9582 20.2219 11.8896C19.3215 10.224 18.0407 8.67432 16.5832 7.54785C15.1217 6.41823 13.5318 5.75007 12.0002 5.75Z" fill="black"/>
<path d="M9.37399 9.37403C10.8245 7.9235 13.1754 7.9235 14.6259 9.37403L14.7578 9.51172C16.0755 10.9698 16.0313 13.2207 14.6259 14.626C13.1754 16.0765 10.8245 16.0765 9.37399 14.626C7.92346 13.1755 7.92346 10.8245 9.37399 9.37403ZM13.4423 10.2266C12.5446 9.49459 11.2205 9.54705 10.3838 10.3838C9.49113 11.2764 9.49113 12.7236 10.3838 13.6162C11.2764 14.5088 12.7236 14.5088 13.6162 13.6162C14.4529 12.7795 14.5054 11.4554 13.7734 10.5576L13.6162 10.3838L13.4423 10.2266Z" fill="black"/>
</svg>
