<svg width="24" height="24" viewBox="0 0 24 24" fill="none" xmlns="http://www.w3.org/2000/svg">
<path fill-rule="evenodd" clip-rule="evenodd" d="M9.37355 9.37359C10.8241 7.92307 13.1758 7.92307 14.6264 9.37359C16.0769 10.8241 16.0769 13.1759 14.6264 14.6264C13.1758 16.0769 10.8241 16.0769 9.37355 14.6264C7.92303 13.1759 7.92303 10.8241 9.37355 9.37359ZM10.3837 10.3838C11.2763 9.49115 12.7236 9.49115 13.6162 10.3838C14.5088 11.2764 14.5088 12.7236 13.6162 13.6162C12.7236 14.5089 11.2763 14.5089 10.3837 13.6162C9.49111 12.7236 9.49111 11.2764 10.3837 10.3838Z" fill="white"/>
<path fill-rule="evenodd" clip-rule="evenodd" d="M12 4.25C10.0366 4.25 8.13183 5.09876 6.49924 6.36043C4.86254 7.62528 3.44981 9.34151 2.45825 11.1753C2.18133 11.6885 2.181 12.3098 2.45792 12.8231C3.44947 14.6574 4.8625 16.3744 6.49921 17.6394C8.13182 18.9012 10.0366 19.75 12 19.75C13.9634 19.75 15.8681 18.9012 17.5007 17.6396C19.1374 16.3747 20.5502 14.6585 21.5417 12.8247C21.8186 12.3115 21.819 11.6902 21.542 11.1769C20.5505 9.34261 19.1375 7.62557 17.5008 6.36058C15.8681 5.09876 13.9634 4.25 12 4.25ZM3.77794 11.8883C4.67837 10.2232 5.95905 8.67362 7.41647 7.54732C8.87813 6.41774 10.4684 5.75 12 5.75C13.5316 5.75 15.1218 6.41774 16.5835 7.54742C18.0409 8.67389 19.3217 10.2238 20.2221 11.8895C20.2589 11.9579 20.2589 12.0428 20.2223 12.1113C19.3218 13.7765 18.041 15.3263 16.5835 16.4527C15.1218 17.5823 13.5316 18.25 12 18.25C10.4684 18.25 8.87814 17.5823 7.4165 16.4526C5.95906 15.3261 4.67836 13.7763 3.77793 12.1107C3.74099 12.042 3.741 11.9569 3.77794 11.8883Z" fill="white"/>
</svg>
