<svg width="24" height="24" viewBox="0 0 24 24" fill="none" xmlns="http://www.w3.org/2000/svg">
<path fill-rule="evenodd" clip-rule="evenodd" d="M12 4.25C10.0366 4.25 8.13184 5.09876 6.49923 6.36058C4.86252 7.62557 3.44978 9.34208 2.45823 11.1763C2.18131 11.6896 2.18102 12.3108 2.45794 12.8241C3.31449 14.4077 4.48509 15.9039 5.84205 17.0973L4.46967 18.4697C4.17678 18.7626 4.17678 19.2374 4.46967 19.5303C4.76256 19.8232 5.23744 19.8232 5.53033 19.5303L7.46086 17.5998C7.47768 17.5845 7.49392 17.5682 7.50951 17.5511L10.3033 14.7573L14.7583 10.3023L17.5658 7.49483C17.5711 7.4897 17.5763 7.48447 17.5815 7.47916L19.5303 5.53033C19.8232 5.23744 19.8232 4.76256 19.5303 4.46967C19.2374 4.17678 18.7626 4.17678 18.4697 4.46967L16.9683 5.97105C15.4606 4.92704 13.7532 4.25 12 4.25ZM15.8878 7.05155C14.6253 6.22501 13.2915 5.75 12 5.75C10.4684 5.75 8.87816 6.41774 7.41652 7.54742C5.95908 8.67385 4.67838 10.2237 3.77795 11.8893C3.74103 11.9579 3.74102 12.043 3.77792 12.1116C4.57171 13.5791 5.66049 14.9565 6.90516 16.0342L8.7633 14.176C7.74138 12.6595 7.90117 10.5832 9.24267 9.24167C10.5842 7.90017 12.6605 7.74038 14.177 8.7623L15.8878 7.05155ZM10.3033 10.3023C11.0552 9.55041 12.1825 9.40182 13.0828 9.85655L9.85755 13.0818C9.40282 12.1815 9.55142 11.0542 10.3033 10.3023Z" fill="white"/>
<path d="M18.5919 8.35071C18.9069 8.08169 19.3803 8.11893 19.6493 8.43389C20.372 9.28006 21.0168 10.2054 21.5417 11.1763C21.8186 11.6895 21.819 12.3108 21.5421 12.8241L21.5407 12.8266C20.5492 14.6596 19.1369 16.3751 17.5007 17.6396C15.8681 18.9012 13.9634 19.75 12 19.75C11.0519 19.75 10.1171 19.5496 9.22528 19.2044C8.83899 19.0549 8.64705 18.6206 8.79657 18.2343C8.94608 17.848 9.38044 17.656 9.76672 17.8056C10.5129 18.0944 11.2641 18.25 12 18.25C13.5316 18.25 15.1219 17.5823 16.5835 16.4527C18.041 15.3263 19.3218 13.7766 20.2222 12.1114C20.259 12.0428 20.2589 11.9578 20.222 11.8893C19.751 11.0183 19.1679 10.1798 18.5087 9.40811C18.2397 9.09315 18.2769 8.61973 18.5919 8.35071Z" fill="white"/>
</svg>
