<svg width="71" height="20" viewBox="0 0 71 20" fill="none" xmlns="http://www.w3.org/2000/svg">
<path d="M55.7422 5.47656C55.7422 4.91406 56.1068 4.63281 56.8359 4.63281C56.9609 4.63281 57.0703 4.66667 57.1641 4.73438C57.2578 4.80208 57.3125 4.89583 57.3281 5.01562C57.375 5.33333 57.4167 5.64844 57.4531 5.96094C57.4896 6.27344 57.5234 6.625 57.5547 7.01562C57.5911 7.40104 57.625 7.84896 57.6562 8.35938C57.6927 8.86458 57.7318 9.46875 57.7734 10.1719C57.7734 10.2448 57.7839 10.2969 57.8047 10.3281C57.8307 10.3594 57.8594 10.375 57.8906 10.375C57.9375 10.375 57.9844 10.3281 58.0312 10.2344C58.2083 9.84375 58.4062 9.49479 58.625 9.1875C58.8438 8.875 59.0781 8.61198 59.3281 8.39844C59.5781 8.17969 59.8411 8.01562 60.1172 7.90625C60.3984 7.79167 60.6849 7.73438 60.9766 7.73438C61.362 7.73438 61.7109 7.84375 62.0234 8.0625C62.3359 8.28125 62.6016 8.59115 62.8203 8.99219C63.0391 9.39323 63.2083 9.88021 63.3281 10.4531C63.4479 11.0208 63.5078 11.6562 63.5078 12.3594C63.5078 12.5521 63.4922 12.7109 63.4609 12.8359C63.4349 12.9557 63.388 13.0521 63.3203 13.125C63.2526 13.1979 63.1589 13.2474 63.0391 13.2734C62.9193 13.3047 62.7708 13.3203 62.5938 13.3203C62.349 13.3203 62.1719 13.2734 62.0625 13.1797C61.9583 13.0859 61.9062 12.9401 61.9062 12.7422C61.9062 12.2526 61.8724 11.7917 61.8047 11.3594C61.7422 10.9219 61.6536 10.5391 61.5391 10.2109C61.4245 9.88281 61.2891 9.6224 61.1328 9.42969C60.9818 9.23698 60.8177 9.14062 60.6406 9.14062C60.2396 9.14062 59.8385 9.46615 59.4375 10.1172C59.0417 10.7682 58.6276 11.75 58.1953 13.0625C58.1536 13.1823 58.1068 13.2812 58.0547 13.3594C58.0026 13.4375 57.9401 13.5 57.8672 13.5469C57.7995 13.5938 57.7161 13.625 57.6172 13.6406C57.5182 13.6615 57.401 13.6719 57.2656 13.6719C56.9896 13.6719 56.7917 13.6198 56.6719 13.5156C56.5573 13.4115 56.4948 13.2396 56.4844 13C56.4531 12.0938 56.3958 11.2292 56.3125 10.4062C56.2344 9.57812 56.151 8.83073 56.0625 8.16406C55.9792 7.49219 55.9036 6.92448 55.8359 6.46094C55.7734 5.99219 55.7422 5.66406 55.7422 5.47656Z" fill="white"/>
<path d="M68.7891 7.15625C68.5964 7.15625 68.4271 7.20833 68.2812 7.3125C68.1354 7.41146 68.0104 7.55208 67.9062 7.73438C67.8021 7.91146 67.7161 8.1224 67.6484 8.36719C67.5807 8.60677 67.526 8.86979 67.4844 9.15625C67.4427 9.44271 67.4141 9.74219 67.3984 10.0547C67.3828 10.3672 67.375 10.6823 67.375 11C67.375 11.4167 67.3906 11.8281 67.4219 12.2344C67.4583 12.6354 67.4766 13.0078 67.4766 13.3516C67.4766 13.5755 67.3932 13.75 67.2266 13.875C67.0599 14.0052 66.8229 14.0703 66.5156 14.0703C66.4583 14.0703 66.3932 14.0651 66.3203 14.0547C66.2474 14.0443 66.1771 14.0234 66.1094 13.9922C66.0469 13.9609 65.9896 13.9167 65.9375 13.8594C65.8906 13.8073 65.8646 13.7344 65.8594 13.6406C65.8125 13.1823 65.7448 12.7135 65.6562 12.2344C65.5677 11.7552 65.4557 11.2786 65.3203 10.8047C65.1901 10.3255 65.0312 9.85156 64.8438 9.38281C64.6615 8.91406 64.4505 8.45573 64.2109 8.00781C64.1693 7.92969 64.1328 7.85677 64.1016 7.78906C64.0755 7.72135 64.0625 7.65625 64.0625 7.59375C64.0625 7.51562 64.0964 7.43229 64.1641 7.34375C64.237 7.25 64.3255 7.16406 64.4297 7.08594C64.5391 7.00781 64.6562 6.94531 64.7812 6.89844C64.9115 6.84635 65.0365 6.82031 65.1562 6.82031C65.3542 6.82031 65.5286 6.95833 65.6797 7.23438C65.8307 7.50521 65.9714 7.9401 66.1016 8.53906C66.1276 8.64323 66.1484 8.71615 66.1641 8.75781C66.1797 8.79948 66.2005 8.82031 66.2266 8.82031C66.2839 8.82031 66.3203 8.73177 66.3359 8.55469C66.3984 8.0599 66.5052 7.63542 66.6562 7.28125C66.8073 6.92188 66.9948 6.6276 67.2188 6.39844C67.4479 6.16406 67.7083 5.99219 68 5.88281C68.2969 5.77344 68.6224 5.71875 68.9766 5.71875C69.1797 5.71875 69.3854 5.73698 69.5938 5.77344C69.8021 5.8099 69.9896 5.86458 70.1562 5.9375C70.3229 6.01042 70.4583 6.09896 70.5625 6.20312C70.6667 6.30729 70.7188 6.42448 70.7188 6.55469C70.7188 6.64844 70.6979 6.76042 70.6562 6.89062C70.6198 7.01562 70.5703 7.13802 70.5078 7.25781C70.4453 7.3724 70.3724 7.47135 70.2891 7.55469C70.2109 7.63281 70.1302 7.67188 70.0469 7.67188C69.9531 7.67188 69.862 7.64583 69.7734 7.59375C69.6849 7.53646 69.5885 7.47656 69.4844 7.41406C69.3854 7.35156 69.2786 7.29427 69.1641 7.24219C69.0547 7.1849 68.9297 7.15625 68.7891 7.15625Z" fill="white"/>
<path d="M52.4766 12.7891C52.612 12.8359 52.7552 12.8594 52.9062 12.8594C53.1875 12.8594 53.4089 12.7969 53.5703 12.6719C53.737 12.5417 53.8203 12.362 53.8203 12.1328C53.8203 12.013 53.7917 11.8984 53.7344 11.7891C53.6771 11.6797 53.599 11.5833 53.5 11.5C53.4062 11.4167 53.2943 11.3516 53.1641 11.3047C53.0391 11.2526 52.9089 11.2266 52.7734 11.2266C52.487 11.2266 52.2552 11.2943 52.0781 11.4297C51.9062 11.5651 51.8203 11.7422 51.8203 11.9609C51.8203 12.0859 51.8464 12.2031 51.8984 12.3125C51.9557 12.4219 52.0339 12.5182 52.1328 12.6016C52.2318 12.6797 52.3464 12.7422 52.4766 12.7891Z" fill="white"/>
<path d="M46.9844 6.21875C47.3333 6.21875 47.6927 6.26562 48.0625 6.35938C48.4323 6.44792 48.7708 6.5651 49.0781 6.71094C49.3854 6.85156 49.638 7.01042 49.8359 7.1875C50.0339 7.36458 50.1328 7.53646 50.1328 7.70312C50.1328 7.78646 50.0964 7.88021 50.0234 7.98438C49.9505 8.08333 49.862 8.17969 49.7578 8.27344C49.6536 8.36198 49.5391 8.4375 49.4141 8.5C49.2943 8.55729 49.1875 8.58594 49.0938 8.58594C48.9688 8.58594 48.8281 8.53385 48.6719 8.42969C48.5208 8.32552 48.3516 8.21094 48.1641 8.08594C47.9818 7.95573 47.7812 7.83854 47.5625 7.73438C47.3438 7.63021 47.1068 7.57812 46.8516 7.57812C46.6849 7.57812 46.5469 7.61979 46.4375 7.70312C46.3333 7.78125 46.2812 7.89323 46.2812 8.03906C46.2812 8.16927 46.3438 8.30208 46.4688 8.4375C46.5938 8.56771 46.7578 8.70312 46.9609 8.84375C47.1693 8.98438 47.4036 9.13281 47.6641 9.28906C47.9245 9.44531 48.1901 9.61198 48.4609 9.78906C48.737 9.96615 49.0052 10.1589 49.2656 10.3672C49.526 10.5755 49.7578 10.8021 49.9609 11.0469C50.1693 11.2917 50.3359 11.5599 50.4609 11.8516C50.5859 12.138 50.6484 12.4505 50.6484 12.7891C50.6484 13.0807 50.5964 13.3464 50.4922 13.5859C50.388 13.8255 50.2396 14.0312 50.0469 14.2031C49.8542 14.375 49.625 14.5078 49.3594 14.6016C49.0938 14.6953 48.8021 14.7422 48.4844 14.7422C48.0833 14.7422 47.7135 14.6797 47.375 14.5547C47.0365 14.4349 46.7448 14.2682 46.5 14.0547C46.2552 13.8411 46.0625 13.5859 45.9219 13.2891C45.7865 12.9922 45.7188 12.6667 45.7188 12.3125C45.7188 11.8542 45.7995 11.5208 45.9609 11.3125C46.1276 11.1042 46.388 11 46.7422 11C46.9609 11 47.1354 11.0417 47.2656 11.125C47.3958 11.2083 47.4609 11.3099 47.4609 11.4297C47.4609 11.4922 47.4505 11.5573 47.4297 11.625C47.4089 11.6875 47.3854 11.7552 47.3594 11.8281C47.3385 11.8958 47.3177 11.9688 47.2969 12.0469C47.2812 12.125 47.2734 12.2031 47.2734 12.2812C47.2734 12.4167 47.3047 12.5469 47.3672 12.6719C47.4297 12.7969 47.513 12.9062 47.6172 13C47.7266 13.099 47.8516 13.1771 47.9922 13.2344C48.1328 13.2917 48.2812 13.3203 48.4375 13.3203C48.8542 13.3203 49.0625 13.1484 49.0625 12.8047C49.0625 12.5339 48.9557 12.2786 48.7422 12.0391C48.5286 11.7943 48.2604 11.5573 47.9375 11.3281C47.6146 11.0938 47.2656 10.8594 46.8906 10.625C46.5208 10.3906 46.1745 10.1458 45.8516 9.89062C45.5286 9.63542 45.2604 9.36458 45.0469 9.07812C44.8333 8.78646 44.7266 8.47135 44.7266 8.13281C44.7266 7.85156 44.7839 7.59375 44.8984 7.35938C45.0182 7.125 45.1797 6.92448 45.3828 6.75781C45.5859 6.58594 45.8229 6.45312 46.0938 6.35938C46.3698 6.26562 46.6667 6.21875 46.9844 6.21875Z" fill="white"/>
<path d="M39.4844 11.8516C39.2708 11.4714 39.1641 10.9323 39.1641 10.2344C39.1641 9.94271 39.1823 9.64844 39.2188 9.35156C39.2604 9.04948 39.3021 8.77083 39.3438 8.51562C39.3906 8.25521 39.4323 8.02604 39.4688 7.82812C39.5104 7.625 39.5312 7.47656 39.5312 7.38281C39.5312 7.28906 39.4974 7.20052 39.4297 7.11719C39.3672 7.03385 39.2786 6.96094 39.1641 6.89844C39.0547 6.83594 38.9219 6.78646 38.7656 6.75C38.6094 6.71354 38.4427 6.69531 38.2656 6.69531C38.0677 6.69531 37.9036 6.74219 37.7734 6.83594C37.6484 6.92448 37.5781 7.04427 37.5625 7.19531C37.5208 7.54948 37.4818 7.8776 37.4453 8.17969C37.4141 8.48177 37.388 8.76302 37.3672 9.02344C37.3464 9.27865 37.3307 9.51823 37.3203 9.74219C37.3099 9.96615 37.3047 10.1771 37.3047 10.375C37.3047 10.8958 37.3776 11.375 37.5234 11.8125C37.6693 12.2448 37.8698 12.6198 38.125 12.9375C38.3854 13.25 38.6927 13.4922 39.0469 13.6641C39.4062 13.8411 39.7969 13.9297 40.2188 13.9297C40.8125 13.9297 41.349 13.7917 41.8281 13.5156C42.3073 13.2396 42.7135 12.8464 43.0469 12.3359C43.3854 11.8203 43.6432 11.1953 43.8203 10.4609C44.0026 9.72656 44.0938 8.89844 44.0938 7.97656C44.0938 7.63802 43.9844 7.38021 43.7656 7.20312C43.5521 7.02604 43.25 6.9375 42.8594 6.9375C42.5521 6.9375 42.3281 6.97656 42.1875 7.05469C42.0469 7.1276 41.9766 7.2474 41.9766 7.41406C41.9766 7.52344 41.987 7.63802 42.0078 7.75781C42.0286 7.8776 42.0495 8.01562 42.0703 8.17188C42.0964 8.32292 42.1198 8.4974 42.1406 8.69531C42.1615 8.88802 42.1719 9.11719 42.1719 9.38281C42.1719 9.82031 42.1276 10.2266 42.0391 10.6016C41.9557 10.9714 41.8359 11.2917 41.6797 11.5625C41.5234 11.8333 41.3359 12.0443 41.1172 12.1953C40.9036 12.3464 40.6693 12.4219 40.4141 12.4219C40.0078 12.4219 39.6979 12.2318 39.4844 11.8516Z" fill="white"/>
<path fill-rule="evenodd" clip-rule="evenodd" d="M28.8906 7.54688C28.8906 7.34375 28.9818 7.1901 29.1641 7.08594C29.3464 6.97656 29.6068 6.92188 29.9453 6.92188C30.0234 6.92188 30.0938 6.93229 30.1562 6.95312C30.2188 6.97396 30.2734 7.01562 30.3203 7.07812C30.3724 7.13542 30.4193 7.21615 30.4609 7.32031C30.5026 7.42448 30.5443 7.55729 30.5859 7.71875C30.6276 7.90104 30.6693 7.99219 30.7109 7.99219C30.7474 7.99219 30.7917 7.91667 30.8438 7.76562C30.9375 7.46875 31.0599 7.21094 31.2109 6.99219C31.3672 6.76823 31.5417 6.58333 31.7344 6.4375C31.9271 6.28646 32.1354 6.17448 32.3594 6.10156C32.5885 6.02865 32.8281 5.99219 33.0781 5.99219C33.5833 5.99219 34.0547 6.08854 34.4922 6.28125C34.9297 6.46875 35.3073 6.73177 35.625 7.07031C35.9427 7.40365 36.1927 7.79948 36.375 8.25781C36.5573 8.71094 36.6484 9.20312 36.6484 9.73438C36.6484 10.2969 36.5495 10.8177 36.3516 11.2969C36.1589 11.776 35.888 12.1901 35.5391 12.5391C35.1901 12.8828 34.7734 13.151 34.2891 13.3438C33.8099 13.5417 33.2839 13.6406 32.7109 13.6406L32.3125 13.625C32.0781 13.625 31.9609 13.7578 31.9609 14.0234L32.3594 17.6094C32.3542 17.6979 32.3229 17.7786 32.2656 17.8516C32.2135 17.9297 32.1406 17.9974 32.0469 18.0547C31.9583 18.112 31.8516 18.1562 31.7266 18.1875C31.6068 18.2188 31.4818 18.2344 31.3516 18.2344C30.9766 18.2344 30.7734 18.112 30.7422 17.8672C30.6328 16.9193 30.5104 16.0182 30.375 15.1641C30.2448 14.3099 30.1094 13.5156 29.9688 12.7812C29.8333 12.0417 29.7005 11.3698 29.5703 10.7656C29.4401 10.1615 29.3229 9.63542 29.2188 9.1875C29.1198 8.73958 29.0417 8.375 28.9844 8.09375C28.9219 7.8125 28.8906 7.63021 28.8906 7.54688ZM31.4297 9.60938C31.4297 9.94792 31.4427 10.2839 31.4688 10.6172C31.4948 10.9453 31.5365 11.3021 31.5938 11.6875C31.625 11.9219 31.7526 12.0547 31.9766 12.0859C32.112 12.1172 32.263 12.1484 32.4297 12.1797C32.6016 12.2057 32.7448 12.2188 32.8594 12.2188C33.1927 12.2188 33.4948 12.1693 33.7656 12.0703C34.0365 11.9714 34.2682 11.8307 34.4609 11.6484C34.6536 11.4609 34.8021 11.2396 34.9062 10.9844C35.0104 10.7292 35.0625 10.4453 35.0625 10.1328C35.0625 9.7526 35.0104 9.39844 34.9062 9.07031C34.8021 8.73698 34.6589 8.44792 34.4766 8.20312C34.2995 7.95833 34.0885 7.76562 33.8438 7.625C33.6042 7.48438 33.3438 7.41406 33.0625 7.41406C32.8177 7.41406 32.5938 7.46875 32.3906 7.57812C32.1927 7.68229 32.0208 7.83073 31.875 8.02344C31.7344 8.21094 31.625 8.4401 31.5469 8.71094C31.4688 8.98177 31.4297 9.28125 31.4297 9.60938Z" fill="white"/>
<path d="M18.8047 11.4219C18.888 12.0052 18.9479 12.6432 18.9844 13.3359C18.9896 13.4141 19 13.4818 19.0156 13.5391C19.0312 13.6016 19.0599 13.651 19.1016 13.6875C19.1432 13.724 19.2031 13.75 19.2812 13.7656C19.3594 13.7865 19.4635 13.7969 19.5938 13.7969C19.7344 13.7969 19.8646 13.7865 19.9844 13.7656C20.1042 13.7448 20.2083 13.7057 20.2969 13.6484C20.3906 13.5911 20.4609 13.513 20.5078 13.4141C20.5599 13.3151 20.5859 13.1875 20.5859 13.0312C20.5859 12.9271 20.5833 12.8281 20.5781 12.7344C20.5729 12.6354 20.5703 12.5365 20.5703 12.4375C20.5703 11.8594 20.599 11.3359 20.6562 10.8672C20.7135 10.3984 20.7891 9.9974 20.8828 9.66406C20.9818 9.33073 21.0911 9.07292 21.2109 8.89062C21.3359 8.70833 21.4635 8.61719 21.5938 8.61719C21.6927 8.61719 21.7943 8.67188 21.8984 8.78125C22.0026 8.89062 22.1042 9.04427 22.2031 9.24219C22.3021 9.4349 22.3958 9.66406 22.4844 9.92969C22.5729 10.1901 22.6536 10.4766 22.7266 10.7891C22.7995 11.0964 22.8594 11.4219 22.9062 11.7656C22.9583 12.1042 22.9948 12.4453 23.0156 12.7891C23.026 12.987 23.0807 13.1276 23.1797 13.2109C23.2839 13.2943 23.4688 13.3359 23.7344 13.3359C23.9635 13.3359 24.1562 13.2839 24.3125 13.1797C24.474 13.0755 24.5703 12.9245 24.6016 12.7266C24.7161 12.0182 24.8359 11.4375 24.9609 10.9844C25.0859 10.526 25.2057 10.1667 25.3203 9.90625C25.4349 9.64062 25.5417 9.45833 25.6406 9.35938C25.7448 9.26042 25.8307 9.21094 25.8984 9.21094C26.0339 9.21094 26.1562 9.3125 26.2656 9.51562C26.3802 9.71875 26.4844 10.0156 26.5781 10.4062C26.6719 10.7917 26.7578 11.2682 26.8359 11.8359C26.9193 12.3984 26.9948 13.0417 27.0625 13.7656C27.0781 13.901 27.1406 14.0104 27.25 14.0938C27.3594 14.1771 27.5104 14.2188 27.7031 14.2188C28 14.2188 28.2344 14.1615 28.4062 14.0469C28.5781 13.9375 28.6641 13.7422 28.6641 13.4609C28.5651 12.4505 28.4401 11.5781 28.2891 10.8438C28.1432 10.1042 27.9688 9.49479 27.7656 9.01562C27.5677 8.53125 27.3385 8.17448 27.0781 7.94531C26.8229 7.71094 26.5365 7.59375 26.2188 7.59375C26.0469 7.59375 25.8672 7.6276 25.6797 7.69531C25.4922 7.76302 25.3073 7.8724 25.125 8.02344C24.9479 8.16927 24.776 8.36198 24.6094 8.60156C24.4427 8.83594 24.2969 9.1224 24.1719 9.46094C24.1458 9.53385 24.1172 9.58333 24.0859 9.60938C24.0599 9.63021 24.0339 9.64062 24.0078 9.64062C23.9818 9.64062 23.9583 9.63021 23.9375 9.60938C23.9167 9.58333 23.8932 9.52865 23.8672 9.44531C23.6745 8.71615 23.4062 8.15885 23.0625 7.77344C22.724 7.38802 22.3099 7.19531 21.8203 7.19531C21.6589 7.19531 21.5026 7.21354 21.3516 7.25C21.2057 7.28646 21.0625 7.35156 20.9219 7.44531C20.7865 7.53385 20.6589 7.65625 20.5391 7.8125C20.4193 7.96875 20.3073 8.16667 20.2031 8.40625C20.1302 8.57812 20.0651 8.66406 20.0078 8.66406C19.9557 8.66406 19.9141 8.56771 19.8828 8.375C19.8568 8.23958 19.8307 8.125 19.8047 8.03125C19.7839 7.93229 19.7604 7.83854 19.7344 7.75C19.7083 7.67708 19.6615 7.625 19.5938 7.59375C19.5312 7.5625 19.4557 7.54688 19.3672 7.54688C19.2578 7.54688 19.1354 7.56771 19 7.60938C18.8698 7.65104 18.7474 7.70833 18.6328 7.78125C18.5182 7.84896 18.4219 7.92969 18.3438 8.02344C18.2708 8.11719 18.2344 8.21354 18.2344 8.3125C18.2344 8.38021 18.2656 8.54948 18.3281 8.82031C18.3958 9.09115 18.4714 9.44531 18.5547 9.88281C18.6432 10.3203 18.7266 10.8333 18.8047 11.4219Z" fill="white"/>
<path fill-rule="evenodd" clip-rule="evenodd" d="M14.3047 6.17188C14.5911 6.17188 14.8672 6.21615 15.1328 6.30469C15.3984 6.39323 15.6328 6.51562 15.8359 6.67188C16.0391 6.82812 16.2005 7.01562 16.3203 7.23438C16.4453 7.45312 16.5078 7.69531 16.5078 7.96094C16.5078 8.07031 16.4818 8.17708 16.4297 8.28125C16.3828 8.38021 16.3177 8.46875 16.2344 8.54688C16.151 8.61979 16.0547 8.67969 15.9453 8.72656C15.8411 8.76823 15.7318 8.78906 15.6172 8.78906C15.6068 8.78906 15.5964 8.79167 15.5859 8.79688H15.5625C15.5521 8.80208 15.5417 8.80469 15.5312 8.80469L15.5625 9.42969C15.5833 10.1745 15.6875 10.7188 15.875 11.0625C16.0677 11.4062 16.3177 11.5781 16.625 11.5781C16.7344 11.5781 16.8307 11.5677 16.9141 11.5469C17.0026 11.526 17.0833 11.5026 17.1562 11.4766C17.2344 11.4453 17.3073 11.4193 17.375 11.3984C17.4427 11.3776 17.5104 11.3672 17.5781 11.3672C17.6979 11.3672 17.8021 11.4193 17.8906 11.5234C17.9844 11.6276 18.0312 11.7526 18.0312 11.8984C18.0312 12.0443 17.974 12.1901 17.8594 12.3359C17.75 12.4818 17.6042 12.6146 17.4219 12.7344C17.2396 12.849 17.0339 12.9427 16.8047 13.0156C16.5755 13.0885 16.3438 13.125 16.1094 13.125C15.7031 13.125 15.3464 12.9583 15.0391 12.625C14.7318 12.2865 14.513 11.7917 14.3828 11.1406C14.3516 11.0365 14.3099 10.9844 14.2578 10.9844C14.1953 10.9844 14.1406 11.0156 14.0938 11.0781C13.5781 11.7292 13.0286 12.2188 12.4453 12.5469C11.862 12.8698 11.2865 13.0312 10.7188 13.0312C10.4531 13.0312 10.2135 12.9922 10 12.9141C9.78646 12.8359 9.60417 12.7266 9.45312 12.5859C9.30729 12.4401 9.19271 12.2656 9.10938 12.0625C9.08617 12.0006 9.06642 11.9367 9.05011 11.8707C8.85749 11.8537 8.64808 11.8186 8.42188 11.7656C8.09375 11.6875 7.7526 11.5911 7.39844 11.4766C7.04427 11.362 6.6901 11.237 6.33594 11.1016C5.98177 10.9609 5.64844 10.8333 5.33594 10.7188C5.02865 10.6042 4.75521 10.5078 4.51562 10.4297C4.28125 10.3516 4.10417 10.3125 3.98438 10.3125C3.89062 10.3125 3.79948 10.3568 3.71094 10.4453C3.6276 10.5286 3.54948 10.6458 3.47656 10.7969C3.40885 10.9479 3.35156 11.1276 3.30469 11.3359C3.25781 11.5391 3.22396 11.763 3.20312 12.0078C3.17708 12.2839 3.07812 12.4896 2.90625 12.625C2.73958 12.7552 2.50781 12.8203 2.21094 12.8203C1.90365 12.8203 1.72656 12.6771 1.67969 12.3906C1.60156 11.9531 1.50521 11.5078 1.39062 11.0547C1.28125 10.6016 1.15885 10.1484 1.02344 9.69531C0.893229 9.24219 0.75 8.79427 0.59375 8.35156C0.442708 7.90885 0.283854 7.48438 0.117188 7.07812C0.0755208 6.98958 0.0442708 6.90885 0.0234375 6.83594C0.0078125 6.75781 0 6.67969 0 6.60156C0 6.53385 0.0208333 6.47135 0.0625 6.41406C0.104167 6.35156 0.161458 6.29688 0.234375 6.25C0.307292 6.20312 0.390625 6.16667 0.484375 6.14062C0.583333 6.11458 0.684896 6.10156 0.789062 6.10156C1.0026 6.10156 1.17188 6.14583 1.29688 6.23438C1.42188 6.32292 1.54948 6.45573 1.67969 6.63281C1.74219 6.71615 1.80208 6.82812 1.85938 6.96875C1.91667 7.10417 1.97135 7.25 2.02344 7.40625C2.07552 7.5625 2.1276 7.72135 2.17969 7.88281C2.23177 8.03906 2.28125 8.18229 2.32812 8.3125C2.38021 8.4375 2.42969 8.54167 2.47656 8.625C2.52865 8.70312 2.57812 8.74219 2.625 8.74219C2.66667 8.74219 2.70052 8.72396 2.72656 8.6875C2.75781 8.65104 2.79427 8.59635 2.83594 8.52344C3.10677 7.96094 3.40365 7.44792 3.72656 6.98438C4.04948 6.51562 4.38021 6.11719 4.71875 5.78906C5.05729 5.45573 5.39583 5.19792 5.73438 5.01562C6.07812 4.83333 6.40625 4.74219 6.71875 4.74219C6.84375 4.74219 6.96094 4.76562 7.07031 4.8125C7.17969 4.85417 7.27344 4.91406 7.35156 4.99219C7.4349 5.07031 7.5 5.16406 7.54688 5.27344C7.59375 5.3776 7.61719 5.48958 7.61719 5.60938C7.61719 5.8125 7.54948 6.0026 7.41406 6.17969C7.28385 6.35677 7.11719 6.52865 6.91406 6.69531C6.71615 6.86198 6.5 7.02344 6.26562 7.17969C6.03125 7.33594 5.8125 7.49479 5.60938 7.65625C5.41146 7.81771 5.24479 7.98177 5.10938 8.14844C4.97917 8.3151 4.91406 8.49219 4.91406 8.67969C4.91406 8.83594 5.02344 8.98698 5.24219 9.13281C5.46094 9.27865 5.77604 9.42448 6.1875 9.57031C6.59896 9.71615 7.09635 9.86719 7.67969 10.0234C8.13186 10.1405 8.62784 10.2639 9.16763 10.3935C9.18586 10.3408 9.2055 10.2877 9.22656 10.2344C9.38802 9.83854 9.60417 9.44792 9.875 9.0625C10.1458 8.67708 10.4583 8.3099 10.8125 7.96094C11.1719 7.61198 11.5469 7.30469 11.9375 7.03906C12.3333 6.77344 12.7344 6.5625 13.1406 6.40625C13.5469 6.25 13.9349 6.17188 14.3047 6.17188ZM14.0469 8.875C14.1406 8.69792 14.2266 8.57031 14.3047 8.49219C14.3828 8.40885 14.4948 8.35417 14.6406 8.32812C14.7552 8.3125 14.8125 8.27604 14.8125 8.21875C14.8125 8.17708 14.7969 8.13281 14.7656 8.08594C14.6667 7.95052 14.5625 7.83333 14.4531 7.73438C14.3438 7.63021 14.1979 7.57812 14.0156 7.57812C13.8177 7.57812 13.5964 7.63542 13.3516 7.75C13.1068 7.86458 12.8568 8.01823 12.6016 8.21094C12.3516 8.39844 12.1042 8.61458 11.8594 8.85938C11.6198 9.09896 11.4062 9.34635 11.2188 9.60156C11.0312 9.85677 10.8802 10.1094 10.7656 10.3594C10.651 10.6094 10.5938 10.8333 10.5938 11.0312C10.5938 11.2083 10.6406 11.3464 10.7344 11.4453C10.8333 11.5443 10.9661 11.5938 11.1328 11.5938C11.5599 11.5938 12.026 11.3672 12.5312 10.9141C13.0365 10.4609 13.5417 9.78125 14.0469 8.875Z" fill="white"/>
</svg>
